<?xml version="1.0" encoding="utf-8"?>
<!-- Generator: Adobe Illustrator 21.1.0, SVG Export Plug-In . SVG Version: 6.00 Build 0)  -->
<svg version="1.1" id="Layer_1" xmlns="http://www.w3.org/2000/svg" xmlns:xlink="http://www.w3.org/1999/xlink" x="0px" y="0px"
	 viewBox="0 0 250 307" style="enable-background:new 0 0 250 307;" xml:space="preserve">
<style type="text/css">
	.st0{fill:#4E29FE;stroke:#4E29FE;stroke-width:0.15;stroke-miterlimit:10;}
	.st1{fill:#95A6A6;stroke:#95A6A6;stroke-width:0.125;stroke-miterlimit:10;}
	.st2{stroke:#000000;stroke-width:0.15;stroke-miterlimit:10;}
	.st3{fill:#95A6A6;stroke:#95A6A6;stroke-width:0.15;stroke-miterlimit:10;}
</style>
<g id="Layer_1_1_">
</g>
<path class="st0" d="M201,203.4c-0.1,0-0.1-0.1-0.2-0.1c-0.9,0.3-1.7,0.6-2.3,1.4c-0.5,0.7-1,1.4-1.5,2.1c-0.2,0.2-0.3,0.5-0.2,0.8
	c0.1,0.2,0,0.4-0.2,0.5s-0.5,0.1-0.7,0.1c0,0-0.1-0.1-0.1-0.2c0.1-0.4,0.1-0.7,0.3-1c0.2-0.4,0.5-0.8,0.8-1.3
	c0.2-0.2,0.3-0.5,0.5-0.7c0.1-0.1,0.1-0.3,0.2-0.4c-0.2,0-0.3,0-0.5,0c-0.7,0-1.2,0.4-1.8,0.7c-0.1,0.1-0.2,0.2-0.3,0.3
	c-0.5,1.2-1.5,2-2.5,2.7c-0.2,0.2-0.5,0.3-0.8,0.2c-0.3-0.2-0.6-0.5-0.5-0.9s0.2-0.7,0.4-1.1c0.2-0.4,0.4-0.7,0.5-1c0,0,0-0.1,0-0.2
	H192c-0.1,0.1-0.2,0.2-0.2,0.2c-0.6-0.1-0.7,0.3-0.9,0.7c-0.2,0.5-0.5,1-0.8,1.5c-0.2,0.4-0.6,0.8-0.6,1.4c0,0.1-0.1,0.2-0.1,0.3
	c-0.1,0.2-0.4,0.3-0.6,0.3c-0.2-0.1-0.4-0.4-0.2-0.6c0.3-0.5,0.6-1,0.8-1.5c0.2-0.4,0.4-0.8,0.6-1.2c0.1-0.2-0.1-0.4-0.3-0.4
	c-0.5,0.1-1.1,0.3-1.6,0.4c-0.2,0.1-0.5,0.2-0.6,0.1c-0.3-0.1-0.4,0-0.6,0.3c-0.3,0.5-0.5,0.9-0.8,1.3c-0.2,0.3-0.3,0.4-0.2,0.8
	c0.1,0.2-0.1,0.5-0.3,0.7c-0.2,0.1-0.4,0.2-0.6,0.3c-0.4,0.2-0.6,0.2-0.6-0.2c-0.1-0.3,0-0.7,0.2-1c0.4-0.5,0.7-1,1.1-1.5
	c0.1-0.2,0.3-0.4,0.4-0.6c0.1-0.2,0-0.3-0.2-0.3c-1,0.1-2,0.2-3,0.2c-0.2,0-0.4,0.1-0.4,0.3c-0.1,0.4-0.2,0.7-0.3,1.1
	c-0.1,0.5-0.1,1.1-0.1,1.6c0,0.3-0.2,0.4-0.4,0.6c-0.2,0.1-0.5,0-0.5-0.2c-0.1-0.2-0.1-0.4,0-0.7c0.1-0.5,0.2-1,0.4-1.6
	c0.1-0.2,0.2-0.5,0.2-0.7c0.1-0.2-0.1-0.3-0.3-0.2c-0.3,0.1-0.6,0.2-0.8,0.5c-0.1,0.2-0.4,0.2-0.6,0c-0.2-0.2-0.2-0.5,0-0.6
	c0.3-0.2,0.6-0.4,1-0.6c0.2-0.1,0.5-0.2,0.8-0.3c0.1,0,0.2-0.2,0.3-0.3c0.3-0.8,0.6-1.7,1-2.5c0.3-0.8,0.6-1.6,0.9-2.4
	c0.1-0.3,0.2-0.5,0.5-0.7c0.2-0.1,0.4-0.2,0.5,0c0.1,0.1,0.1,0.3,0,0.5c-0.2,0.6-0.5,1.1-0.7,1.7c-0.4,1.1-0.8,2.1-1.2,3.2
	c-0.1,0.2,0,0.3,0.2,0.3c1.1-0.1,2.2,0,3.2-0.3c0.2-0.1,0.4-0.1,0.6-0.1c0.2-0.1,0.5,0,0.6,0.2c0.2,0.4,0.4,0.3,0.7,0.2
	c0.6-0.2,1.3-0.4,1.9-0.5c0.4-0.1,0.7-0.3,0.9-0.6c0.7-0.9,1-1.9,1.5-2.9c0.4-0.8,0.9-1.4,1.3-2.1l0.1-0.1c0.2-0.2,0.6-0.3,0.8-0.2
	c0.1,0.1,0.1,0.5-0.1,0.8c-0.5,0.6-1,1.2-1.2,1.9c-0.3,0.8-0.7,1.6-1.2,2.3c0,0.1,0,0.2,0,0.3c0.1,0,0.2,0,0.3,0
	c0.2-0.1,0.5-0.2,0.7-0.2c0.4,0,0.5,0.2,0.4,0.5c-0.3,0.8-0.7,1.5-1.1,2.3c0,0.1,0,0.2,0,0.3c0.1,0,0.2,0,0.3,0
	c0.3-0.3,0.7-0.5,0.9-0.8c0.4-0.7,0.7-1.4,1.1-2.1c0-0.1,0.1-0.2,0.1-0.3c0.2-0.4,0.4-0.5,0.7-0.2c0.4,0.4,0.7,0.2,1.1,0.1
	c0.4-0.1,0.9-0.2,1.3-0.4c0.4-0.1,0.8-0.4,1-0.8c0.3-0.6,0.6-1.2,0.8-1.8c0.3-0.6,0.6-1.3,0.9-1.9c0.6-0.9,0.9-2,1.3-3
	c0.1-0.4,0.4-0.7,0.6-1c0.1-0.1,0.2-0.3,0.3-0.4c0.1-0.1,0.3-0.1,0.4,0c0.1,0.1,0.2,0.3,0.1,0.4c-0.2,0.5-0.4,0.9-0.6,1.4
	c-0.7,1.4-1.3,2.8-2,4.3c-0.3,0.6-0.5,1.2-0.8,1.8c0,0.1,0,0.2,0,0.2l0,0l0,0c0.4-0.2,0.8-0.4,1.3-0.6c0.2-0.1,0.5-0.2,0.7-0.2
	c0.4-0.1,0.6,0.2,0.5,0.6c-0.3,1.1-0.9,2.1-1.7,2.9c-0.3,0.3-0.3,0.6-0.1,0.9c0.1,0.2,0.1,0.3-0.1,0.4c-0.2,0.1-0.4,0.3-0.6,0.4
	c-0.3,0.1-0.5,0.1-0.7-0.1c-0.2-0.2-0.2-0.4-0.1-0.6c0.1-0.1,0.1-0.3,0.2-0.5C199.8,205.1,200.4,204.3,201,203.4
	C200.9,203.4,200.9,203.4,201,203.4c-0.1-0.1-0.1-0.1-0.1-0.1C200.9,203.4,200.9,203.4,201,203.4z"/>
<path class="st1" d="M61.2,247.8c0.1,0,0.1,0,0.2,0c0.7,0,0.8,0.1,0.8,0.8c0,0.5,0,1,0,1.6c0,0.1,0.1,0.2,0.2,0.2c0,0,0.1,0,0.2-0.1
	c0.4-0.3,0.5-0.7,0.7-1.2c0.2-0.4,0.3-0.8,0.4-1.2c0.1-0.3,0.2-0.6,0.3-1c0.1-0.7,0.3-1.4,0.3-2.1c0.1-1.4,0.1-2.7-0.3-4.1
	c-0.2-0.7-0.8-1.1-1.5-0.8c-0.4,0.2-0.7,0.3-1,0.6c-0.5,0.4-1,0.9-1.3,1.5c-0.1,0.1-0.1,0.2-0.2,0.3c-0.8,0.9-1.4,1.9-1.9,3
	c-0.1,0.3-0.2,0.5-0.4,0.8c-0.3,0.6-0.6,1.2-0.8,1.8c-0.2,0.7-0.6,1.3-0.8,2c-0.2,0.5-0.4,1.1-0.6,1.6c-0.1,0.2-0.1,0.4-0.2,0.6
	c-0.5,1.3-0.7,2.8-0.6,4.2c0.1,0.7,0.3,1.4,1,1.8c0.2,0.1,0.4,0.2,0.6,0.2c0.9,0,1.8-0.1,2.5-0.9c0.4-0.5,0.9-1,1.4-1.4
	c0.5-0.5,1-0.9,1.5-1.3c0.3-0.2,0.5-0.5,0.8-0.8c0.3-0.2,0.5-0.4,0.9-0.3l0,0c-0.7,1-1.4,1.9-2.4,2.7c-0.8,0.6-1.4,1.4-2.1,2
	c-1.3,1-2.9,1-4.2,0.1c-0.4-0.3-0.5-0.7-0.6-1.2c-0.3-1.4-0.3-2.8,0.1-4.2c0.3-1.1,0.7-2.2,1.1-3.3c0-0.1,0.1-0.1,0.1-0.2
	c0.5-1.2,1-2.4,1.5-3.6c0.3-0.6,0.6-1.1,0.9-1.7c0.1-0.2,0.2-0.3,0.3-0.5c0.7-1.5,1.8-2.7,2.9-3.8c0.2-0.2,0.5-0.4,0.8-0.6
	c0.6-0.4,1.2-0.4,1.8-0.2c0.8,0.3,1.2,0.8,1.3,1.6c0.2,1.1,0.2,2.3,0.2,3.4s-0.2,2.1-0.5,3.1c-0.2,1-0.4,2-1,2.9
	c-0.4,0.5-0.7,0.9-1.1,1.4c-0.3,0.3-0.7,0.2-1-0.2l-0.1-0.1c-0.1-0.2-0.2-0.3-0.3-0.5c-0.1,0.2-0.2,0.3-0.4,0.5
	c-0.1,0.1-0.2,0.3-0.3,0.4c-0.5,0.5-1.1,0.5-1.5-0.1c-0.1-0.1-0.1-0.3-0.1-0.5c0.2-1.4,0.6-2.6,1.4-3.7c0.2-0.2,0.3-0.4,0.4-0.6
	c0.1-0.1,0.2-0.3,0.4-0.4c0.3-0.2,0.6,0,0.5,0.4C61.7,247.2,61.7,247.7,61.2,247.8c0,0.1,0,0.2,0,0.3c-0.1,0.1-0.1,0.1-0.2,0.2h-0.1
	c-0.6,0.7-0.8,1.6-1,2.5c0,0.1,0,0.1,0.1,0.2c0.1,0,0.2,0,0.2-0.1c0.5-0.8,1.1-1.6,0.9-2.7c0.1-0.1,0.1-0.1,0.2-0.2
	C61.1,248,61.2,247.9,61.2,247.8z"/>
<path class="st1" d="M122.7,247.1c-0.8,0.1-1.1-0.2-1.4-1c0-0.2,0-0.4-0.2-0.4c-0.3-0.1-0.4,0.1-0.6,0.3c-0.3,0.4-0.5,0.7-0.7,1.1
	c-0.1,0.1-0.2,0.2-0.3,0.3c-0.2,0.2-0.8,0.2-0.9,0.1c-0.2-0.2-0.2-0.5-0.1-0.8c0.2-0.4,0.3-0.7,0.5-1.1s0.4-0.8,0.6-1.2v-0.1h-0.1
	c-0.4,0.3-0.9,0.5-1.3,0.9c-0.7,0.7-1.4,1.5-1.9,2.4c-0.1,0.1-0.2,0.2-0.3,0.3c-0.3,0.3-0.4,0.3-0.6,0.2c-0.4-0.2-0.4-0.4-0.2-0.8
	c0.4-0.8,0.7-1.5,1.1-2.3c0-0.1,0-0.1,0-0.2h-0.1c-0.8,0.2-1.7,0.4-2.5,0.6c-0.6,0.1-0.8,0.5-1,1.1c-0.1,0.6-0.2,1.1-0.2,1.7
	c-0.1,0.6-0.2,0.7-0.8,0.6c-0.3,0-0.2-0.1-0.2-0.3c0.1-0.8,0.3-1.5,0.5-2.2c0.1-0.2-0.1-0.3-0.3-0.3c-0.1,0-0.1,0.1-0.2,0.1
	c-0.8,0.3-1.5,0.6-2.3,0.9c-0.2,0.1-0.3,0.2-0.3,0.4c0.1,0.7-0.3,1.2-0.8,1.7c-0.1,0.1-0.3,0.2-0.5,0.1c-0.1-0.1-0.2-0.3-0.2-0.4
	c0-0.3,0.2-0.6,0.3-0.9c0.3-0.8,0.5-1.5,0.7-2.3c0.1-0.3,0.2-0.6,0.6-0.7c0.3-0.1,0.5,0.1,0.5,0.4c0,0.1-0.1,0.2-0.1,0.3
	c-0.1,0.3,0,0.3,0.3,0.2c0.2-0.1,0.3-0.1,0.5-0.2c0.6-0.3,1.2-0.5,1.9-0.8c0.3-0.1,0.4-0.2,0.6-0.5c0.1-0.1,0.2-0.3,0.2-0.4
	c0.4-1.2,0.9-2.5,1.3-3.7c0.1-0.4,0.3-0.7,0.4-1.1c0.1-0.2,0.2-0.3,0.4-0.5c0.1-0.1,0.3-0.1,0.3,0c0.1,0,0.2,0.2,0.2,0.3
	c0,0.2,0,0.4-0.1,0.5c-0.4,1-0.8,2-1.2,2.9c-0.1,0.4-0.2,0.7-0.3,1.1c-0.1,0.3-0.2,0.6-0.4,0.9c0.3-0.1,0.7-0.1,1-0.2
	c0.5-0.1,1-0.3,1.6-0.5c0.1,0,0.3,0,0.4,0c0.3,0.3,0.4,0.1,0.6-0.1c0-0.1,0.1-0.1,0.2-0.2c0.2-0.2,0.3-0.1,0.5,0s0.2,0.3,0.1,0.5
	c-0.1,0.1-0.1,0.3-0.2,0.4v0.1h0.1c0.5-0.7,1.3-0.9,2-1.3c0.2-0.1,0.4-0.2,0.6-0.2c0.3-0.1,0.6,0.2,0.5,0.5
	c-0.2,0.6-0.2,1.3-0.7,1.9c0,0,0,0.1,0,0.2c0.1,0,0.2,0,0.3,0c0.5-0.5,1.2-0.7,1.5-1.5c0.1-0.3,0.4-0.5,0.6-0.7
	c0.3-0.2,0.6-0.4,0.9-0.6c0.5-0.2,1.1,0.1,0.9,0.7c-0.1,0.5-0.4,1-0.7,1.5c-0.1,0.2-0.5,0.3-0.7,0.4c-0.1,0.1-0.3,0.1-0.4,0.1
	c-0.2,0.1-0.3,0.2-0.2,0.5c0.1,0.2,0.2,0.3,0.4,0.3c0.4-0.1,0.8-0.3,1.2-0.4c0.6-0.3,1.2-0.6,1.8-0.8c0.1,0,0.1-0.1,0.2-0.1
	s0.2,0,0.2,0.1s0,0.2,0,0.2c-0.4,0.3-0.7,0.7-1.1,1s-0.8,0.5-1.2,0.7C123.5,246.9,123.1,247,122.7,247.1z"/>
<path class="st2" d="M152.9,159.9c0-1.2,0-2.2,0.5-3c0.1-0.3,0.2-0.6,0.3-0.9c0.5-1.3,1-2.5,1.7-3.6c0.3-0.5,0.6-1,0.9-1.5
	c0.4-0.5,0.3-0.9,0.1-1.4s-0.3-0.5-0.6-0.1c0,0,0,0-0.1,0.1c-0.4,0.4-0.7,0.5-1.2,0.2c-0.4-0.2-0.6-0.6-0.4-1.1
	c0.1-0.3,0.2-0.6,0.4-0.9c0.3-0.7,0.8-1.1,1.3-1.5c0.1-0.1,0.4-0.1,0.6-0.1c0.3,0,0.5,0,0.8-0.1c0.4,0,0.6,0.3,0.6,0.6
	c-0.1,0.4-0.2,0.8-0.2,1.2s-0.1,0.7-0.1,1.1c0,0.1,0,0.1,0.1,0.2l0.1-0.1c0.8-0.9,1.7-1.9,2.5-2.8c0.4-0.5,1-0.9,1.1-1.6
	c0-0.1,0.4-0.2,0.5-0.3c0.2,0,0.5,0.3,0.4,0.5c0,0.4-0.1,0.8-0.2,1.2c0,0.1,0,0.1,0.1,0.2l0.1-0.1c0.6-0.7,1.2-1.4,1.9-2.2
	c0.3-0.3,0.5-0.4,0.9-0.2c0.3,0.1,0.4,0.3,0.3,0.6c-0.1,0.7-0.3,1.4-0.4,2.1c0,0.2-0.1,0.4-0.1,0.6c0,0.4,0.1,0.5,0.5,0.3
	c0.2-0.1,0.4-0.1,0.6-0.2c0.2,0,0.3,0.2,0.2,0.3c-0.5,0.5-1,0.9-1.7,1.2c-0.1,0-0.4-0.1-0.4-0.2c-0.1-0.2-0.2-0.5-0.2-0.8
	c0-0.8,0-1.6,0.3-2.3c0-0.1,0-0.1,0-0.2c-0.1,0-0.2,0.1-0.2,0.1c-0.4,0.6-0.9,1.1-1.2,1.8c-0.2,0.6-0.6,1.1-0.9,1.6
	c-0.1,0.1-0.2,0.1-0.2,0.2c-0.2,0.2-0.3,0.4-0.6,0.2c-0.3-0.1-0.4-0.3-0.4-0.6c0-0.5-0.1-1,0.1-1.5c0-0.1,0-0.2-0.1-0.2h-0.2
	c-0.2,0.1-0.3,0.3-0.5,0.4c-0.6,0.6-1.2,1.3-1.7,1.9c-0.4,0.6-0.8,1.2-0.8,2c0,1.4,0,2.8-0.2,4.2c-0.1,1.2-0.4,2.3-0.9,3.4
	c-0.4,0.8-0.7,1.6-1.4,2.2c-0.2,0.2-0.4,0.3-0.7,0.4c-0.1,0-0.2,0-0.3,0C153.5,160.9,152.9,160.5,152.9,159.9z M156.5,146.6
	c-0.8,0.3-1,1.1-1.3,1.8v0.1c0.1,0,0.2,0,0.2,0c0.5-0.5,1-1,1.1-1.8C156.6,146.6,156.5,146.6,156.5,146.6
	C156.5,146.5,156.5,146.5,156.5,146.6C156.5,146.5,156.5,146.5,156.5,146.6z M153.7,159.6c0,0,0,0.1,0,0.2c0.1,0.3,0.1,0.7,0.5,0.7
	c0.3,0,0.5-0.3,0.6-0.5c0.2-0.3,0.4-0.6,0.5-0.9c0.3-0.7,0.6-1.3,0.9-2c0.6-1.6,0.4-3.2,0.4-4.8l-0.1-0.1c-0.1,0-0.2,0-0.2,0.1
	c-1,1.7-1.8,3.4-2.3,5.2C153.8,158.1,153.6,158.8,153.7,159.6z"/>
<path class="st2" d="M103.4,113c0,0.7,0.1,1.3,0.1,2c0,1.1,0,2.2-0.3,3.3c-0.5,2.1-1.2,4.2-2,6.2c-0.3,0.9-0.8,1.7-1.1,2.6
	c-0.1,0.3-0.3,0.6-0.5,0.9c-0.1,0.2-0.2,0.4-0.3,0.6c-0.1,0.3-0.1,0.4,0.2,0.5c0.2,0,0.4,0.1,0.6,0.1c0.1,0.1,0.4,0.1,0.3,0.3
	c-0.1,0.1-0.3,0.2-0.5,0.3c-0.2,0-0.5,0-0.7,0c-0.3,0-0.5,0.2-0.7,0.5c-0.4,0.7-0.7,1.4-1.3,1.9c-0.1,0.1-0.2,0.3-0.2,0.4
	c-0.5,0.8-1.1,1.5-1.9,2c-0.5,0.4-1.2,0.1-1.3-0.6c0-0.6,0.1-1.2,0.5-1.7c0.2-0.2,0.3-0.4,0.4-0.6c0.4-0.7,1-1.1,1.6-1.6
	c0.3-0.2,0.6-0.3,0.9,0s0.4,0,0.5-0.1c0.1-0.2,0.1-0.4-0.1-0.5c-0.1-0.1-0.2-0.2-0.3-0.2c-0.5-0.1-0.9-0.5-1.3-0.8
	c-0.6-0.5-1.1-1-1.4-1.7c-0.4-0.8-0.4-1.6-0.3-2.5c0.1-0.8,0.2-1.7,0.6-2.4c0.2-0.4,0.4-0.7,0.6-1.1c0.3-1.1,0.9-2,1.5-3
	c0.4-0.8,0.8-1.5,1.4-2.2c0.7-0.9,1.2-2.1,2.2-2.8c0.5-0.4,0.8-1,1.4-1.4c0.1-0.1,0.3-0.2,0.4-0.3c0.4-0.2,0.7-0.1,0.8,0.3
	c0.1,0.3,0.2,0.6,0.3,0.9C103.4,112.4,103.4,112.7,103.4,113L103.4,113z M102.8,113.5c-0.1-0.5-0.1-0.9-0.2-1.4
	c-0.1-0.3-0.2-0.4-0.5-0.2c-0.2,0.2-0.5,0.4-0.7,0.7c-0.1,0.1-0.3,0.2-0.4,0.4c-0.7,1-1.5,1.9-2.1,2.9c-0.5,0.7-0.9,1.4-1.3,2.1
	c-0.5,0.9-1,1.8-1.4,2.7c-0.7,1.5-1,3-1,4.6c0,0.1,0,0.2,0.1,0.2c0.4,1.5,1.4,2.4,2.8,3c0.2,0.1,0.4,0.1,0.5-0.1
	c0.6-1.1,1.2-2.2,1.7-3.3c0.3-0.6,0.5-1.2,0.7-1.9c0.4-1.1,0.8-2.3,1.1-3.4c0.2-0.8,0.3-1.7,0.5-2.5
	C103,116.1,102.8,114.8,102.8,113.5z M96.9,131L96.9,131c-0.1-0.1-0.2-0.1-0.3-0.1c-0.8,0.4-1.2,1.2-1.7,1.9c-0.1,0.1,0,0.2,0,0.3
	v0.1H95c0.6-0.7,1.1-1.4,1.7-2.1C96.9,131.2,96.9,131.1,96.9,131z"/>
<path class="st0" d="M161.7,189.7c-0.2,0.1-0.5,0.1-0.7,0.2c-0.7,0.2-1.2-0.1-1.2-0.8c0-0.4,0-0.8,0.3-1.2c0.4-0.5,0.8-1.1,1.3-1.5
	c0.3-0.3,0.7-0.7,1.3-0.7c0.2,0,0.3-0.2,0.5-0.2c0.4-0.2,0.6,0,0.6,0.4c-0.1,0.4-0.1,0.9-0.3,1.3c-0.2,0.7-0.4,1.3-0.6,2l0,0v-0.1
	c0.3,0.1,0.5-0.1,0.7-0.3c0.6-0.4,1.2-0.7,1.8-1.1h0.1c0.3-0.1,0.9-0.4,1.1-0.7c0.2-0.2,0.3-0.4,0.5-0.7c0.6-0.7,1.3-1.2,2.1-1.6
	c0.1,0,0.2-0.1,0.3-0.1c0.7-0.1,0.9,0.3,0.7,0.9c-0.4,0.9-0.9,1.6-1.7,2.1c-0.3,0.2-0.5,0.4-0.8,0.6c-0.1,0.1-0.2,0.1-0.4,0.1
	c0-0.2-0.1-0.3,0-0.5c0.2-0.3,0.4-0.5,0.6-0.8c0.3-0.3,0.6-0.6,0.9-0.9c0.1-0.1,0.1-0.1,0.1-0.2c-0.1,0-0.2-0.1-0.2,0
	c-1.1,0.6-1.9,1.6-2.2,2.8c0,0.1,0,0.3,0,0.5c0.1,0.4,0.4,0.5,0.7,0.3c0.6-0.3,1.2-0.7,1.7-1c0.6-0.3,1.2-0.6,1.8-0.9
	c0,0,0.1,0,0.1,0.1s0,0.2,0,0.2c-0.3,0.2-0.6,0.5-0.8,0.7s-0.5,0.3-0.7,0.5c-0.7,0.5-1.3,1.1-2.1,1.4c-0.8,0.4-1.5,0.1-1.7-0.8
	c-0.1-0.3,0-0.6,0-0.9c0-0.1-0.1-0.2-0.2-0.1c0,0,0,0-0.1,0c-0.9,0.5-1.8,1-2.6,1.8c-0.4,0.4-0.6,0.8-0.7,1.3
	c-0.2,1.2-0.4,2.3-0.7,3.5c-0.3,1.4-0.7,2.8-1.5,4.1c-0.1,0.2-0.3,0.4-0.5,0.6c-0.2,0.2-0.5,0.2-0.7-0.1c-0.1-0.2-0.3-0.5-0.3-0.8
	c-0.1-0.8-0.2-1.6-0.1-2.3c0-0.5,0.3-1.1,0.5-1.6c0.4-0.9,0.8-1.8,1.3-2.7c0.3-0.5,0.7-1,1.1-1.4
	C161.6,190.7,161.8,190.2,161.7,189.7L161.7,189.7c0.1-0.1,0-0.1,0-0.1C161.7,189.6,161.7,189.7,161.7,189.7z M161,192.8
	c-0.1,0.1-0.2,0.1-0.3,0.3c-0.4,1-0.9,1.9-1.3,2.9c-0.3,0.8-0.2,1.8-0.3,2.6l0.1,0.1h0.1c0.4-0.4,0.6-0.9,0.7-1.4
	c0.2-0.7,0.3-1.4,0.5-2.1C160.7,194.4,160.8,193.6,161,192.8c0-0.1,0.1-0.1,0.1-0.2c0,0-0.1,0-0.1-0.1
	C161,192.7,161,192.8,161,192.8z M162.5,186.8c0-0.1-0.1-0.2-0.1-0.2s-0.1,0-0.2,0.1c-0.6,0.4-1.1,1-1.4,1.6c-0.1,0.2-0.3,0.5,0,0.6
	c0.1,0.1,0.4-0.2,0.6-0.3c0.1,0,0.1-0.1,0.1-0.2c0.2-0.3,0.5-0.7,0.7-1C162.4,187.2,162.4,187,162.5,186.8z"/>
<path class="st2" d="M58.6,182.1c-0.2,0.2-0.4,0.1-0.6,0c-0.2-0.2-0.2-0.5-0.1-0.7c0.4-0.9,0.8-1.8,1.3-2.6c0.1-0.2,0.2-0.3,0.3-0.4
	c0-0.1,0-0.2-0.1-0.3h-0.2c-0.6,0.4-1.2,0.8-1.6,1.3c-0.6,0.6-1,1.3-1.5,2c-0.2,0.2-0.3,0.5-0.4,0.7c-0.2,0.5-0.5,1-1,1.3
	c-0.3,0.2-0.7,0.1-0.7-0.2c0-0.2,0-0.4,0.1-0.7c0.2-0.9,0.5-1.8,0.7-2.7c0-0.1,0.1-0.3,0.2-0.4c0.3-0.4,0.7-0.3,1,0v0.2
	c-0.5,0.2-0.3,0.8-0.5,1.2v0.1c0,0,0.1,0,0.1-0.1c0.2-0.2,0.3-0.4,0.5-0.7c0.7-1.3,1.8-2.1,3-2.9c0.3-0.2,0.6-0.2,0.9-0.3
	c0.5-0.1,0.8,0.1,0.7,0.6c-0.1,0.4-0.3,0.8-0.4,1.2c-0.3,0.5-0.6,1-0.6,1.6c-0.1,0.1-0.2,0.2-0.2,0.3s0,0.3,0,0.4"/>
<path class="st0" d="M105.5,225.7c0-0.8,0-1.7,0.2-2.4c0.3-0.8,0.5-1.6,0.8-2.4c0.3-1,0.9-1.8,1.6-2.5c0.3-0.3,0.6-0.7,0.9-1
	c0.1-0.1,0.1-0.2,0.1-0.4s0-0.4,0-0.6c0-0.3,0.1-0.6,0.1-1c-0.4,0-0.6,0.5-0.9,0.7c0,0,0,0-0.1,0.1c-0.2,0.1-0.3,0.4-0.5,0.3
	c-0.3-0.1-0.6-0.3-0.7-0.7c0-0.3-0.1-0.7,0.1-1c0.4-0.7,0.9-1.4,1.4-2c0.3-0.4,0.4-0.3,0.9-0.1c0.1,0.1,0.3,0.1,0.4,0.1
	c0.5,0,0.7,0.2,0.7,0.7c0,0.4-0.2,0.8-0.2,1.2c-0.1,0.5-0.1,1.1-0.1,1.6c0,0.1,0.1,0.1,0.1,0.2c0,0,0.1,0,0.1-0.1
	c0.6-0.6,1.2-1.1,1.8-1.7c0.1-0.1,0.2-0.2,0.3-0.3c0.7-0.3,1.2-0.9,1.8-1.4c0.2-0.2,0.5-0.5,0.9-0.4c0.5,0.1,1.1,0.2,1.4,0.7
	c0.2,0.3,0.2,0.5,0.2,0.9c-0.1,1.1-1.3,2.5-2.6,2.8c-0.6,0.1-1.2-0.3-1.3-1c-0.1-0.4-0.1-0.4-0.4-0.2c-0.7,0.5-1.4,1.1-2,1.8
	c-0.3,0.3-0.5,0.7-0.6,1.2c-0.2,1.3-0.3,2.6-0.5,3.9v0.1c-0.5,1.4-0.7,2.9-1.5,4.1c-0.2,0.3-0.5,0.5-0.7,0.8c-0.2,0.2-0.5,0.2-0.8,0
	s-0.6-0.5-0.6-0.9C105.7,226.3,105.6,226,105.5,225.7z M109.3,213.4c-0.5,0.3-0.8,0.8-1.1,1.3v0.1h0.1
	C108.8,214.4,109.2,214,109.3,213.4c0-0.1,0-0.1,0-0.1C109.3,213.3,109.3,213.4,109.3,213.4z M106.3,225.4c0.1,0.5,0.2,0.8,0.3,1.1
	c0.1,0.2,0.3,0.2,0.4,0c0.3-0.5,0.6-1,0.7-1.6c0.6-1.9,1.1-3.9,1.2-5.9c0-0.1,0-0.1-0.1-0.1s-0.2,0-0.2,0.1
	c-0.2,0.2-0.3,0.5-0.5,0.8c-0.5,0.7-1.1,1.3-1.2,2.2c-0.3,0.5-0.3,1.1-0.4,1.6C106.5,224.2,106.4,224.9,106.3,225.4z M115.9,213.8
	c0-0.1,0-0.2,0-0.2c-0.1-0.1-0.1-0.2-0.2-0.2s-0.2,0.1-0.2,0.1c-0.2,0.2-0.4,0.4-0.6,0.5c-0.5,0.3-0.7,0.8-0.8,1.4
	c0,0.3,0.2,0.4,0.4,0.3c0.8-0.3,1.2-0.9,1.5-1.6C115.9,214,115.9,213.9,115.9,213.8z"/>
<path class="st2" d="M81.9,153.3c0-0.8,0.1-1.5,0.4-2.2c0.5-1.1,1.1-2.2,1.7-3.2c0.9-1.4,2-2.7,3.1-4.1c0.4-0.6,1-1,1.5-1.6
	c0.1-0.1,0.2-0.2,0.3-0.3c0.3-0.6,0.9-0.8,1.4-1.2c0.5-0.3,1,0,1.1,0.5c0,0.2,0,0.3,0,0.5c-0.2,1.3-0.4,2.6-1,3.9
	c-0.2,0.4-0.3,0.9-0.5,1.3c-0.5,1.1-1,2.3-1.6,3.4c-0.5,1-1,2-1.6,3s-1.2,1.9-1.8,2.8c-1.1,1.6-2.3,3.1-3.7,4.4
	c-0.3,0.3-0.5,0.5-0.8,0.7c-0.2,0.1-0.4,0.2-0.6,0.2c-0.5,0-0.9-0.4-0.8-0.9s0.2-0.9,0.5-1.3c0.4-0.5,0.8-1.1,1.2-1.6
	c0.3-0.5,0.8-0.7,1.3-1c0.2-0.1,0.4-0.3,0.6-0.4c0.2-0.1,0.5-0.3,0.7-0.4c0.3-0.1,0.5,0.1,0.6,0.5h0.2c0.2-0.3,0.4-0.7,0.7-1.1
	c0.1-0.2,0.3-0.4,0.4-0.6c-0.3-0.2-0.5,0.1-0.8,0.1c-0.7,0.2-1.4,0-1.9-0.4C82.2,154.1,82.1,153.7,81.9,153.3z M82.9,153
	c0.1,0.8,0.4,1.1,1.2,1c0.6-0.1,1.1-0.3,1.7-0.5c0.1,0,0.2-0.1,0.2-0.2c0.3-0.6,0.7-1.1,1-1.7c1-2.1,2.3-4.1,2.9-6.5
	c0-0.1,0.1-0.2,0.2-0.4c0.4-0.8,0.6-1.7,0.7-2.7c0-0.3-0.1-0.4-0.4-0.3c-0.3,0.2-0.7,0.4-0.9,0.7c-0.9,0.9-1.7,1.7-2.5,2.7
	c-0.7,0.9-1.4,1.8-2.1,2.7c-0.7,1-1.2,2.1-1.7,3.2C83,151.7,82.9,152.3,82.9,153z M80.2,160.5c0.1-0.1,0.2-0.1,0.2-0.2
	c1-1.1,2-2,2.9-3.2c0-0.1,0.1-0.2,0-0.2l-0.2-0.1c-0.5,0.1-0.9,0.4-1.2,0.7c-0.2,0.2-0.4,0.5-0.7,0.6c-0.6,0.5-0.8,1.2-1.2,1.8
	c-0.1,0.1-0.1,0.3-0.1,0.4C80,160.4,80.1,160.5,80.2,160.5z"/>
<path class="st2" d="M62.7,174c0-0.8,0.1-1.5,0.4-2.2c0.5-1.1,1.1-2.2,1.7-3.2c0.9-1.4,2-2.7,3.1-4.1c0.4-0.6,1-1,1.5-1.6
	c0.1-0.1,0.2-0.2,0.3-0.3c0.3-0.6,0.9-0.8,1.4-1.2c0.5-0.3,1,0,1.1,0.5c0,0.2,0,0.3,0,0.5c-0.2,1.3-0.4,2.6-1,3.9
	c-0.2,0.4-0.3,0.9-0.5,1.3c-0.5,1.1-1,2.3-1.6,3.4c-0.5,1-1,2-1.6,3s-1.2,1.9-1.8,2.8c-1.1,1.6-2.3,3.1-3.7,4.4
	c-0.3,0.3-0.5,0.5-0.8,0.7c-0.2,0.1-0.4,0.2-0.6,0.2c-0.5,0-0.9-0.4-0.8-0.9c0.1-0.5,0.2-0.9,0.5-1.3c0.4-0.5,0.8-1.1,1.2-1.6
	c0.3-0.5,0.8-0.7,1.3-1c0.2-0.1,0.4-0.3,0.6-0.4c0.2-0.1,0.5-0.3,0.7-0.4c0.3-0.1,0.5,0.1,0.6,0.5h0.2c0.2-0.3,0.4-0.7,0.7-1.1
	c0.1-0.2,0.3-0.4,0.4-0.6c-0.3-0.2-0.5,0.1-0.8,0.1c-0.7,0.2-1.4,0-1.9-0.4C62.9,174.8,62.9,174.3,62.7,174z M63.7,173.6
	c0.1,0.8,0.4,1.1,1.2,1c0.6-0.1,1.1-0.3,1.7-0.5c0.1,0,0.2-0.1,0.2-0.2c0.3-0.6,0.7-1.1,1-1.7c1-2.1,2.3-4.1,2.9-6.5
	c0-0.1,0.1-0.2,0.2-0.4c0.4-0.8,0.6-1.7,0.7-2.7c0-0.3-0.1-0.4-0.4-0.3c-0.3,0.2-0.7,0.4-0.9,0.7c-0.9,0.9-1.7,1.7-2.5,2.7
	c-0.7,0.9-1.4,1.8-2.1,2.7c-0.7,1-1.2,2.1-1.7,3.2C63.8,172.3,63.7,173,63.7,173.6z M60.9,181.1c0.1-0.1,0.2-0.1,0.2-0.2
	c1-1.1,2-2,2.9-3.2c0-0.1,0.1-0.2,0-0.2l-0.2-0.1c-0.5,0.1-0.9,0.4-1.2,0.7c-0.2,0.2-0.4,0.5-0.7,0.6c-0.6,0.5-0.8,1.2-1.2,1.8
	c-0.1,0.1-0.1,0.3-0.1,0.4C60.8,181.1,60.9,181.1,60.9,181.1z"/>
<path class="st2" d="M128.4,173.4c-0.1-0.3,0-0.6,0.3-0.8c0.2-0.2,0.4-0.5,0.5-0.7c0.3-0.5,0.8-1,1.3-1.3c0.3-0.2,0.6-0.4,0.9-0.5
	c0.2-0.1,0.4-0.1,0.6-0.1c0.1,0,0.2,0.2,0.2,0.3c-0.1,0.3-0.1,0.5-0.3,0.8c-0.3,0.4-0.6,0.9-1,1.3c-0.1,0.2-0.4,0.2-0.6,0.3
	c-0.3,0.2-0.5,0.3-0.8,0.5c-0.2,0.1-0.2,0.4-0.2,0.6c0.1,0.2,0.2,0.3,0.4,0.3c0.5-0.1,1-0.3,1.4-0.5s0.7-0.6,0.9-1
	c0.3-0.6,0.7-1.1,1.1-1.7c0.1-0.2,0.3-0.3,0.5-0.4c0.5-0.3,0.9-0.5,1.4-0.7h0.1c0.3-0.1,0.6-0.1,0.8,0.1c0.2,0.1,0.2,0.6,0,0.9
	c-0.4,0.6-0.8,1.1-1.5,1.4c-0.4,0.2-0.7,0.4-1.1,0.6c-0.1,0.1-0.3,0.1-0.4,0.2c-0.1,0.2-0.1,0.5-0.1,0.7c0,0.1,0.2,0.2,0.3,0.2
	c0.4,0,0.7,0,1.1-0.1c0.8-0.3,1.5-0.7,2.3-1.1c0.1-0.1,0.2-0.2,0.3-0.3c0.1-0.2,0.2-0.4,0.3-0.6c0.7-1.4,1.4-2.8,2-4.2
	c0.5-1.3,1.2-2.4,1.6-3.8c0.2-0.6,0.5-1.2,0.8-1.7c0.1-0.2,0.4-0.3,0.6-0.2c0.1,0.1,0.3,0.3,0.2,0.4c0,0.3-0.1,0.6-0.2,0.9
	c-0.2,0.4-0.5,0.8-0.6,1.3c-0.5,1.2-1,2.3-1.6,3.5c-0.4,0.8-0.7,1.6-1.1,2.4c0,0.1,0,0.1-0.1,0.2c0.1,0,0.2,0,0.2,0
	c0.3-0.2,0.6-0.5,0.9-0.7c0.1-0.1,0.2-0.2,0.4-0.3c0.3-0.1,0.6-0.3,0.9-0.1c0.2,0.1,0,0.4-0.4,0.7c-0.8,0.7-1.5,1.3-2.3,2
	c-0.3,0.3-0.3,0.6,0.1,0.7c0.2,0.1,0.5,0,0.7,0s0.4-0.1,0.6-0.2c0.3-0.1,0.5,0.1,0.5,0.4c0,0.2-0.1,0.3-0.4,0.4
	c-0.4,0.1-0.7,0.2-1.1,0.3c-0.2,0-0.5,0.1-0.7,0.1c-0.5-0.2-0.7,0.1-1,0.3c-0.1,0.1-0.3,0.3-0.4,0.4c-0.5,0.3-0.5,0.3-0.7-0.2
	c-0.1-0.3-0.2-0.3-0.4-0.2c-0.7,0.4-1.4,0.6-2.2,0.8c-0.5,0.1-1.1,0-1.5-0.4c-0.2-0.2-0.4-0.2-0.7,0c-0.5,0.3-1,0.6-1.7,0.7
	c-0.8,0.1-1.3-0.3-1.4-1.1C128.4,173.6,128.4,173.6,128.4,173.4z"/>
<path class="st1" d="M85.6,235.3c0.1,1.2,0,2.2-0.2,3.1c-0.3,1.3-0.6,2.6-1,3.8c-0.2,0.6-0.4,1.2-0.6,1.8c-0.1,0.4-0.3,0.8-0.4,1.2
	c0,0.1,0.1,0.3,0.2,0.3c0.2,0.1,0.4,0.1,0.6,0.2c0.1,0.1,0.3,0.2,0.2,0.4c0,0.1-0.2,0.1-0.3,0.1c-0.1,0-0.2-0.1-0.3-0.1
	c-0.4-0.1-0.7,0-0.9,0.4c-0.2,0.5-0.5,0.9-0.7,1.4c0,0.1-0.1,0.1-0.1,0.2c-0.1,0.8-0.5,1.4-1,2.1c-0.2,0.3-0.3,0.6-0.5,0.9
	c-0.5,0.9-1.2,1.6-1.8,2.3c-0.3,0.4-0.7,0.3-0.9-0.2c-0.1-0.2-0.1-0.5,0-0.8c0.4-0.6,0.7-1.3,1.3-1.8c0.4-0.3,0.7-0.6,1.1-0.9
	c0.1-0.1,0.2-0.2,0.2-0.3c0.5-1.1,1.2-2.1,1.6-3.3c0.1-0.2,0.1-0.3-0.1-0.4c-0.6-0.3-1.2-0.5-1.6-0.9c-0.3-0.3-0.6-0.6-0.9-0.9
	c-0.8-0.9-0.9-2-0.6-3.1c0.2-0.9,0.6-1.7,1-2.6c0.8-1.4,1.8-2.7,2.9-3.9c0.3-0.4,0.8-0.6,1.3-0.7s1,0.1,1.2,0.6
	C85.4,234.6,85.6,235.1,85.6,235.3z M79.4,242c0.1,0.4,0.2,0.9,0.4,1.2c0.5,0.8,1.3,1.3,2.2,1.8c0.5,0.3,0.7,0.1,0.9-0.4
	c0.2-0.5,0.4-1,0.5-1.5c0.3-0.9,0.5-1.8,0.8-2.7c0.4-1.1,0.6-2.2,0.7-3.3c0.1-0.6,0-1.3-0.1-1.9c-0.1-1.1-0.8-1-1.4-0.5
	c-0.5,0.5-1.1,1-1.5,1.6c-0.8,1.1-1.6,2.3-2.1,3.6C79.6,240.6,79.3,241.2,79.4,242z"/>
<path class="st2" d="M159.4,170.2c0,0,0-0.1,0-0.2c0-0.1-0.1-0.2-0.2-0.1c-0.3,0.2-0.7,0.4-1,0.7c-0.7,0.5-1.5,0.7-2.2,0.9
	s-1.3-0.2-1.5-0.9c0-0.1,0.1-0.4-0.1-0.4c-0.2,0-0.5-0.1-0.7,0c-0.6,0.3-1.1,0.6-1.7,0.9c-0.2,0.1-0.4,0.4-0.4,0.6
	c-0.5,1.5-1.1,2.9-1.8,4.3c-0.3,0.7-0.6,1.4-1,2.1c-0.1,0.2-0.5,0.4-0.6,0.3c-0.2-0.1-0.3-0.3-0.2-0.6c0-0.1,0.1-0.3,0.1-0.4
	c0.5-0.9,0.9-1.8,1.4-2.8c0.6-1.2,1-2.5,1.3-3.9c0.1-0.5,0.3-1,0.5-1.4c0.1-0.2,0.2-0.5-0.2-0.6c0,0-0.1-0.1-0.1-0.2
	c0.2-0.9,0.9-1.3,1.8-1.1c0.5,0.1,0.9,0.3,1.4,0.4c0.2,0.1,0.4,0.2,0.5,0.3c0.4,0.3,0.4,0.3,0.7-0.1c0.6-0.7,1.4-1.1,2.3-1.4
	c0.2-0.1,0.5-0.1,0.6,0.2c0.1,0.1,0,0.4,0,0.5c-0.3,0.6-0.8,1.1-1.3,1.5c-0.3,0.3-0.7,0.5-1.1,0.8c-0.1,0.1-0.2,0.2-0.2,0.3
	s0.2,0.3,0.3,0.3c0.3,0,0.7,0,1-0.1c0.7-0.2,1.3-0.7,2-1c0.5-0.3,1.1-0.7,1.3-1.3c0.1-0.3,0.4-0.6,0.9-0.4c0.1,0,0.3-0.2,0.4-0.3
	c0.6-0.7,1.3-1.2,2.2-1.5c0.3-0.1,0.6-0.2,1,0c0.1,0.1,0.2,0.2,0.2,0.3c0,0-0.1,0.2-0.2,0.2c-0.5,0.2-1.1,0.4-1.6,0.7
	c-0.2,0.1-0.5,0.3-0.6,0.6c-0.6,0.9-1.2,1.8-1.8,2.7c-0.2,0.2-0.4,0.5-0.6,0.7c-0.2,0.2-0.5,0.1-0.6-0.2
	C159.4,170.6,159.4,170.4,159.4,170.2z M152.1,170.1c0.6-0.1,1.3-0.5,1.6-0.9c0.1-0.1,0.2-0.3-0.1-0.4c-0.4-0.1-0.7-0.3-1.1-0.4
	c-0.2-0.1-0.3,0-0.3,0.2c-0.1,0.4-0.2,0.9-0.3,1.3C151.9,169.9,152,170,152.1,170.1z"/>
<path class="st2" d="M67.8,156c0.1,1-0.3,1.7-0.6,2.5c-0.1,0.3-0.3,0.7-0.5,1s-0.3,0.6-0.3,1c0,0.6-0.5,0.8-0.9,1.1
	c-0.2,0.2-0.6-0.1-0.6-0.4c0.1-0.3,0.2-0.5,0.3-0.8c0.7-1,1.1-2.2,1.6-3.3c0-0.1,0-0.2,0-0.3c-0.1,0-0.2,0.1-0.2,0.1
	c-0.2,0.1-0.3,0.2-0.5,0.3s-0.4,0.2-0.5,0.5c-0.3,0.6-0.6,1.3-0.7,2c-0.1,0.3-0.2,0.6-0.3,1c-0.1,0.2-0.3,0.3-0.5,0.3
	c-0.2,0-0.3-0.2-0.3-0.4s0-0.4,0.1-0.7c0.2-0.6,0.4-1.2,0.6-1.8c0-0.1,0-0.2,0-0.2s-0.1,0-0.2,0c-0.6,0.3-1.3,0.5-1.8,0.8
	c-0.2,0.1-0.3,0.5-0.4,0.7c-0.1,0.4-0.2,0.9-0.4,1.4c-0.1,0.3-0.2,0.5-0.4,0.7c-0.1,0.2-0.3,0.3-0.6,0.2c-0.2-0.1-0.3-0.3-0.2-0.5
	c0.1-0.4,0.2-0.8,0.3-1.1c0.1-0.4,0.3-0.8,0.4-1.3c0-0.1,0-0.3,0-0.4c-0.1-0.2-0.1-0.4,0.1-0.5c0.5-0.4,0.7-1,1-1.6
	c0.3-0.7,0.6-1.3,0.8-2c0-0.1,0.1-0.1,0.1-0.2c0.3-1.5,1-2.9,1.5-4.3c0.3-0.9,0.5-1.8,0.7-2.7c0.2-0.7,0.4-1.4,0.7-2.1
	c0-0.1,0.3-0.2,0.4-0.2c0.2,0,0.3,0.2,0.3,0.4s0,0.5-0.1,0.7c-0.4,1.4-0.9,2.9-1.4,4.3c-0.6,1.6-1.2,3.2-1.8,4.8
	c-0.3,0.7-0.5,1.4-0.8,2.1c0,0.1,0,0.2,0,0.2c0.1,0,0.2,0,0.3,0c0.6-0.2,1.2-0.5,1.8-0.7c0.1,0,0.2-0.2,0.3-0.3
	c0.1-0.2,0.2-0.5,0.3-0.7c0.3-0.8,0.5-1.7,0.8-2.5s0.6-1.6,0.9-2.4c0-0.1,0.1-0.3,0.3-0.3c0.1-0.1,0.3-0.1,0.4,0
	c0.1,0,0.1,0.2,0.1,0.3c0,0.2,0,0.4-0.1,0.6c-0.4,1.3-0.7,2.6-1.3,3.8c-0.1,0.2-0.1,0.4-0.2,0.6c0.2-0.1,0.4-0.1,0.6-0.2
	C67.6,155.2,67.7,155.3,67.8,156z"/>
<path class="st2" d="M43.2,105.8c0.1-0.1,0.3-0.1,0.4-0.2c0.7-0.4,1.4-0.9,2-1.3c0.5-0.3,0.8-0.8,1.4-1c0.1-0.1,0.2-0.4,0.3-0.6
	c0.1-0.6,0.3-1.1,0.4-1.7c0.4-1.7,0.6-3.4,0.7-5.2c0.1-0.9,0.1-1.8,0.2-2.8c0-0.3,0.1-0.6,0.2-0.9c0.1-0.2,0.2-0.3,0.4-0.4
	s0.5,0,0.5,0.3c0,0.1,0,0.2,0,0.3c-0.2,1.8-0.3,3.5-0.5,5.3c-0.2,1.5-0.3,3.1-0.7,4.6c-0.1,0.3,0,0.4,0.3,0.4c0.1,0,0.3,0.1,0.4,0.2
	c0.2,0.1,0.2,0.3,0,0.4s-0.4,0.2-0.6,0.3c-0.3,0.1-0.5,0.3-0.6,0.7c-0.2,1-0.4,2.1-0.5,3.1c0,0.2,0,0.5,0,0.8c0,0.6-0.1,0.8-0.5,0.8
	s-0.6-0.2-0.5-0.9c0.1-0.8,0.3-1.6,0.4-2.4c0-0.2,0.1-0.4,0.1-0.6s0-0.3,0-0.5c-0.1,0.1-0.3,0.1-0.4,0.2c-0.9,0.6-1.8,1.1-2.8,1.7
	c-0.7,0.5-1.3,0.9-1.3,2c0,0.9-0.1,1.7-0.2,2.6c0,0.2-0.1,0.4-0.1,0.6c-0.1,0.3-0.4,0.4-0.6,0.2c-0.2-0.2-0.3-0.5-0.3-0.8
	c0.1-0.9,0.1-1.7,0.2-2.6c0-0.3,0-0.5-0.1-0.7c-0.3-0.4-0.2-0.7,0.2-1c0.2-0.2,0.3-0.4,0.4-0.6c0.1-1.1,0.3-2.1,0.4-3.2
	c0.1-1.2,0.2-2.5,0.2-3.7c0-0.3,0-0.6,0.4-0.8c0.1,0,0.2-0.1,0.3-0.2c0,0.1,0.1,0.2,0.1,0.3c0.3,1.2,0.1,2.3,0.1,3.5
	C43.4,103.3,43,104.5,43.2,105.8C43.1,105.8,43.1,105.8,43.2,105.8C43.1,105.9,43.2,105.8,43.2,105.8z"/>
<path class="st2" d="M126.3,131.5c0.3-0.1,0.7-0.1,1-0.2c0.6-0.2,0.6-0.2,0.7-0.9c0-0.3,0.1-0.6,0.2-0.8c0.3-0.9,0.6-1.8,0.9-2.7
	c0.6-1.8,1.2-3.7,1.5-5.6c0.1-0.4,0.2-0.8,0.2-1.1c0-0.3,0-0.3-0.3-0.3c-0.3,0.1-0.7,0.1-1,0.2c-1.5,0.5-3,1-4.5,1.5
	c-0.3,0.1-0.5,0.3-0.7,0.4s-0.4,0.1-0.5,0c-0.1-0.2-0.1-0.3,0-0.5c0.3-0.4,0.6-0.7,1.1-0.9c1.5-0.5,3-0.8,4.5-1.4
	c1.1-0.5,2.3-0.8,3.5-1.2c0.7-0.2,1.4-0.5,2.1-0.6c0.8-0.2,1.6-0.5,2.4-0.7c0.2-0.1,0.4-0.1,0.6-0.1c0.2,0,0.4,0.1,0.4,0.4
	c0,0.2,0,0.4-0.2,0.5c-0.5,0.4-0.9,0.8-1.4,1.2h-0.2c0,0-0.1-0.2,0-0.2c0.1-0.2,0.2-0.5,0.3-0.7c-0.3-0.2-0.6,0.1-0.9,0.1
	c-1.1,0.4-2.1,0.8-3.1,1.1c-0.5,0.2-0.8,0.5-0.9,1c-0.2,0.8-0.4,1.7-0.6,2.5c-0.2,0.6-0.3,1.2-0.5,1.8c-0.3,0.9-0.7,1.8-0.9,2.8
	c-0.2,0.8-0.6,1.6-0.7,2.4c0,0.2,0,0.4,0,0.6c0,0.1-0.2,0.3,0,0.4c0.1,0,0.3,0,0.4,0c1.2-0.5,2.5-0.7,3.5-1.5c0.1,0,0.2-0.1,0.2-0.1
	c0.2,0,0.3,0,0.4,0.1c0.1,0.1,0,0.3-0.1,0.4c-0.7,0.6-1.6,1-2.4,1.4c-1.2,0.6-2.6,0.9-3.9,1.3c-0.7,0.2-1.3,0.4-2,0.5
	c-0.3,0-0.5,0.1-0.7,0.3s-0.4,0.1-0.5-0.2s0-0.6,0.3-0.8c0.5-0.2,1-0.4,1.6-0.5C126.1,131.4,126.2,131.5,126.3,131.5L126.3,131.5z"
	/>
<path class="st2" d="M133.9,192.4c-0.6,0.2-1.3,0.3-1.9,0.5c-0.1,0-0.2,0.1-0.3,0.1c-0.2,0-0.5-0.1-0.5-0.3c0-0.1,0.1-0.3,0.2-0.4
	c0.8-0.4,1.7-0.7,2.5-0.8c0.1,0,0.3,0,0.4,0c0.5-0.1,1-0.3,1.1-1c0.2-1.4,0.9-2.6,1.3-3.9c0.2-0.6,0.4-1.2,0.6-1.8
	c0.2-0.4,0.4-0.7,0.6-1.1c0.5-1.1,1.3-2,2.1-2.9c0.2-0.2,0.5-0.3,0.7-0.4c0.5-0.1,0.8,0.1,1,0.5c0.1,0.3,0.2,0.6,0.2,0.9
	c0.2,1.3-0.2,2.6-0.8,3.8c-0.2,0.4-0.5,0.9-0.8,1.3c-0.1,0.1-0.2,0.1-0.2,0c-0.1-0.3-0.2-0.5,0-0.9c0.3-0.5,0.5-1,0.7-1.5
	c0.4-0.9,0.4-1.9,0.2-2.9c0-0.2-0.2-0.2-0.3-0.1c-0.7,0.4-1.2,1-1.6,1.7c-0.5,1-1,2.1-1.5,3.2c0,0,0,0,0,0.1
	c-0.3,1.5-0.9,2.8-1.4,4.2c-0.1,0.2,0,0.3,0.2,0.2c0.4-0.2,0.9-0.4,1.3-0.6c0.2-0.1,0.5-0.3,0.7-0.1s0.1,0.5,0,0.8
	c-0.1,0.2-0.2,0.4-0.4,0.5c-0.5,0.4-0.9,0.9-1.3,1.4c-0.2,0.2-0.3,0.5-0.1,0.8s0.6,0.4,0.9,0.2c0.2-0.1,0.3-0.2,0.5-0.3
	c0.4-0.3,0.6-0.8,0.8-1.2c0.1-0.2,0.1-0.4-0.1-0.6c-0.1-0.1-0.1-0.3-0.2-0.5c0-0.1,0-0.2,0.1-0.2c0.1-0.2,0.7-0.2,1-0.1
	c0.2,0.1,0.3,0.3,0.3,0.6c-0.2,1.1-0.6,2.2-1.6,2.9c-0.5,0.3-1.1,0.5-1.7,0.3c-0.8-0.2-1.2-1-0.9-1.8c0.1-0.3,0.3-0.6,0.4-0.9V192
	c0,0-0.1,0-0.2,0c-0.1,0.1-0.2,0.2-0.3,0.3c-0.1,0.3-0.2,0.7-0.4,1c-0.4,0.9-0.8,1.8-1.3,2.7c-0.1,0.2-0.4,0.2-0.6,0.1
	c-0.2-0.1-0.2-0.3-0.1-0.5c0.5-0.6,0.7-1.3,1.1-2c0.1-0.3,0.2-0.6,0.3-0.9c0.1-0.2,0-0.3-0.3-0.3
	C134.3,192.3,134.1,192.4,133.9,192.4L133.9,192.4z"/>
<path class="st2" d="M68.4,215.7c0.2,0,0.5,0,0.7-0.1c0.7-0.3,1.4-0.6,2.1-0.8s1.5-0.4,2.3-0.6c0.1,0,0.2,0.1,0.3,0.1
	c0,0.1-0.1,0.1-0.1,0.2c-0.6,0.3-1.3,0.6-1.9,0.9c-1.1,0.6-2.3,0.8-3.4,1.4c-0.4,0.2-0.8,0.4-1.1,0.5c-0.1,0-0.2,0.1-0.2,0.1
	c-0.4,0.5-0.8,0.9-1.1,1.5c-0.6,1.1-1.5,2-2.4,2.7c-0.4,0.3-0.8,0.2-0.9-0.3c-0.1-0.2-0.1-0.5,0-0.6c0.4-0.8,0.9-1.7,1.7-2.2
	c0.3-0.2,0.6-0.2,0.8-0.4c0.1-0.1,0.3-0.1,0.4-0.2c0.1-0.1,0.1-0.2,0.1-0.3s-0.2-0.1-0.3-0.1c-0.2,0-0.5,0-0.7-0.1
	c-1.1-0.4-1.6-1.7-1.1-2.8c0.8-1.6,1.8-3,2.9-4.3c0.7-0.8,1.5-1.5,2.3-2.2c0.4-0.4,0.9-0.6,1.4-0.7c0.9-0.1,1.4,0.5,1.3,1.4
	c-0.1,0.4-0.2,0.9-0.3,1.3c-0.2,0.7-0.4,1.3-0.7,2c-0.2,0.6-0.5,1.1-0.9,1.6c-0.3,0.4-0.6,0.8-0.8,1.3
	C68.8,215.3,68.6,215.5,68.4,215.7c0,0.1-0.1,0.2-0.1,0.3l0,0l0,0C68.3,215.9,68.3,215.8,68.4,215.7z M70.7,208.9
	c-0.1-0.7-0.2-0.8-0.6-0.6c-0.2,0.1-0.5,0.2-0.7,0.3c-1.2,1-2.4,1.9-3.2,3.2c0,0.1-0.1,0.2-0.1,0.2c-1,0.8-1.3,2-1.8,3.2
	c-0.2,0.6,0.2,1.2,0.8,1.3c0.5,0.1,0.9-0.1,1.3-0.2c0.2-0.1,0.4-0.2,0.5-0.4c0.3-0.5,0.7-0.9,1-1.4s0.7-0.9,0.9-1.4
	c0.3-0.4,0.5-0.9,0.8-1.4c0.4-0.7,0.7-1.4,0.9-2.2C70.7,209.4,70.7,209.1,70.7,208.9z"/>
<path class="st2" d="M115.8,192.7c0-0.1,0-0.2,0-0.3c0.2-0.5,0.4-1,0.6-1.5c0.3-0.5,0.7-0.9,1.1-1.3c0.4-0.3,0.8-0.5,1.3-0.3
	c0.1,0,0.3,0,0.4,0s0.1-0.2,0.2-0.2c-0.1-0.1-0.2-0.1-0.3-0.2c-0.2-0.1-0.5,0-0.7-0.1c-0.4-0.2-0.7-0.5-0.9-1
	c-0.3-1.2-0.2-2.3,0.4-3.3c0.8-1.3,1.7-2.5,2.9-3.4c0.7-0.6,1.4-1.3,2.2-1.7c0.4-0.2,0.7-0.3,1.1-0.2c0.5,0.1,0.7,0.3,0.8,0.8
	c0.1,0.6-0.2,1-0.3,1.5c-0.7,1.7-1.5,3.3-2.5,4.9c-0.1,0.2-0.2,0.4-0.3,0.7c-0.1,0.1-0.1,0.2-0.1,0.4c0.1,0,0.2-0.1,0.4-0.1
	c1-0.4,2-0.9,3.1-1.1c0.2,0,0.3-0.1,0.5-0.1c0.1,0,0.2,0.1,0.3,0.1c-0.1,0.1-0.1,0.2-0.2,0.2c-0.6,0.3-1.3,0.6-1.8,1
	c-0.2,0.1-0.4,0.3-0.7,0.3c-0.8,0.2-1.6,0.6-2.3,0.9c-0.2,0.1-0.3,0.2-0.4,0.4c-0.7,1.2-1.7,2.2-2.5,3.2c-0.3,0.4-0.8,0.8-1.2,1.1
	C116.2,193.7,115.9,193.5,115.8,192.7z M118.8,190c-0.2,0-0.3,0-0.5,0.1c-0.5,0.4-0.9,0.9-1.1,1.5l0,0l0,0l0,0
	C117.7,191.1,118.3,190.5,118.8,190C118.8,189.9,118.7,189.9,118.8,190C118.7,189.9,118.8,189.9,118.8,190
	C118.8,189.9,118.8,189.9,118.8,190z M119.8,188c0.1-0.1,0.5-0.1,0.6-0.3c0.5-0.9,1.3-1.7,1.7-2.7c0.2-0.5,0.5-0.9,0.7-1.3
	c0.2-0.4,0.4-0.8,0.6-1.2s0.4-0.9,0.5-1.3c0.1-0.4,0.2-0.8,0.3-1.1c0-0.3-0.2-0.5-0.5-0.4s-0.6,0.2-0.9,0.4c-1,0.8-2,1.7-2.8,2.7
	c-0.4,0.6-0.9,1.2-1.2,1.8c-0.4,0.8-0.8,1.6-0.5,2.6C118.6,187.8,119,188.1,119.8,188z"/>
<path class="st2" d="M142.4,143.2c-0.5,0.1-1,0.2-1.6,0.2c-0.4,0-0.8-0.1-1.1-0.3c-0.5-0.2-0.8-0.7-0.8-1.3c0-0.8,0.1-1.5,0.6-2.1
	c0.3-0.3,0.4-0.7,0.7-1c0.3-0.4,0.6-0.9,1-1.3c0.7-0.6,1.2-1.4,2-1.9c0.4-0.3,0.8-0.6,1.2-0.8c0.3-0.2,0.6-0.3,1-0.2
	s0.7,0.4,0.7,0.8c0,0.5,0,1.1-0.1,1.6c-0.3,1.3-0.7,2.6-1.2,3.9c-0.1,0.2-0.1,0.3-0.1,0.5c-0.1,0.2,0,0.3,0.2,0.3
	c0.1,0,0.2,0.1,0.3,0.2c0.1,0.2,0,0.4-0.2,0.5c-0.1,0-0.2,0-0.3,0c-0.3,0.1-0.5,0.3-0.7,0.6c-0.2,0.5-0.4,1-0.7,1.5
	c-0.6,1.5-1.5,2.9-2.3,4.3c-0.2,0.4-0.5,0.8-0.8,1.2c-0.4,0.7-0.8,1.3-1.3,2c-0.2,0.3-0.4,0.5-0.7,0.7c-0.5,0.4-1,0.2-1.1-0.4
	c-0.1-0.6,0.1-1.1,0.3-1.6c0.6-1.3,1.5-2.2,2.6-3c0.1-0.1,0.3-0.2,0.4-0.1c0.4,0.2,0.6-0.1,0.7-0.4c0.5-1,1.1-2,1.6-3
	c0.1-0.1,0.1-0.2,0.1-0.3C143.1,143.1,143.1,143.1,142.4,143.2z M141.6,142.6c0.3-0.1,0.6-0.1,0.8-0.2c0.8-0.1,1.4-0.6,1.6-1.4
	c0.4-1.3,0.8-2.7,1.2-4c0.1-0.4,0.1-0.8,0.1-1.2c0-0.7-0.4-0.9-1-0.5c-0.1,0-0.1,0.1-0.2,0.2c-1.4,1.2-2.8,2.6-3.8,4.2
	c-0.3,0.5-0.6,1-0.6,1.6c0,0.5,0.1,0.8,0.5,1C140.7,142.6,141.2,142.6,141.6,142.6z M140,148.7c-0.1,0-0.2,0-0.2,0
	c-0.3,0.3-0.6,0.6-0.8,1s-0.7,0.8-0.6,1.4c0.3-0.4,0.7-0.7,1-1.1c0.2-0.3,0.4-0.7,0.6-1C140,148.9,140,148.8,140,148.7z"/>
<path class="st2" d="M126.7,147c-0.1,0.2-0.2,0.4-0.3,0.7c-0.2,0.5-0.5,1.1-0.7,1.6c-0.2,0.4-0.5,0.8-0.7,1.2
	c-0.9,1.7-1.8,3.4-2.7,5.1c-0.3,0.6-0.7,1.2-1,1.8c-0.7,1.3-1.3,2.5-2,3.8c-0.7,1.4-1.5,2.7-2.2,4.1c-0.1,0.2-0.3,0.4-0.5,0.7
	c-0.1,0.2,0,0.4-0.3,0.4c-0.1,0-0.1-0.3-0.1-0.5c0-0.1,0-0.2,0.1-0.3c0.5-1.2,1-2.3,1.7-3.5c0.5-0.9,1-1.9,1.5-2.9
	c0.6-1.1,1.2-2.3,1.8-3.4c0.1-0.3,0.3-0.6,0.4-0.8c0.1-0.1,0.1-0.3,0.2-0.4c0.4-0.8,0.9-1.5,1.3-2.3c0-0.1,0.1-0.1,0.1-0.2
	c-0.1,0-0.2,0-0.2,0.1c-0.4,0.1-0.7,0.2-1.1,0.4c-0.7,0.2-1,0.1-1.2-0.6c0-0.1,0-0.2-0.1-0.2s-0.2-0.1-0.3,0c-0.3,0.6-0.9,1-0.9,1.7
	c0,0.2-0.2,0.3-0.3,0.5c-0.1,0.2-0.3,0.3-0.5,0.2c-0.3-0.1-0.3-0.3-0.4-0.5c0-0.1,0-0.1,0-0.2c0.1-0.8,0.3-1.6,0.4-2.4
	c0-0.1,0-0.1,0.1-0.2c0.2-0.5,0.4-0.6,0.8-0.4c0.3,0.1,0.4,0.1,0.6-0.1c0.3-0.3,0.6-0.6,1-0.9c0.3-0.3,0.7-0.2,0.8,0.2
	c0.1,0.2,0,0.4,0,0.7c0,0.1-0.1,0.3-0.1,0.4c0,0.2,0,0.5,0.1,0.6c0.2,0.2,0.4-0.1,0.6-0.1c0.3-0.1,0.6-0.3,0.8-0.6
	c0.2-0.2,0.3-0.5,0.7-0.3c0,0,0.2-0.1,0.2-0.2c0.4-0.6,0.7-1.3,1-2c0.2-0.6,0.4-1.1,0.8-1.5c0.1-0.1,0.2-0.3,0.5-0.2
	C126.6,146.6,126.7,146.7,126.7,147z"/>
<path class="st2" d="M72.3,196.5c-0.3-0.1-0.5,0.1-0.7,0.3c-1.3,1.1-2.3,2.3-2.9,3.8c-0.1,0.3-0.4,0.7-0.6,1
	c-0.1,0.2-0.3,0.4-0.6,0.3c-0.3-0.1-0.3-0.3-0.4-0.6c0-0.8-0.1-1.6-0.2-2.4c-0.1-0.5-0.2-1-0.2-1.5c0-0.2,0-0.3,0.1-0.5
	s0.3-0.3,0.5-0.3c0.3,0,0.4,0.2,0.4,0.4c0.1,0.7,0.2,1.3,0.3,2c0,0.1,0.1,0.2,0.1,0.2c0.1,0,0.2,0,0.2-0.1c0.4-0.5,0.8-1,1.2-1.5
	c0.8-0.9,1.7-1.7,2.8-2.3c0.3-0.2,0.7-0.3,1.1-0.2c0.3,0.1,0.5,0,0.8-0.2c0.2-0.1,0.3-0.3,0.5-0.4c0.3-0.2,0.6-0.2,0.8,0
	c0.2,0.2,0.3,0.5,0.2,0.8c-0.2,0.4-0.4,0.9-0.6,1.3c-0.4,0.7-1.1,1.1-1.9,1.5c-0.6,0.3-0.8,1-0.5,1.6c0.3,0.5,0.9,0.8,1.5,0.6
	c0.4-0.1,0.8-0.2,1.2-0.4c0.9-0.5,1.9-0.8,2.8-1.2c0.4-0.2,0.6-0.1,0.6,0.1c0,0.3-0.3,0.3-0.5,0.4c-0.9,0.5-1.7,1-2.6,1.5
	c-0.4,0.2-0.9,0.5-1.4,0.6c-1.8,0.5-3.2-1.1-2.9-2.6c0.1-0.5,0.2-1,0.5-1.4C72.2,197,72.2,196.7,72.3,196.5c0,0,0.1,0,0.1-0.1
	s0-0.1,0-0.2l-0.1,0.1C72.3,196.4,72.3,196.4,72.3,196.5z"/>
<path class="st1" d="M137.8,241c0.3-0.3,0.5-0.6,0.8-1c0.2-0.3,0.4-0.6,0.7-0.8c0.2-0.1,0.5-0.3,0.7-0.5c0.5-0.6,1.3-0.8,2-1.1
	c0.2-0.1,0.5,0,0.5,0.3c0,0.5,0,1-0.1,1.5c-0.2,1.1-0.7,2.2-1.1,3.2c-0.1,0.3-0.3,0.6-0.2,0.9c0,0.1,0,0.1,0,0.2
	c0,0.3-0.4,0.6-0.5,0.6c-0.2,0-0.4-0.4-0.3-0.6c0-0.2,0.1-0.3,0.1-0.5c0.3-0.7,0.6-1.4,0.8-2.1s0.4-1.4,0.5-2.1
	c0-0.2-0.1-0.3-0.3-0.2c-0.8,0.3-1.5,0.9-2,1.5s-1,1.3-1.3,2.1c-0.4,0.8-0.9,1.5-1.3,2.3c-0.2,0.3-0.5,0.2-0.6-0.1s-0.1-0.6,0.1-0.8
	c0.6-1,0.7-2.1,1-3.2c0-0.1,0-0.2-0.1-0.2H137c-0.3,0.3-0.7,0.5-1,0.8c-1,1-1.8,2.2-2.4,3.4c-0.2,0.3-0.4,0.6-0.6,0.8
	c0,0.1-0.2,0.1-0.3,0c-0.3-0.1-0.4-0.5-0.3-0.8c0-0.1,0.1-0.2,0.2-0.3c0.5-0.8,0.7-1.8,0.9-2.7c0.1-0.6,0.3-1.1,0.5-1.6
	c0.1-0.1,0.2-0.3,0.4-0.3c0.3-0.1,0.4,0.1,0.4,0.3c-0.1,0.6-0.3,1.2-0.4,1.8c0,0.1,0,0.1,0,0.2c0.1,0,0.1,0,0.2-0.1
	c0.2-0.3,0.5-0.5,0.7-0.8c0.4-0.7,1.2-1.2,1.9-1.6c0.1,0,0.1-0.1,0.2-0.1c0.8-0.2,1-0.1,1,0.7C137.9,240.4,137.9,240.7,137.8,241
	L137.8,241L137.8,241z"/>
<path class="st1" d="M105.6,246.3c0.1,0.5-0.1,1,0.1,1.6c0,0.1,0,0.3,0,0.4c-0.2,0.5-0.5,0.9-0.7,1.4c-0.1,0.2-0.2,0.3-0.4,0.3
	c-0.3,0-0.5-0.2-0.5-0.4c0-0.3,0-0.6,0.1-0.8c0.3-0.6,0.3-1.4,0.5-2c0-0.1,0-0.2-0.1-0.2c0,0-0.1,0-0.2,0.1
	c-0.5,0.4-1.1,0.8-1.4,1.4c-0.1,0.3-0.4,0.6-0.6,0.9c-0.4,0.6-0.7,1.1-1.1,1.7c-0.2,0.4-0.6,0.3-0.7-0.1c-0.1-0.2-0.1-0.5-0.1-0.7
	c0.2-0.9,0.4-1.7,0.7-2.5c0.2-0.8,0.5-1.5,0.7-2.3c0.3-0.9,0.5-1.8,0.7-2.8c0.1-0.8,0.3-1.5,0.4-2.3c0.2-1.2,0.5-2.3,0.8-3.5
	c0-0.1,0-0.3,0.1-0.4c0.1-0.2,0.3-0.2,0.5-0.2c0.1,0,0.3,0.2,0.3,0.3c0.1,0.2,0,0.4,0,0.5c-0.1,0.3-0.2,0.5-0.2,0.8
	c-0.1,0.8-0.3,1.6-0.4,2.4c0,0.1,0,0.3-0.1,0.4c-0.4,0.8-0.3,1.7-0.6,2.5c-0.1,0.3-0.2,0.7-0.3,1c-0.2,0.9-0.5,1.7-0.7,2.6
	c-0.1,0.3-0.2,0.7-0.3,1c0,0.1,0,0.1,0,0.2c0.1,0,0.2,0,0.2-0.1c0.1-0.2,0.3-0.4,0.4-0.6c0.5-0.8,1.2-1.3,2.1-1.7
	c0.5-0.2,0.7-0.1,0.8,0.5C105.6,245.8,105.6,246,105.6,246.3z"/>
<path class="st1" d="M87.5,250.8c0.5-0.8,1.1-1.6,2-2.1c0.1,0,0.2-0.1,0.3-0.1c0.4-0.1,0.7,0,0.7,0.5c0,0.3,0,0.7-0.1,1
	c-0.1,0.4-0.2,0.8-0.3,1.2c-0.1,0.4-0.2,0.7,0,1c0.1,0.2,0.1,0.5-0.1,0.6c-0.2,0.2-0.4,0.1-0.7,0c-0.2-0.1-0.4-0.2-0.4-0.5
	c0.1-0.5,0.2-1.1,0.3-1.6c0-0.2,0.1-0.4,0.2-0.6c0-0.1,0-0.2,0-0.3c-0.1,0-0.2,0.1-0.2,0.1c-0.7,0.8-1.3,1.5-2,2.3
	c-0.1,0.1-0.2,0.3-0.3,0.4c-0.2,0.2-0.3,0.2-0.6,0c-0.1-0.1-0.2-0.1-0.2-0.2c-0.1-0.1-0.2-0.1-0.3,0c-0.5,0.5-1,0.3-1.2-0.4
	c-0.1-0.2-0.1-0.4-0.2-0.6c-0.1-0.1-0.2-0.1-0.2,0c-0.3,0.4-0.8,0.7-1.1,1.2c-0.1,0.2-0.5,0.4-0.7,0.5c-0.3,0.2-0.9-0.1-1.1-0.5
	c-0.1-0.3-0.1-0.6,0.1-0.9c0.4-0.7,0.8-1.4,1.3-2s1-1,1.9-1c0.1,0,0.3,0,0.4,0.1c0.2,0.1,0.2,0.2,0.1,0.4s-0.2,0.2,0.1,0.3
	c0.1,0.1,0.2,0.3,0.3,0.4c0.1,0.4,0.1,0.7,0.1,1.1c0,0.1,0.2,0.2,0.3,0.1c0.1-0.1,0.3-0.3,0.4-0.5c0.3-0.5,0.5-0.9,0.8-1.4
	c0.1-0.2,0.5-0.4,0.7-0.3c0.1,0,0.2,0.2,0.2,0.3c-0.1,0.3-0.2,0.5-0.2,0.8C87.4,250.5,87.3,250.6,87.5,250.8L87.5,250.8z
	 M84.5,249.8c-0.1-0.1-0.1-0.2-0.2-0.2s-0.2,0-0.3,0.1c-0.8,0.6-1.3,1.4-1.8,2.3c0,0,0,0,0,0.1v0.1h0.1c0.4-0.3,0.8-0.7,1.1-1.1
	c0.3-0.3,0.6-0.7,0.8-1.1C84.4,249.9,84.4,249.9,84.5,249.8z"/>
<path class="st0" d="M151.4,211.6c0.1,0,0.3,0,0.4-0.1c0.3-0.3,0.8-0.3,1.2-0.5c0.5-0.2,0.9,0,1.3,0.4c0.1,0.1,0.1,0.2,0.2,0.3h0.2
	c0.3-0.3,0.6-0.5,0.8-0.9c0.3-1,0.7-2.1,1.1-3.1c0.3-0.7,0.3-1.5,0.5-2.2c0.2-0.8,0.4-1.6,0.6-2.4c0-0.2,0.5-0.5,0.7-0.4
	c0.1,0,0.2,0.2,0.2,0.2c-0.1,0.5-0.2,0.9-0.3,1.4c-0.4,1.8-0.8,3.6-1.5,5.3c-0.3,0.7-0.5,1.5-0.8,2.2c-0.1,0.3-0.1,0.5-0.2,0.8
	c-0.1,0.2-0.1,0.4-0.3,0.6c-0.3,0.4-0.5,0.4-0.8,0c-0.1-0.1-0.1-0.2-0.1-0.2c-0.6,0-0.7-0.5-0.9-0.9c-0.3-0.6-0.4-0.7-1-0.4
	c-0.4,0.1-0.7,0.4-1,0.7c-0.2,0.1-0.3,0.3-0.5,0.4c-0.4,0.3-0.8,0.2-0.9-0.3c-0.1-0.3-0.1-0.6,0.1-0.9c0.3-0.4,0.5-0.8,0.8-1.2
	c0.1-0.2,0-0.4-0.2-0.3c-0.7,0.1-1.3,0.4-1.8,0.8c-0.7,0.7-1.2,1.5-1.6,2.4c-0.1,0.3-0.4,0.6-0.6,0.8c-0.1,0.1-0.3,0.1-0.5,0.1
	s-0.4-0.2-0.3-0.4c0.1-0.3,0.2-0.6,0.3-0.9c0.3-0.6,0.7-1.1,0.8-1.8c0-0.3,0.3-0.4,0.5-0.4c0.4,0,0.6-0.2,0.9-0.4
	c0.9-0.7,1.9-1.1,3-0.8c0.2,0.1,0.4,0,0.7-0.1c0.2,0,0.3-0.1,0.5-0.2c0.3-0.1,0.7-0.1,0.7,0.1c0,0.2-0.1,0.5-0.2,0.7
	c-0.1,0.1-0.3,0.2-0.4,0.3C152.2,210.7,151.7,211,151.4,211.6L151.4,211.6L151.4,211.6z"/>
<path class="st2" d="M48.7,158.5c0.2-0.3,0.4-0.5,0.6-0.8c0.1-0.2,0.3-0.3,0.5-0.4c0.9-0.5,1.2-0.4,1.5,0.6c0,0.2,0,0.3,0.1,0.5
	c0,0.1,0,0.2,0.1,0.2c0.1-0.1,0.1-0.1,0.2-0.2c0.5-0.8,1.2-1.3,1.9-1.8c0.1-0.1,0.2-0.1,0.3-0.1c0.4-0.1,0.7,0.1,0.8,0.5
	c0,0.2,0,0.3,0,0.5c-0.1,0.8-0.2,1.6-0.3,2.3c-0.1,0.5-0.3,1,0,1.5c0.1,0.1,0,0.3-0.1,0.5s-0.2,0.3-0.4,0.4
	c-0.1,0.1-0.2,0.3-0.4,0.2s-0.4-0.2-0.4-0.4c0-0.3,0-0.6,0.1-0.8c0.4-1.1,0.5-2.2,0.6-3.3c0-0.2-0.1-0.3-0.2-0.2
	c-0.5,0.2-0.8,0.6-1.1,1c-0.3,0.5-0.5,1.1-0.7,1.7c-0.2,0.8-0.4,1.6-1,2.3c-0.1,0.1-0.2,0.2-0.3,0.2s-0.3-0.2-0.4-0.3
	c-0.1-0.2-0.1-0.4,0-0.6c0.1-0.4,0.2-0.8,0.3-1.1c0.1-0.8,0.2-1.6,0.2-2.4c0-0.4-0.2-0.5-0.6-0.3c-0.1,0.1-0.3,0.1-0.3,0.2
	c-0.4,0.6-0.8,1.1-1.1,1.7c-0.3,0.5-0.4,1-0.4,1.5c0,0.6-0.1,1.2-0.3,1.7c-0.1,0.3-0.4,0.6-0.6,0.8c0,0-0.2,0-0.3-0.1
	c-0.2-0.2-0.3-0.4-0.2-0.7c0.2-1.1,0.3-2.3,0.6-3.4c0.2-0.9,0.2-1.8,0.4-2.7c0-0.2,0.1-0.4,0.2-0.5c0.1-0.1,0.3-0.2,0.5-0.2
	c0.1,0,0.2,0.2,0.3,0.4c0.1,0.3,0.1,0.6,0.1,0.8C48.6,158.1,48.7,158.3,48.7,158.5C48.7,158.5,48.7,158.4,48.7,158.5L48.7,158.5z"/>
<path class="st2" d="M84.5,119.5c0.3,0.9,0.2,1.8,0.1,2.7c0,0.4,0,0.8,0,1.2c0,0.3-0.1,0.7-0.1,1c0,0.1-0.1,0.3,0,0.4
	c0.2,1,0,2-0.1,2.9c0,0.5-0.1,1.1,0,1.6c0.1,1.5,0.1,3.1,0,4.6c0,0.7,0,1.4-0.1,2.1c-0.2,1-0.3,2.1-0.8,3.1c-0.2,0.5-0.6,0.9-1,1.3
	c-0.3,0.3-0.6,0.5-1.1,0.4c-1-0.1-2-0.1-2.7-0.9c-0.4-0.4-0.7-0.9-0.6-1.6c0-0.2,0.1-0.4,0.4-0.4c0.2,0,0.3,0,0.4,0.2
	c0,0.1,0,0.1,0,0.2c0,0.6,0.2,1.1,0.7,1.4c0.6,0.3,1.3,0.4,1.9,0.2c0.1,0,0.2-0.2,0.3-0.2c0.6-0.5,0.9-1.2,1.1-1.9
	c0.2-1.1,0.5-2.2,0.5-3.3s0.1-2.1,0.1-3.2c0.1-2.3,0.1-4.6,0.2-7c0.1-1.4,0.1-2.9-0.1-4.3c0-0.3,0-0.6,0-0.8c0-0.3,0.2-0.4,0.4-0.5
	c0.3-0.1,0.5,0,0.5,0.4C84.6,119.3,84.6,119.4,84.5,119.5z"/>
<path class="st1" d="M132.3,239.9c0,0.1-0.1,0.2-0.1,0.2c-0.7,0.6-0.9,1.5-1.5,2.2l-0.1,0.1c0.4,0.5-0.1,0.7-0.3,1
	c-0.2,0.4-0.4,0.8-0.6,1.1c-0.3,0.5-0.7,1-1.1,1.5c-0.2,0.2-0.4,0.4-0.5,0.6c-0.6,1.3-1.4,2.4-1.9,3.7c-0.3,0.7-0.8,1.4-1.1,2.1
	c-0.2,0.3-0.3,0.7-0.4,1c-0.2,0.4-0.4,0.8-0.6,1.2c-0.2,0.5-0.5,1-0.7,1.5c-0.4,0.8-1,1.4-1.6,2c-0.1,0.1-0.1,0.1-0.2,0.1
	s-0.2,0-0.4,0c0-0.1,0-0.2,0.1-0.3c0.2-0.3,0.4-0.6,0.6-0.9c0.3-0.5,0.6-0.9,0.8-1.4c0.4-0.8,0.7-1.6,1.1-2.4
	c0.1-0.2,0.2-0.4,0.3-0.6c0.2-0.4,0.4-0.9,0.6-1.3c0.2-0.4,0.4-0.7,0.6-1.1c0.4-0.8,0.8-1.6,1.2-2.4c0.3-0.5,0.6-1,0.8-1.6
	c0.2-0.5,0.5-1,0.7-1.5c-0.3-0.4-0.6-0.8-0.8-1.3c-0.1-0.2-0.3-0.4-0.4-0.6c-0.1-0.3,0-0.5,0.2-0.6s0.4,0,0.5,0.2
	c0.2,0.3,0.3,0.5,0.5,0.8c0.1,0.1,0.2,0.3,0.2,0.4c0.2,0.3,0.4,0.3,0.5,0c0.4-0.6,0.7-1.3,1.1-1.9c0.4-0.6,0.8-1.2,1.3-1.8
	c0.2-0.3,0.5-0.5,0.9-0.4C132.2,239.8,132.2,239.8,132.3,239.9z"/>
<path class="st2" d="M55.5,201.5c0.3-0.2,0.6-0.4,1-0.5c0.1-0.1,0.3-0.1,0.5-0.1c0.3,0.1,0.4,0.4,0.1,0.6c-0.7,0.6-1.6,1-2.5,1.2
	c-0.6,0.2-1.2,0.3-1.8,0.5c-0.4,0.1-0.7,0.4-1,0.5c-0.1,0.1-0.4,0.1-0.4,0c-0.1-0.1-0.3-0.3-0.2-0.5c0-0.1,0-0.2,0.1-0.3
	c0.3-0.4,0.7-0.7,1.2-0.8c0.4-0.1,0.9-0.2,1.3-0.4c0.1,0,0.2-0.1,0.2-0.2c0.6-1.5,1-3.1,1.2-4.7c0-0.3,0.1-0.6,0.2-0.9
	c0-0.2,0.1-0.5,0.2-0.7c-0.3,0.1-0.5,0.1-0.8,0.2c-0.5,0.2-1.1,0.4-1.6,0.7c-0.3,0.1-0.6,0.4-0.9,0.5c-0.2,0.1-0.5,0.2-0.8,0.3
	c-0.2,0.1-0.4,0-0.5-0.2s0-0.3,0.1-0.4c0.3-0.3,0.5-0.4,0.9-0.6c1.1-0.6,2.3-0.9,3.4-1.5c0.4-0.2,0.9-0.4,1.3-0.4
	c0.6-0.1,1.2-0.3,1.8-0.5c0.4-0.1,0.9-0.2,1.3-0.3c0.3-0.1,0.6,0,0.9,0.2c0.1,0.1,0.4,0.2,0.3,0.4c-0.1,0.2-0.3,0.4-0.5,0.4
	c-0.8-0.2-1.6,0.1-2.3,0.4c-0.4,0.2-0.8,0.3-1.3,0.4c-0.3,0.1-0.4,0.3-0.4,0.5c-0.1,0.5-0.3,1.1-0.3,1.6c-0.1,1.5-0.5,2.9-0.8,4.3
	C55.2,201.5,55.2,201.5,55.5,201.5z"/>
<path class="st2" d="M66.1,135c0-0.4,0-0.9,0-1.3c0,0,0-0.1-0.1-0.1l-0.1,0.1c-0.1,0.1-0.1,0.2-0.2,0.3c-0.2,0.8-0.4,1.6-0.6,2.3
	c-0.1,0.5-0.3,0.9-0.7,1.3c-0.1,0.2-0.3,0.1-0.4,0c-0.2-0.2-0.3-0.3-0.2-0.6c0-0.9,0-1.8,0-2.7c0-0.1-0.1-0.1-0.1-0.2
	c0,0-0.1,0-0.1,0.1c-0.1,0.2-0.3,0.5-0.4,0.7c-0.4,0.9-0.6,1.8-0.9,2.8c-0.1,0.3-0.2,0.6-0.4,0.8s-0.4,0.2-0.6,0.1
	c-0.1-0.1-0.2-0.3-0.2-0.4c0-0.1,0-0.3,0-0.4c0.1-0.7,0.3-1.3,0.4-2c0.1-0.6,0.2-1.2,0.3-1.7c0-0.2,0-0.4,0.1-0.7
	c0-0.2,0.1-0.4,0.4-0.4c0.2,0,0.3,0.2,0.4,0.3c0.1,0,0.1,0.2,0.1,0.2c0,0.1,0.1,0.1,0.1,0.2c0.1,0,0.2-0.1,0.2-0.1
	c0.2-0.4,0.4-0.7,0.6-1.1c0.1-0.2,0.3-0.4,0.6-0.4c0.3,0,0.5,0.3,0.5,0.6c0.1,0.3,0.1,0.5,0.2,0.8c0.4-0.1,0.3-0.5,0.4-0.7
	c0.3-0.6,0.6-1.1,0.9-1.7c0.1-0.2,0.2-0.3,0.4-0.3c0.5-0.1,0.7,0,0.7,0.5s0,1.1-0.1,1.6c-0.1,0.9-0.1,1.8,0.1,2.7
	c0.1,0.3-0.1,0.5-0.2,0.8c0,0-0.1,0.1-0.2,0.1c-0.4,0-0.7-0.3-0.8-0.7C66.1,135.5,66.1,135.3,66.1,135L66.1,135z"/>
<path class="st2" d="M78.1,180.1c-0.2-1.2,0.4-2.2,0.7-3.2c0-0.1,0.2-0.3,0.3-0.3c0.1-0.1,0.3-0.1,0.5-0.1c0.1,0.1,0.1,0.3,0.1,0.4
	c0,0.2-0.1,0.4-0.1,0.6c0,0.1,0,0.3,0,0.5c0.1-0.1,0.2-0.2,0.3-0.4c0.4-0.9,1.1-1.4,1.8-2.1l0.1-0.1c0.2-0.1,0.5-0.3,0.8-0.1
	s0.4,0.5,0.3,0.8c-0.1,0.2-0.1,0.4-0.2,0.6c0,0.1,0,0.1,0,0.2c0.1,0,0.2-0.1,0.2-0.1c0.4-0.5,0.7-1,1.1-1.6c0.3-0.4,0.7-0.5,1.1-0.3
	c0.1,0,0.2,0.2,0.2,0.3c0,0.3,0,0.7-0.1,1c-0.2,0.8-0.4,1.6-0.7,2.3c-0.2,0.5-0.3,1,0,1.5c0,0.1-0.1,0.3-0.2,0.4
	c-0.3,0.2-0.9-0.1-0.9-0.5c0-0.7,0-1.5,0.3-2.1c0.1-0.2,0-0.4,0.1-0.6c-0.3,0-0.3,0.3-0.4,0.4c-0.4,0.6-0.8,1.3-1.2,1.9
	c-0.2,0.3-0.4,0.5-0.6,0.7c-0.1,0.2-0.4,0.2-0.5,0.1c-0.1-0.1-0.3-0.3-0.3-0.4c-0.1-0.5,0.1-1,0.3-1.5c0.2-0.5,0.4-1,0.5-1.6
	c0-0.1,0-0.1,0-0.2l-0.1,0.1c-0.5,0.7-1.1,1.3-1.5,2.1c-0.3,0.6-0.7,1.1-1.1,1.6c-0.1,0.2-0.2,0.3-0.5,0.3
	C78.1,180.6,78,180.4,78.1,180.1C78.1,180.3,78.1,180.2,78.1,180.1z"/>
<path class="st2" d="M146.5,173.2c-0.5,0-0.9-0.2-1.3-0.7c-0.3-0.3-0.3-0.3-0.6-0.1c-0.7,0.5-1.5,0.8-2.3,1.1
	c-0.4,0.1-0.7,0.1-1.1-0.1c-0.4-0.2-0.5-0.6-0.5-1.1c0-0.4,0.1-0.9,0.3-1.3c0.6-1.2,1.3-2.2,2.6-2.6c0.4-0.1,0.7-0.4,1-0.5
	c0.4-0.2,0.5-0.1,0.6,0.3c0.1,0.3,0.1,0.6-0.1,0.8c-0.3,0.3-0.6,0.7-0.9,1c-0.5,0.3-1.1,0.6-1.6,0.9c-0.2,0.1-0.4,0.2-0.6,0.3
	c-0.5,0.2-0.5,0.6-0.4,1.1c0.1,0.4,0.3,0.5,0.7,0.4c0.8-0.3,1.7-0.6,2.4-1.2c0.3-0.2,0.5-0.5,0.6-0.8c0.6-1.4,1.7-2.3,3-3
	c0.5-0.3,0.9-0.3,1.1,0c0.2,0.4,0,0.7-0.2,1c-0.4,0.5-0.9,1-1.5,1.3c-0.3,0.1-0.6,0.3-1,0.5c-0.5,0.3-0.6,0.8-0.6,1.3
	c0,0.4,0.3,0.6,0.7,0.5c0.5-0.2,1-0.4,1.5-0.6c0.5-0.2,1-0.5,1.5-0.6c0.1,0,0.2-0.1,0.3,0.1c0,0.1,0,0.2,0,0.3s-0.1,0.1-0.2,0.2
	c-0.1,0.1-0.3,0.1-0.4,0.2c-0.7,0.7-1.6,0.8-2.4,1.1C146.8,173.1,146.7,173.2,146.5,173.2z"/>
<path class="st0" d="M89.6,208.2c0,0.9,0,1.7-0.3,2.6c0,0.1-0.2,0.1-0.2,0.2c0,0-0.2-0.1-0.2-0.2c0-0.3-0.1-0.7-0.1-1
	c0.1-0.7-0.1-1.4-0.3-2.1c-0.2-0.5-0.6-0.6-1-0.4c-0.3,0.2-0.7,0.5-0.9,0.8c-0.2,0.3-0.4,0.5-0.7,0.7c-0.6,0.4-0.9,1.1-1.2,1.7
	c-0.5,1.1-1,2.2-1.5,3.3c-0.3,0.6-0.4,1.3-0.6,2c-0.2,0.8-0.3,1.7-0.4,2.5c-0.1,0.9,0.2,1.8,1,2.4c0.4,0.3,0.7,0.3,1,0
	c0.5-0.4,1.2-0.7,1.5-1.3c0.1-0.1,0.1-0.2,0.2-0.2c0.6-0.3,1.1-0.7,1.5-1.2c0.1-0.1,0.1-0.1,0.2-0.1s0.2,0.1,0.2,0.1
	c0,0.2-0.1,0.3-0.2,0.4c-0.4,0.5-0.7,0.9-1.1,1.3c-0.4,0.4-0.7,0.8-1.2,1.2c-0.4,0.3-0.9,0.6-1.4,0.9c-0.1,0.1-0.3,0.1-0.5,0
	c-0.6-0.2-1.3-0.4-1.7-1c-0.4-0.5-0.5-1.1-0.5-1.7c-0.1-1.5,0.2-3,0.7-4.4c0.4-1.1,0.6-2.3,1.2-3.3c0.4-0.8,0.9-1.6,1.3-2.3
	c0.2-0.4,0.6-0.7,0.9-1c0.5-0.4,0.9-0.9,1.4-1.3c0.2-0.2,0.5-0.3,0.7-0.4c0.7-0.2,1.3,0,1.6,0.7C89.5,207.4,89.5,207.8,89.6,208.2z"
	/>
<path class="st0" d="M139.9,211.9c-0.5,0.1-1,0.2-1.4,0.3c-0.2,0-0.3,0.1-0.5,0c-0.3,0-0.4-0.3-0.2-0.5c0.1-0.1,0.3-0.3,0.5-0.3
	c0.7-0.2,1.4-0.3,2.1-0.4c0.4-0.1,0.7-0.2,0.9-0.6c0.4-1.1,0.9-2.3,1.4-3.4c0.2-0.5,0.3-0.9,0.5-1.4c0.1-0.3,0.7-0.7,0.8-0.6
	c0.2,0.1,0.2,0.6,0.1,1c-0.2,0.4-0.4,0.8-0.5,1.1c-0.5,1.1-0.9,2.2-1.3,3.3c0,0,0,0.1,0,0.2c0.1,0,0.2,0,0.2,0
	c0.3-0.1,0.5-0.2,0.8-0.3c0.5-0.2,0.9,0.2,0.7,0.7c-0.1,0.5-0.3,1.1-0.5,1.6c-0.1,0.3-0.2,0.6-0.3,1c0,0,0,0.1,0.1,0.1h0.1
	c0.1,0,0.1-0.1,0.2-0.2c0.7-0.9,1.5-1.8,2-2.8c0-0.1,0.1-0.2,0.1-0.3c0.4-0.6,0.9-0.6,1.3,0c0,0.1,0,0.3,0,0.3c-1,0.4-1.2,1.4-1.8,2
	c-0.6,0.7-1.2,1.5-1.8,2.2c-0.1,0.1-0.2,0.2-0.3,0.3c-0.5,0.3-0.9,0.2-1-0.4c-0.1-0.5,0-1,0.2-1.5c0.2-0.6,0.4-1.2,0.6-1.7
	c0-0.1,0-0.2-0.1-0.2c-0.3-0.1-1.2,0.3-1.3,0.5c-0.3,0.8-0.7,1.5-0.9,2.3c-0.1,0.5-0.4,0.9-0.8,1.1c-0.2,0.1-0.4,0-0.4-0.2
	s0-0.5,0.1-0.6c0.1-0.4,0.3-0.7,0.5-1.1c0.2-0.4,0.4-0.7,0.6-1.1c0.1-0.3,0-0.4-0.3-0.3C140,211.9,139.9,211.9,139.9,211.9z"/>
<path class="st0" d="M92.5,217.1c0,0.1-0.1,0.4-0.1,0.6c-0.2,0.8-0.4,1.5-0.3,2.3c0,0.4-0.5,0.7-0.9,0.6c-0.2-0.1-0.3-0.2-0.3-0.4
	c0.1-0.5,0.2-1.1,0.3-1.6c0-0.3,0.1-0.5,0.1-0.8c0-0.1-0.1-0.2-0.1-0.2c-0.1,0-0.2,0-0.2,0.1c-0.3,0.3-0.5,0.5-0.8,0.8
	c-0.2,0.2-0.4,0.5-0.5,0.7c-0.2,0.4-0.4,0.8-0.7,1.2c-0.1,0.2-0.2,0.3-0.4,0.5c-0.1,0.2-0.4,0.4-0.6,0.3c-0.2-0.2-0.3-0.5-0.3-0.7
	c0-0.4,0.1-0.8,0.2-1.1c0.2-0.6,0.3-1.2,0.4-1.8c0.1-0.4,0.2-0.8,0.3-1.2c0.6-1.5,0.9-3,1.5-4.5c0.4-1,0.6-2,0.8-3.1
	c0.1-0.3,0.2-0.6,0.2-1c0-0.3,0.2-0.4,0.4-0.5c0.3-0.2,0.7,0,0.7,0.4c0,0.1,0,0.2,0,0.3c-0.2,0.9-0.4,1.7-0.8,2.5
	c-0.1,0.1-0.1,0.2-0.1,0.3c-0.4,1.2-0.8,2.4-1.2,3.7c-0.2,0.7-0.4,1.3-0.6,2c-0.1,0.5-0.2,0.9-0.3,1.4v0.1c0,0,0.1,0,0.1-0.1
	c0.2-0.3,0.5-0.6,0.7-0.8c0.4-0.3,0.8-0.6,1.2-0.9c0.4-0.2,0.8,0,0.9,0.4C92.4,216.7,92.4,216.8,92.5,217.1z"/>
<path class="st2" d="M49.8,137.1c0.1-0.6,0.1-1.3,0.3-2.1c0.4-1.9,0.9-3.7,1-5.6c0-0.4,0.1-0.9,0.1-1.3c0-0.2-0.1-0.3-0.3-0.2
	c-1,0.4-2,0.8-3,1.3c-0.7,0.3-1.4,0.7-2,1.2c-0.2,0.1-0.4,0.1-0.5,0c-0.2-0.2-0.1-0.4,0-0.5c0.2-0.2,0.3-0.5,0.6-0.6
	c0.7-0.4,1.5-0.8,2.2-1.1c0.5-0.2,1.1-0.4,1.6-0.6c1-0.4,1.9-0.8,2.9-1.2c1-0.4,1.9-0.7,2.9-1.1c0.2-0.1,0.4-0.1,0.5,0
	c0.3,0.2,0.2,0.6,0.1,0.9c0,0.1-0.3,0.3-0.4,0.3c-1.2-0.1-2.2,0.6-3.3,0.9c-0.3,0.1-0.4,0.2-0.3,0.5c0.1,0.6,0,1.2-0.1,1.7
	c-0.2,1.1-0.5,2.3-0.7,3.4c-0.2,0.9-0.3,1.8-0.4,2.6c0,0.3-0.1,0.7,0,1c0.1,0.4-0.1,0.8-0.4,1.1c-0.1,0.1-0.3,0.2-0.4,0.2
	c-0.2-0.1-0.3-0.2-0.4-0.4C49.8,137.5,49.8,137.4,49.8,137.1z"/>
<path class="st1" d="M65.2,261.2c0-0.4,0-0.8,0-1.2c0-0.4,0.2-0.7,0.5-1c0.1-0.1,0.2-0.1,0.3-0.1c0,0.1,0.1,0.2,0,0.3
	c-0.2,0.6-0.2,1.2-0.1,1.8c0.2,1.1,0.8,1.6,1.9,1.4c0.3-0.1,0.5-0.3,0.6-0.5c0.2-0.6,0.4-1.2,0.6-1.8c0.2-0.8,0.3-1.6,0.5-2.4
	c0.1-0.5,0.1-1,0.2-1.5c0.3-2.2,0.5-4.4,0.5-6.6c0-0.9,0-1.9,0.3-2.8c0-0.1,0.1-0.3,0.1-0.3c0.2-0.1,0.4-0.1,0.5,0
	c0.1,0,0.2,0.3,0.1,0.4c-0.3,0.5-0.1,1.1-0.1,1.6s-0.1,1-0.1,1.5c0,0.6,0,1.2,0,1.9s0,1.3-0.1,2c-0.1,0.4-0.1,0.9-0.1,1.4
	c-0.1,1.2-0.4,2.4-0.6,3.6c-0.1,0.3-0.1,0.6-0.1,0.8c-0.1,0.9-0.3,1.7-0.6,2.5c-0.3,0.8-0.8,1.1-1.7,1c-0.2,0-0.5,0-0.7,0
	c-0.8-0.1-1.3-0.5-1.5-1.2C65.3,261.6,65.2,261.3,65.2,261.2z"/>
<path class="st2" d="M146.6,126.7c0.1,0.7,0,1.4-0.2,2.1c-0.1,0.3-0.1,0.7-0.1,1c0,0.4-0.1,0.7-0.5,0.9c-0.1,0.1-0.2,0.2-0.3,0.2
	c-0.2-0.1-0.4-0.2-0.4-0.4c0-0.1,0-0.3,0-0.4c0.1-0.5,0.3-1,0.4-1.5c0.1-0.5,0.1-1.1,0.1-1.6l-0.2-0.1c-0.4,0.5-0.8,1-1.2,1.5
	c-0.4,0.7-0.8,1.4-1.2,2.1c-0.1,0.1-0.2,0.3-0.3,0.4c-0.1,0.1-0.2,0.4-0.5,0.3c-0.2-0.1-0.5-0.4-0.4-0.6c0-0.1,0-0.2,0.1-0.3
	c0.1-0.6,0.1-1.3,0.1-1.9c0,0,0-0.1-0.1-0.1s-0.2,0-0.2,0.1c-0.5,0.6-1,1.1-1.3,1.8s-0.7,1.3-1.2,1.7c-0.1,0.1-0.3,0.2-0.4,0.1
	c-0.2-0.1-0.3-0.2-0.3-0.4s0-0.3,0.1-0.5c0.1-0.3,0.2-0.6,0.3-0.9c0.2-0.6,0.4-1.2,0.5-1.8c0-0.1,0-0.2,0.1-0.2
	c0.1-0.2,0.2-0.3,0.4-0.3s0.3,0.2,0.4,0.4c0,0.1,0,0.2,0,0.2c0.1,0.1,0.2,0.1,0.2,0c0.3-0.3,0.5-0.6,0.8-0.9
	c0.3-0.2,0.6-0.5,0.9-0.6c0.4-0.2,0.7,0,0.8,0.5c0,0.3,0,0.6,0,0.8c0,0.1,0,0.2,0.1,0.2s0.2,0,0.2-0.1c0.1-0.1,0.1-0.2,0.1-0.3
	c0.4-0.9,1.1-1.5,1.9-2.1c0.1,0,0.1-0.1,0.2-0.1c0.7-0.3,1-0.2,1.1,0.6C146.6,126.5,146.6,126.6,146.6,126.7z"/>
<path class="st2" d="M125.8,170.7c0.5-0.4,1.2-0.3,1.8-0.4c0.2,0,0.4,0,0.6,0.1c0.5,0.2,0.6,0.3,0.5,0.9c-0.1,0.6-0.3,1.1-0.7,1.6
	c-1,1.2-2.3,2-3.7,2.7c-0.4,0.2-0.8,0-1.2-0.2c-0.2-0.1-0.2-0.4-0.1-0.6c0.2-0.5,0.4-1.1,0.6-1.6c0.1-0.2,0.1-0.3-0.2-0.4
	c-0.5-0.1-0.7-0.4-0.3-0.8c0.2-0.2,0.5-0.4,0.9-0.5s0.6-0.3,0.7-0.7c0.5-1.5,1.1-2.9,1.6-4.4c0.3-0.8,0.4-1.7,0.6-2.6
	c0-0.1,0-0.2,0.1-0.3c0.1-0.2,0.3-0.3,0.6-0.2c0.2,0.1,0.3,0.2,0.3,0.4c-0.1,0.4,0,0.9-0.3,1.3c-0.1,0.2-0.3,0.5-0.3,0.8
	c-0.4,1.6-1,3.2-1.6,4.7c0,0.1,0,0.2,0,0.3C125.5,170.7,125.7,170.7,125.8,170.7z M124.6,174.2c0.2,0.2,0.4,0.1,0.5-0.1
	c0.5-0.4,1-0.7,1.5-1.1c0.3-0.3,0.6-0.6,0.9-1c0.1-0.1,0.2-0.4,0.2-0.5c0-0.3-0.1-0.4-0.3-0.3c-0.8,0.2-1.5,0.4-2.3,0.6
	c-0.1,0-0.2,0.1-0.2,0.2c-0.3,0.7-0.5,1.4-0.8,2.1c-0.1,0.2,0,0.3,0.2,0.1C124.4,174.2,124.5,174.2,124.6,174.2z"/>
<path class="st0" d="M130.9,214.2c0-0.2,0-0.4,0-0.6l-0.1-0.1c0,0-0.1,0-0.1,0.1c-0.2,0.4-0.6,0.6-0.9,0.9c-0.6,0.5-1.1,1.1-1.7,1.6
	c-0.1,0.1-0.2,0.2-0.4,0.3c-0.7,0.5-1.5,0.2-1.7-0.7c-0.1-0.5-0.1-1,0.1-1.5c0.3-0.7,0.6-1.5,1.1-2c0.4-0.5,0.8-1,1.3-1.5
	c0.2-0.2,0.4-0.4,0.7-0.5c0.2-0.1,0.5,0,0.6,0.3c0.1,0.2,0,0.4-0.2,0.6c-0.1,0.1-0.3,0.1-0.4,0.2c-0.2,0.1-0.4,0.2-0.5,0.3
	c-0.5,0.9-1.3,1.5-1.6,2.5c-0.1,0.3-0.2,0.6-0.3,0.9c-0.1,0.4,0.3,0.6,0.6,0.4c0.3-0.1,0.6-0.3,0.8-0.5c0.7-0.6,1.3-1.3,2-1.9
	c0.2-0.2,0.4-0.4,0.7-0.4c0.1,0,0.2-0.2,0.3-0.3c0.2-0.3,0.4-0.7,0.7-1.1c0.1-0.2,0.2-0.4,0.4-0.5c0.1-0.1,0.3-0.1,0.5-0.1
	c0,0,0.1,0.2,0.1,0.3c0,0.5-0.2,0.9-0.6,1.3c-0.4,0.4-0.4,1-0.4,1.5c0,0.3,0.2,0.4,0.5,0.2c0.1-0.1,0.3-0.3,0.4-0.4
	c0.5-0.7,0.9-1.3,1.3-2c0.3-0.4,0.4-0.9,0.7-1.4c0.2-0.3,0.3-0.7,0.5-1c0-0.1,0.2-0.1,0.4-0.1s0.3,0.2,0.2,0.4
	c-0.2,0.4-0.2,0.9-0.5,1.3c-0.4,0.7-0.7,1.4-1.2,2.1c-0.4,0.7-0.9,1.3-1.4,1.9c-0.1,0.1-0.1,0.2-0.2,0.2
	C132,215.4,131.2,215.1,130.9,214.2C130.9,214.4,130.9,214.3,130.9,214.2z"/>
<path class="st2" d="M171.1,148.2c0-0.5,0-0.9,0-1.3l-0.2-0.1c-0.1,0.1-0.3,0.2-0.3,0.4c-0.5,1-1.4,1.5-2.4,1.9
	c-0.9,0.4-1.6-0.2-1.6-1.1c0-0.1,0-0.3,0-0.4c0.3-1.2,0.7-2.4,1.8-3.1c0.2-0.1,0.3-0.3,0.5-0.4c0.2-0.1,0.5-0.3,0.7-0.4
	c0.3-0.1,0.6-0.1,0.8,0.2c0.1,0.3,0.1,0.6-0.1,0.9c-0.5,0.8-1.3,1.3-2.1,1.7c-0.6,0.3-0.7,0.9-0.7,1.4c0,0.4,0.3,0.6,0.7,0.3
	c0.5-0.3,1-0.7,1.5-1c0.9-0.5,1.5-1.3,2.2-2.1c0.5-0.5,0.7-1.2,1.1-1.8c0.3-0.4,0.6-0.8,1-1.3c0.1-0.1,0.3-0.2,0.4-0.3
	c0.4-0.1,0.8,0,0.8,0.2c0.1,0.3-0.2,0.9-0.6,0.9c-0.3,0-0.5,0.2-0.6,0.4c-0.4,0.7-1,1.2-1.2,2c-0.3,0.9-0.7,1.7-0.5,2.7
	c0,0.2-0.5,0.9-0.6,0.9s-0.2,0-0.2-0.1C171.3,148.7,171.1,148.4,171.1,148.2z"/>
<path class="st1" d="M92.9,247.6c0,0.3-0.1,0.6-0.1,0.8s0,0.4-0.1,0.6c0,0.4,0,0.8,0,1.2c0.4-0.2,0.5-0.6,0.7-0.9
	c0.3-0.4,0.7-0.9,1-1.4c0.1-0.2,0.3-0.3,0.5-0.3c0.3,0,0.4,0.1,0.4,0.3c0,0.5,0,1.1,0,1.6c0,0.1,0,0.3,0.1,0.4
	c0.2,0.4,0.4,0.4,0.7,0.1c0.7-0.6,1.1-1.5,1.6-2.3c0-0.1,0.1-0.2,0.1-0.3c0.4-0.3,0.6-0.7,0.8-1.1c0.1-0.1,0.2-0.2,0.3-0.2
	c0.2-0.1,0.4,0,0.3,0.3c0,0.3-0.1,0.5-0.2,0.7c-0.5,0.8-0.9,1.6-1.4,2.4c-0.4,0.6-0.9,1.1-1.4,1.7c-0.3,0.3-0.9,0.3-1.2-0.1
	c-0.4-0.3-0.6-0.8-0.7-1.3c0-0.2-0.2-0.2-0.3-0.1c-0.2,0.2-0.3,0.4-0.4,0.6c-0.4,0.5-0.7,0.9-1.1,1.4c-0.2,0.2-0.3,0.3-0.6,0.2
	c-0.3-0.1-0.4-0.3-0.4-0.6c0-0.2,0-0.3,0.1-0.5c0-0.6,0.1-1.1,0.1-1.7c0.1-0.6,0.1-1.1,0.2-1.7c0-0.1,0.1-0.2,0.1-0.3
	c0.1-0.2,0.3-0.3,0.5-0.2C92.8,247.2,92.8,247.4,92.9,247.6z"/>
<path class="st2" d="M109.2,193.4c0.3,0,0.7,0,1,0c0.2,0,0.2,0.2,0.1,0.3s-0.2,0.2-0.3,0.2c-0.4,0.1-0.8,0.2-1.2,0.4
	c-0.4,0.1-0.7,0.2-1.1,0c-0.3-0.1-0.3-0.1-0.2,0.3c0.1,0.3-0.3,1-0.6,1.1c-0.2,0.1-0.5-0.1-0.5-0.3c0-0.4-0.1-0.8,0-1.2
	c0.3-1,0.6-2,0.9-3c0.2-0.6,0.4-1.2,0.6-1.8c0.2-0.7,0.4-1.4,0.7-2.2c0.4-1.3,0.8-2.5,1.4-3.7c0.1-0.2,0.2-0.3,0.3-0.5
	c0.1-0.2,0.4-0.2,0.5-0.1c0.1,0.1,0.3,0.3,0.2,0.5c-0.1,0.4-0.2,0.7-0.4,1.1c-0.5,0.9-0.9,1.8-1.1,2.8c-0.2,1.2-0.7,2.3-1.1,3.4
	c0,0.1-0.1,0.2-0.1,0.3c-0.1,0.2-0.1,0.5-0.2,0.7c0.3,0,0.4-0.3,0.6-0.4c0.3-0.2,0.5-0.4,0.8-0.6c0.3-0.2,0.6-0.2,1,0
	c0.1,0,0.2,0.2,0.3,0.3c-0.1,0.1-0.2,0.2-0.3,0.2c-0.4,0.1-0.8,0.3-1,0.7c-0.3,0.4-0.7,0.9-1,1.4c-0.1,0.2,0,0.3,0.2,0.3
	C108.7,193.5,109,193.5,109.2,193.4L109.2,193.4z"/>
<path class="st2" d="M93.8,174.6c0.5-0.2,1.2-0.5,1.8-0.8c0.5-0.2,0.9-0.6,1.3-0.8c0.2-0.1,0.4-0.2,0.6-0.2s0.4,0.1,0.5,0.2
	c0.1,0.2,0,0.4-0.2,0.5c-0.1,0.1-0.3,0.3-0.4,0.4c-1.3,0.6-2.5,1.4-3.9,1.7c-0.4,0.1-0.7,0.3-0.7,0.8c-0.1,0.7-0.4,1.3-0.3,2
	c0,0.1,0,0.2-0.1,0.2c-0.1,0.2-0.2,0.4-0.5,0.3c-0.3-0.1-0.5-0.3-0.5-0.6c0.1-0.4,0.1-0.7,0.2-1.1c0-0.2,0.1-0.3,0.2-0.5
	C92,176,92,176,91.3,176c-0.3,0-0.5,0-0.8,0.1c-0.1,0-0.3,0-0.4-0.1s-0.3-0.3-0.3-0.4c0-0.2,0.2-0.3,0.3-0.4
	c0.1-0.1,0.3-0.1,0.4-0.1s0.3,0,0.4,0c0.9,0,1.3-0.4,1.5-1.3c0.4-1.5,0.7-3,1.1-4.5c0.2-0.6,0.5-1.1,0.7-1.7
	c0.1-0.2,0.3-0.3,0.5-0.3c0.3,0.1,0.4,0.2,0.3,0.5c-0.3,0.7-0.7,1.5-0.9,2.3c-0.3,0.9-0.4,1.8-0.6,2.8c-0.1,0.4-0.2,0.9-0.3,1.3
	C93.3,174.6,93.4,174.7,93.8,174.6z"/>
<path class="st2" d="M103.8,153c0,0.4-0.1,0.8-0.3,1.2c-0.1,0.2-0.3,0.3-0.4,0.5c-0.6,1-1.5,1.5-2.5,1.8c-0.3,0.1-0.4,0.2-0.5,0.5
	c-0.3,0.9-0.5,1.9-0.8,2.8c-0.1,0.2-0.1,0.4-0.2,0.6c-0.5,0.8-0.8,1.7-1.1,2.5c0,0.1,0,0.2-0.1,0.2c-0.1,0.2-0.4,0.3-0.7,0.2
	c-0.2-0.1-0.2-0.3-0.1-0.6c0.3-0.8,0.6-1.7,0.9-2.5s0.6-1.7,0.8-2.5c0.1-0.3,0.1-0.7,0.2-1.1c0.2-0.8,0.4-1.7,0.7-2.5
	c0.2-0.4,0.3-1,0.9-1.1c0.2-0.1,0.3-0.3,0.5-0.4c0.6-0.4,1.2-0.7,2-0.3C103.6,152.5,103.8,152.7,103.8,153z M102.9,153.3
	c-0.1-0.1-0.2-0.2-0.3-0.3c-0.1,0-0.2,0-0.3,0c-0.8,0.2-1.5,0.6-1.5,1.5c0,0.3-0.4,0.6-0.2,1c0.3-0.2,0.6-0.3,0.9-0.6
	c0.4-0.3,0.7-0.7,1.1-1C102.7,153.8,102.8,153.6,102.9,153.3z"/>
<path class="st2" d="M54.1,222c0-0.2,0-0.4,0-0.7c0,0,0-0.1-0.1-0.1c0,0-0.1,0-0.1,0.1c-0.3,0.4-0.6,0.8-0.9,1.2
	c-0.3,0.4-0.7,0.9-1,1.3c-0.3,0.4-0.7,0.3-1-0.1c-0.4-0.5-0.4-1-0.2-1.6c0.3-1,0.7-1.9,1.5-2.6c0.5-0.4,0.7-1,1.2-1.3
	c0.4-0.3,0.8-0.4,1.1-0.7c0.2-0.1,0.4,0,0.3,0.2c-0.1,0.3,0,0.5,0.3,0.6c0.2,0.1,0.3,0.3,0.2,0.6c-0.1,0.2-0.1,0.4-0.1,0.6
	c-0.3,0.7-0.3,1.4-0.3,2.1c0,0.4,0.1,0.4,0.4,0.2c0.1-0.1,0.2-0.3,0.4-0.1s0.1,0.4,0,0.6c-0.2,0.3-0.4,0.6-0.6,0.9
	c-0.2,0.3-0.6,0.3-0.8,0.1C54.3,222.9,54.1,222.5,54.1,222z M54.5,218.9c-0.1,0-0.2-0.1-0.2-0.1c-0.5,0.3-1.1,0.6-1.5,1.1
	c-0.5,0.5-0.8,1.1-1.1,1.8c-0.1,0.3-0.4,0.5-0.1,0.8c0.2-0.2,0.4-0.3,0.6-0.5c0.1-0.1,0.1-0.1,0.1-0.2c0.7-0.9,1.2-1.8,1.9-2.6
	C54.5,219.2,54.5,219.1,54.5,218.9z"/>
<path class="st2" d="M159.1,123.8c0,0.1,0,0.3,0,0.5c0,0.1,0.1,0.3,0.2,0.3c0.7,0.4,0.9,1.1,1.3,1.7c0.1,0.2,0.2,0.4,0.3,0.6
	c0.4,0.4,0.8,0.5,1.3,0.2c0.1,0,0.1-0.1,0.2-0.2c0.2-0.1,0.8-0.1,0.8,0.1c0.2,0.3-0.2,0.4-0.3,0.5c-0.3,0.5-0.9,0.6-1.4,0.7
	c-0.3,0.1-0.5,0-0.8-0.2c-0.6-0.5-1.1-1.1-1.5-1.8c-0.3-0.6-0.6-0.6-1.1-0.1c-0.1,0.1-0.2,0.3-0.3,0.4c-0.3,0.7-0.9,1-1.5,1.4
	c-0.2,0.2-0.4,0.1-0.6-0.1c-0.4-0.4-0.4-0.9-0.3-1.4c0.3-0.9,0.8-1.8,1.5-2.5c0.3-0.4,0.6-0.8,0.9-1.2c0.2-0.2,0.4-0.3,0.7-0.2
	c0.3,0.1,0.3,0.4,0.3,0.6C159.1,123.4,159.1,123.5,159.1,123.8z M156.8,126.7c0.1-0.1,0.1-0.1,0.2-0.2c0.2-0.3,0.4-0.6,0.6-0.9
	c0.2-0.2,0.4-0.4,0.6-0.6c0.1-0.1,0.1-0.3,0.1-0.4c-0.1-0.2-0.2-0.1-0.3,0c-0.3,0.4-0.6,0.7-0.9,1.1c-0.1,0.2-0.2,0.4-0.3,0.7
	C156.7,126.5,156.7,126.6,156.8,126.7C156.7,126.6,156.8,126.7,156.8,126.7z"/>
<path class="st2" d="M52.3,178.1c0.4,0.2,0.5-0.1,0.8-0.2c0.2-0.1,0.4,0,0.4,0.2s0.1,0.5,0,0.7c-0.3,0.5-0.3,1.1-0.4,1.6
	c0,0.1,0,0.3-0.1,0.4c-0.5,0.5-0.2,1.2-0.3,1.8c0,0.3,0.1,0.3,0.5,0.3c0.2,0,0.2,0.1,0.2,0.2c0,0.4-0.2,0.7-0.4,1
	c-0.1,0.1-0.4,0.1-0.4,0c-0.4-0.3-0.7-0.6-0.6-1.2c0-0.2,0-0.3,0-0.5c0-0.1-0.1-0.2-0.1-0.3c-0.1,0-0.2,0.1-0.2,0.1
	c-0.1,0.1-0.1,0.2-0.2,0.3c-0.4,0.7-1,1.1-1.7,1.4c-0.6,0.3-1.3-0.1-1.4-0.8c-0.1-0.6,0-1.1,0.3-1.6c0.2-0.4,0.4-0.8,0.7-1.2
	c0.1-0.2,0.2-0.5,0.4-0.6c0.7-0.5,1.2-1.1,2-1.5C51.9,178.3,52.1,178.2,52.3,178.1z M49.3,182.6c0,0.5,0.2,0.6,0.5,0.5
	c0.2-0.1,0.5-0.3,0.7-0.5c0.6-0.6,0.9-1.3,1.3-2c0.2-0.3,0.3-0.6,0.4-0.9c0.1-0.2,0-0.3-0.2-0.3c-0.3,0-0.6,0.1-0.8,0.3
	c-0.7,0.6-1.2,1.3-1.6,2.1C49.4,182,49.3,182.4,49.3,182.6z"/>
<path class="st2" d="M51,108.3c-1.1,0.1-1.9-0.6-1.8-1.6c0-0.3,0.1-0.6,0.2-0.8c0.4-0.9,0.7-1.8,1.2-2.6c0.2-0.4,0.7-0.8,0.9-1.3
	c0.2-0.2,0.5-0.4,0.8-0.5c0.5-0.1,0.9,0.2,0.7,0.7c-0.2,1-0.4,2.1-1.2,2.9c-0.4,0.4-0.8,0.8-1.3,1c-0.3,0.2-0.4,0.6-0.3,0.8
	c0.1,0.2,0.5,0.3,0.8,0.1c0.1-0.1,0.3-0.2,0.4-0.3c0.6-0.7,1.2-1.4,1.8-2.1c0.1-0.1,0.1-0.1,0.2-0.2c0.1-0.1,0.2-0.2,0.3-0.1
	s0.1,0.3,0.1,0.4c-0.2,0.8-0.7,1.4-1.3,2c-0.3,0.4-0.7,0.8-1,1.1C51.4,108.2,51.1,108.3,51,108.3z M51.2,104.5L51.2,104.5
	C51.2,104.5,51.2,104.4,51.2,104.5C51.2,104.4,51.2,104.4,51.2,104.5z"/>
<path class="st2" d="M94,194.1c0,0.4,0,0.7,0,1.1c0,0.1,0,0.3,0,0.4c0,0.1,0.1,0.2,0.1,0.2c0.1,0,0.2,0,0.2-0.1
	c0.4-0.6,0.9-1.1,1.1-1.8c0.2-0.4,0.4-0.8,0.8-1.1c0.3-0.2,0.6-0.1,0.7,0.2c0,0.1,0,0.3-0.1,0.4c-0.5,0.4-0.5,1-0.8,1.4
	s-0.5,0.9-0.7,1.3c-0.1,0.1-0.1,0.2-0.2,0.3c-0.3,0.3-0.7,0.6-1.1,0.5c-0.5-0.1-0.7-0.5-0.8-1c0-0.1,0-0.1,0-0.2
	c0-0.1-0.1-0.2-0.2-0.2s-0.2,0.1-0.3,0.2c-0.4,0.4-0.8,0.8-1.2,1.2c-0.1,0.1-0.2,0.2-0.3,0.2c-0.6,0.3-1.2,0.2-1.3-0.6
	c-0.1-0.9,0.1-1.8,0.4-2.6c0.1-0.3,0.2-0.6,0.4-0.9c0.2-0.5,0.6-0.5,0.9-0.1c0.1,0.1,0.1,0.3,0.1,0.4c-0.1,0.3-0.2,0.6-0.4,0.8
	c-0.2,0.4-0.4,0.9-0.4,1.3c0,0.2,0,0.4,0,0.6c0.1-0.1,0.3-0.1,0.4-0.2c0.6-0.5,1.1-1,1.5-1.7c0.1-0.2,0.2-0.4,0.4-0.5
	c0.1-0.1,0.3-0.2,0.4-0.2c0.2,0,0.4,0.1,0.3,0.4C93.9,193.9,93.9,194,94,194.1C93.9,194.1,93.9,194.1,94,194.1z"/>
<path class="st2" d="M76.7,176.3c0.1,0,0.3,0,0.4,0.1c0.2,0.1,0.4,0.2,0.4,0.5c0,0.6-0.1,1.3-0.3,1.9c-0.3,0.8-0.3,1.5,0.1,2.2
	c0,0.1,0,0.3,0,0.3c-0.1,0.1-0.3,0.1-0.4,0.1c-0.3-0.1-0.5-0.4-0.6-0.7s-0.2-0.6-0.3-0.9l0,0l0,0c-0.4,0.7-1,1.2-1.7,1.6
	c-0.4,0.2-1,0-1.3-0.4c-0.3-0.5-0.4-1-0.2-1.5c0.7-1.3,1.4-2.7,2.6-3.7c0.4-0.3,0.8-0.4,1.2-0.4c0.3,0,0.5,0.2,0.4,0.5
	C77,176,76.9,176.2,76.7,176.3c-0.2,0-0.4-0.1-0.6,0c-0.2,0.2-0.6,0.3-0.7,0.6c-0.5,0.7-1,1.4-1.4,2.2c-0.2,0.3-0.2,1.2,0,1.3
	s0.9-0.3,1.1-0.7c0.5-0.9,0.9-1.8,1.3-2.7C76.5,176.7,76.6,176.5,76.7,176.3z"/>
<path class="st0" d="M172.7,209.8c0.1-0.2,0.1-0.4,0.2-0.6c0.4-0.8,0.7-1.6,1.1-2.4c0.1-0.3,0.2-0.6,0.3-1c0,0,0-0.1-0.1-0.1h-0.1
	c-0.1,0.1-0.2,0.1-0.3,0.2c-1,0.9-2.1,1.8-2.8,3.1c-0.3,0.6-0.9,1-1.3,1.5c-0.1,0.1-0.3,0.1-0.4-0.1c-0.2-0.2-0.1-0.4-0.1-0.5
	c0.5-1,0.7-2.1,1-3.1c0.1-0.2,0.2-0.4,0.2-0.6c0.1-0.2,0.3-0.3,0.5-0.3c0.3,0,0.4,0.1,0.4,0.3c0,0.4-0.1,0.8-0.2,1.2
	c0,0,0,0.1,0,0.2h0.1c0.1-0.1,0.2-0.2,0.4-0.4c0.5-0.5,1-1.1,1.6-1.6c0.4-0.3,0.8-0.6,1.3-0.8c0.2-0.1,0.5-0.1,0.7,0
	c0.2,0.2,0.3,0.4,0.2,0.7c-0.1,0.5-0.3,1-0.5,1.4s-0.4,0.8-0.6,1.2c-0.1,0.3-0.1,0.2,0.3,0.3c0.2,0,0.3,0.1,0.2,0.3
	c0,0.1-0.1,0.2-0.1,0.3c-0.3,0.4-0.6,0.7-0.9,1.1c-0.1,0.1-0.1,0.2-0.2,0.2c-0.1,0.1-0.3,0.1-0.5,0.1
	C172.8,210.1,172.8,209.9,172.7,209.8z"/>
<path class="st0" d="M179.1,188.8c-0.2,0-0.5,0-0.7,0c-0.6-0.1-1-0.6-0.9-1.2c0.2-0.6,0.4-1.3,1-1.7c0.6-0.5,1.2-1,1.8-1.5
	c0.3-0.2,0.6-0.4,1-0.5c0.2-0.1,0.4,0,0.5,0.2s0,0.3-0.2,0.4c-0.4,0.2-0.7,0.5-1.1,0.7c-0.6,0.3-1,0.8-1.5,1.2
	c-0.2,0.2-0.4,0.6-0.5,0.9c-0.1,0.2,0,0.5,0.3,0.5c0.2,0,0.5,0,0.7-0.1c0.4-0.2,0.9-0.4,1.3-0.5c0.6-0.2,1.2-0.5,1.8-0.7
	c0.1-0.1,0.3-0.2,0.4-0.3c0.4-0.7,0.9-1.4,1-2.2c0-0.1,0.1-0.2,0.1-0.3c0.1-0.2,0.3-0.2,0.5-0.2c0.2,0.1,0.3,0.2,0.3,0.4
	c-0.1,0.3-0.1,0.7-0.2,1c-0.3,0.6-0.6,1.3-0.9,1.9c-0.1,0.2-0.2,0.4-0.1,0.6c0.1,0.2,0,0.5-0.3,0.6c-0.2,0.1-0.3,0.2-0.4,0.2
	c-0.4,0.2-0.7,0-0.7-0.5c0-0.2,0.1-0.3,0.1-0.5l-0.1-0.1c-0.2,0.1-0.4,0.2-0.6,0.3C180.9,188.2,180,188.6,179.1,188.8z"/>
<path class="st2" d="M56.2,95.2c0,0.6,0.1,1.3-0.1,2.1c-0.1,0.7,0,1.4-0.1,2.2c-0.1,0.7-0.2,1.5-0.3,2.2c-0.1,0.8-0.1,1.6-0.2,2.3
	c0,0.7-0.1,1.3,0,2c0,0.4-0.1,0.6-0.4,0.9c-0.2,0.2-0.3,0.3-0.6,0.2c-0.3-0.1-0.4-0.3-0.3-0.6c0.1-0.7,0.2-1.4,0.3-2.2
	c0.1-0.6,0.2-1.3,0.2-1.9c0-0.4,0-0.7,0.1-1.1c0.2-0.8,0.2-1.6,0.2-2.4c0.1-1.5,0-2.9,0-4.4c0-0.2,0-0.4,0.1-0.5s0.3-0.2,0.5-0.2
	c0.1,0,0.3,0.2,0.4,0.4C56.1,94.5,56.1,94.8,56.2,95.2z"/>
<path class="st2" d="M102.2,131.8c-0.2,0.1-0.3,0.2-0.4,0.4c-0.3,0.4-0.6,0.7-0.9,1.1c-0.1,0.1-0.3,0.3-0.5,0.4
	c-0.3,0.2-0.7,0.4-1.1,0.1c-0.3-0.2-0.5-0.6-0.4-1c0-0.2,0.1-0.5,0.2-0.7c0.5-0.7,1.1-1.3,1.6-2c0.4-0.5,0.9-0.5,1.5-0.4
	c1,0.2,1.1,0.2,1,1.3c0,0.3-0.1,0.6-0.1,0.9c0,0.1-0.1,0.4,0.2,0.4c0.1,0,0.2-0.1,0.3-0.2c0.1-0.1,0.2-0.3,0.3-0.5
	c0.1-0.1,0.2-0.1,0.3-0.1c0.1,0,0.2,0.1,0.2,0.1c0,0.1,0,0.3-0.1,0.4c-0.3,0.6-0.6,1.1-0.9,1.6c-0.4,0.6-0.8,0.3-1.1-0.2
	c-0.1-0.2-0.1-0.4-0.1-0.6C102.2,132.5,102.2,132.1,102.2,131.8L102.2,131.8z M100.2,132.4C100.3,132.4,100.3,132.4,100.2,132.4
	c0.5-0.5,0.9-1,1.4-1.6c0-0.1,0-0.2,0-0.2c-0.1,0-0.2,0-0.3,0c-0.5,0.5-0.9,1-1.2,1.6C100.1,132.3,100.1,132.4,100.2,132.4
	C100.2,132.5,100.2,132.4,100.2,132.4z"/>
<path class="st0" d="M173.2,185.2c-0.1,0.4-0.2,0.8-0.3,1.2c0,0.1,0,0.2,0,0.2c0.1,0,0.2,0,0.3-0.1c0.5-0.5,1-1,1.5-1.4
	c0.3-0.3,0.7-0.6,1-0.9c0,0,0,0,0.1,0c0.3-0.2,0.7-0.3,1-0.1s0.2,0.6,0.2,0.9c-0.2,0.6-0.4,1.3-0.6,1.9c-0.1,0.2-0.1,0.3,0.2,0.4
	c0.4,0.1,0.4,0.1,0.2,0.5c-0.2,0.3-0.5,0.5-0.9,0.6c-0.3,0.2-0.7-0.1-0.7-0.5c0-0.2,0.1-0.4,0.2-0.6c0.2-0.5,0.4-1,0.5-1.6
	c0-0.1,0-0.2,0-0.3c-0.1,0-0.2,0.1-0.2,0.1c-1.1,0.8-1.9,1.8-2.6,2.9c-0.2,0.4-0.8,0.5-0.9,1c0,0.1-0.3,0.1-0.4,0
	c-0.2-0.2-0.4-0.5-0.3-0.8c0.4-0.7,0.4-1.5,0.5-2.2c0.1-0.4,0.2-0.7,0.3-1.1c0-0.1,0.1-0.3,0.2-0.3c0.2-0.1,0.4-0.2,0.5-0.1
	C173.1,184.8,173.1,185,173.2,185.2z"/>
<path class="st0" d="M158.8,190.6c-0.5,0.1-0.6,0-0.8-0.4c-0.1-0.1-0.1-0.3-0.2-0.5c-0.1-0.2-0.2-0.1-0.3,0c-0.3,0.5-0.6,0.8-1,1.2
	c-0.3,0.3-0.6,0.5-0.9,0.8c-0.3,0.3-0.8,0.2-1.1-0.2c-0.2-0.3-0.3-0.6-0.1-1c0.3-0.8,0.6-1.7,1.3-2.3s1.3-1.3,1.9-2
	c0.2-0.2,0.4-0.4,0.7-0.2c0.2,0.1,0.3,0.2,0.3,0.5s-0.2,0.5-0.5,0.6c-0.4,0.2-0.8,0.4-1.1,0.9s-0.7,0.8-1.1,1.2
	c-0.1,0.2-0.3,0.4-0.4,0.5c-0.2,0.3-0.2,0.9-0.1,0.9c0.2-0.1,0.5-0.2,0.6-0.4c0.6-0.7,1.1-1.5,1.6-2.4c0.2-0.3,0.4-0.5,0.7-0.5
	s0.4,0.2,0.4,0.4c0,0.4-0.1,0.8-0.1,1.2s0,0.7,0.4,0.9c0.1,0,0.1,0.1,0.2,0.2C159.4,190.3,159.3,190.5,158.8,190.6
	C158.9,190.6,158.9,190.6,158.8,190.6z"/>
<path class="st2" d="M143.2,148.9c-0.2,0.3-0.4,0.5-0.6,0.8c-0.2,0.4-0.2,0.8,0.1,1.1s0.7,0.4,1.1,0.3c0.7-0.2,1.3-0.5,1.8-1
	c0.4-0.3,0.7-0.5,1.1-0.7c0,0,0.1,0,0.2,0v0.1v0.1c-0.3,0.3-0.7,0.6-0.8,1.1c-0.8,0.8-1.7,1.2-2.8,1.3c-0.8,0-1.6-0.6-1.7-1.4
	c-0.1-0.7,0-1.3,0.4-1.8c0.7-0.8,1.4-1.5,2.4-2.1c0.2-0.1,0.4-0.2,0.6-0.2c0.5-0.1,0.8,0.1,0.7,0.6c-0.1,1-0.7,2.4-2,2.6
	c-0.4,0.1-0.6-0.1-0.6-0.5C143.2,149.1,143.2,149,143.2,148.9c0.5-0.1,1-0.3,1.2-0.8c0-0.1,0.1-0.2,0.1-0.3c-0.1,0-0.3,0-0.4,0
	C143.7,148,143.3,148.3,143.2,148.9z"/>
<path class="st2" d="M111.1,152c-0.1,0-0.2,0.1-0.2,0.1c-0.5,0.9-1,1.8-1.5,2.6c-0.1,0.2-0.3,0.5-0.5,0.7c-0.1,0.1-0.3,0.2-0.4,0.1
	c-0.1,0-0.3-0.2-0.3-0.3c-0.1-0.4-0.2-0.7,0.2-1.1c0.4-0.4,0.4-1,0.5-1.6c0-0.3,0.1-0.7,0.2-1c0-0.1,0.1-0.3,0.2-0.4
	c0.2-0.3,0.5-0.2,0.8,0.1c0.2,0.3,0.2,0.3,0.5,0c0.2-0.2,0.4-0.4,0.5-0.6c0.1-0.1,0.3-0.3,0.4-0.4c0.6-0.3,1,0,0.9,0.6
	c0,0.4-0.1,0.7-0.2,1.1c-0.2,0.6-0.4,1.2-0.6,1.8c-0.1,0.3-0.3,0.7-0.1,1.1c0.1,0.3-0.4,0.8-0.7,0.8c-0.1,0-0.3-0.2-0.4-0.4
	c-0.1-0.5,0.1-0.9,0.2-1.4C110.9,153.2,111,152.6,111.1,152v-0.1C111.2,151.9,111.2,151.9,111.1,152z"/>
<path class="st0" d="M213.6,203.6c0.1,0,0.2,0,0.3,0s0.2,0.3,0.1,0.3c-0.6,0.4-1,1-1.8,1.2c-0.3,0.1-0.5-0.1-0.5-0.4
	c0-0.3,0.1-0.7,0.3-0.9c0.3-0.4,0.4-0.8,0.5-1.2c0-0.2-0.1-0.3-0.3-0.2c-0.6,0.3-1.3,0.7-1.9,1.1c-0.6,0.5-1.2,1-1.7,1.7
	c-0.3,0.4-0.7,0.8-1.1,1.1c-0.2,0.1-0.4,0.3-0.6,0.1c-0.2-0.2-0.3-0.4-0.1-0.7c0.4-0.7,0.5-1.5,1-2.2c0,0,0-0.2-0.1-0.2
	c-0.1-0.1-0.2-0.1-0.4-0.2c-0.1-0.1-0.4,0-0.3-0.2c0-0.1,0.3-0.1,0.4-0.1c0.3,0.1,0.6,0.2,0.7,0.6c0,0.1,0.1,0.2,0.1,0.3
	c0.1,0.2,0.2,0.3,0.4,0.1c0.4-0.3,0.7-0.6,1.1-0.9c0.7-0.6,1.5-1.1,2.3-1.5c0.3-0.1,0.6-0.2,1-0.1c0.4,0.1,0.6,0.5,0.4,0.9
	c-0.1,0.3-0.3,0.7-0.4,1C213.2,203.6,213.2,203.7,213.6,203.6z"/>
<path class="st2" d="M108.3,131.5c0-0.1,0.1-0.4,0.2-0.6c0.2-0.6,0.4-1.1,0.6-1.6c0-0.1,0-0.2,0-0.2c-0.1,0-0.2,0-0.2,0h-0.1
	c-0.5,0.5-1.2,0.8-1.6,1.4c-0.5,0.7-1,1.3-1.5,2c-0.2,0.2-0.3,0.4-0.6,0.3c-0.3-0.1-0.5-0.5-0.4-0.8c0.2-0.6,0.3-1.2,0.6-1.8
	c0.1-0.3,0.4-0.6,0.6-0.8c0.1-0.1,0.2-0.1,0.3,0c0.1,0,0.1,0.2,0.2,0.3c0,0.1,0,0.3,0,0.4c0,0.2,0,0.3-0.1,0.5
	c0.1-0.1,0.2-0.2,0.3-0.4c0.2-0.2,0.3-0.4,0.5-0.6c0.2-0.2,0.3-0.4,0.5-0.5c0.6-0.4,1.2-0.7,1.7-1c0.2-0.1,0.4-0.1,0.6-0.1
	c0.4,0,0.6,0.2,0.5,0.7c-0.1,0.7-0.2,1.4-0.6,2c-0.2,0.4-0.5,0.8-0.4,1.4c0.1,0.4-0.1,0.6-0.4,0.6s-0.5-0.2-0.6-0.5
	C108.4,131.9,108.4,131.8,108.3,131.5z"/>
<path class="st2" d="M59.2,93c-0.1,0.6-0.2,1.2-0.2,1.8c-0.1,0.7-0.1,1.4-0.1,2.1s-0.1,1.3-0.2,2c0,0.6-0.1,1.2-0.1,1.8
	c0,0.9-0.1,1.9-0.1,2.8c0,0.3,0,0.7,0.1,1s0,0.5-0.2,0.7c-0.1,0.1-0.3,0.2-0.4,0.2c-0.1,0-0.3-0.2-0.3-0.3c-0.2-0.3-0.2-0.7-0.2-1
	c0.1-1.6,0.1-3.2,0.2-4.9c0.1-1.4,0.2-2.7,0.3-4.1c0.1-0.7,0.2-1.4,0.3-2.1c0-0.1,0.1-0.3,0.1-0.4c0.1-0.2,0.2-0.3,0.4-0.3
	s0.3,0.1,0.3,0.3S59.1,92.9,59.2,93C59.1,93,59.2,93,59.2,93z"/>
<path class="st2" d="M60.8,219c-0.8,0.1-1.4,0.6-1.9,1.2c-0.4,0.5-0.8,1.1-1.2,1.6c-0.2,0.3-0.3,0.6-0.5,0.9
	c-0.1,0.2-0.3,0.5-0.6,0.3c-0.3-0.1-0.5-0.5-0.4-0.8c0.1-0.2,0.2-0.5,0.3-0.7c0.2-0.5,0.3-1,0.5-1.4c0.2-0.7,0.5-0.9,1.2-0.8
	c0.3,0,0.5-0.1,0.6-0.3c0.6-0.6,1.3-0.9,2-1.2c0.1-0.1,0.3-0.1,0.5-0.1c0.3,0,0.5,0.2,0.5,0.4c0.1,0.4,0,0.7-0.2,1
	c-0.3,0.5-0.5,1.1-0.5,1.7c0,0.4-0.6,0.9-1,0.9c-0.3,0-0.5-0.5-0.4-0.8c0.2-0.6,0.5-1.1,0.7-1.7C60.7,219.3,60.8,219.1,60.8,219
	L60.8,219L60.8,219z"/>
<path class="st2" d="M63.7,101.6c0.3,1.2-0.4,2.3-1.3,3.4c-0.3,0.4-0.8,0.7-1.5,0.6c-0.6-0.2-1-0.6-1.1-1.1c-0.2-0.7-0.2-1.3,0-2
	c0.1-0.5,0.4-0.9,0.6-1.3c0.1-0.1,0.2-0.3,0.2-0.4c0.1-0.2,0.1-0.4,0.2-0.5c0.2-0.1,0.5-0.2,0.8-0.2c0.4,0,0.8,0.1,1.2,0.2
	C63.3,100.2,63.6,100.7,63.7,101.6z M62.9,101.7c0-0.2-0.1-0.3-0.1-0.4c0-0.3-0.2-0.6-0.5-0.6c-0.2,0-0.6,0.1-0.7,0.3
	c-0.6,0.7-1,1.5-0.9,2.5c0,0.2,0.1,0.5,0.2,0.7c0.1,0.2,0.3,0.3,0.5,0.2c0.1-0.1,0.3-0.2,0.4-0.3c0.5-0.5,0.8-1.1,1-1.8
	C62.9,102.1,62.9,101.8,62.9,101.7z"/>
<path class="st2" d="M89.2,179.5c-0.5,0.1-0.7-0.2-0.9-0.5c-0.1-0.1-0.2-0.2-0.2-0.4c-0.1-0.2-0.2-0.4-0.2-0.6
	c-0.3,0.1-0.4,0.4-0.5,0.6c-0.3,0.6-0.7,0.9-1.3,1.2c-0.5,0.3-1.1,0-1-0.6c0-0.5,0.2-1,0.4-1.5c0.3-0.7,0.8-1.3,1.2-1.9
	c0.3-0.4,0.7-0.6,1.2-0.8c0.2-0.1,0.4,0,0.5,0.1c0.2,0.1,0.2,0.2,0,0.3c-0.1,0.1-0.3,0.2-0.4,0.3c-0.7,0.7-1.3,1.5-1.7,2.5
	c0,0,0,0.1,0,0.2c0.1,0,0.2,0,0.2-0.1c0.5-0.6,0.9-1.2,1.4-1.7c0.3-0.4,0.7-0.3,0.8,0.2c0.1,0.2,0.1,0.5,0.1,0.7
	c0,0.3,0.1,0.5,0.2,0.8s0.2,0.5,0.5,0.3h0.2c0.2,0.1,0.4,0.1,0.4,0.3s-0.1,0.4-0.3,0.4C89.7,179.3,89.5,179.4,89.2,179.5z"/>
<path class="st0" d="M187.2,186.9c0.2-0.1,0.5-0.1,0.7-0.2c0.6-0.4,1.4-0.5,2.1-0.8c0.1,0,0.2,0,0.3,0c0,0.1,0,0.2-0.1,0.3
	s-0.3,0.2-0.4,0.2c-0.6,0.2-1.1,0.5-1.6,0.8c-0.4,0.2-0.8,0.4-1.1,0.5c-0.6,0.2-1.2,0-1.5-0.5c-0.1-0.2-0.2-0.4-0.2-0.5
	c0.1-1.8,1.4-3.4,3.1-4c0.2-0.1,0.5-0.1,0.7-0.2c0.2,0,0.5,0,0.6,0.2s0,0.4-0.1,0.5c-0.3,0.5-0.7,1-1.1,1.4c-0.5,0.5-1.1,1-1.8,1.2
	c-0.4,0.1-0.6,0.6-0.5,0.9c0,0.1,0.2,0.2,0.2,0.2C186.8,186.9,187,186.9,187.2,186.9z M187.9,183.9
	C187.9,183.8,188,183.8,187.9,183.9C188,183.8,188,183.8,187.9,183.9C187.9,183.8,187.9,183.8,187.9,183.9c0,0.1-0.1,0.1-0.1,0.2
	c-0.3,0-0.4,0.1-0.5,0.4c0,0,0,0.1-0.1,0.1c0,0,0-0.1,0.1-0.1c0.2-0.1,0.5-0.1,0.5-0.4C187.8,184,187.9,183.9,187.9,183.9z"/>
<path class="st0" d="M135.7,214.8c-0.1-0.8,0.1-1.5,0.3-2.1c0.5-1.5,1.2-3,1.7-4.4c0.1-0.3,0.2-0.6,0.3-1c0.5-1.5,1.1-3,1.5-4.6
	c0.1-0.2,0.1-0.4,0.3-0.6c0.1-0.1,0.3-0.1,0.4-0.1c0.1,0,0.2,0.2,0.2,0.3c0,0.7-0.2,1.3-0.5,1.9c-0.5,1.5-1.1,3-1.6,4.5
	c-0.3,0.8-0.7,1.5-1,2.3c-0.3,0.7-0.6,1.3-0.6,2.1c0,0.1-0.1,0.3,0,0.3c0.5,0.6-0.1,1-0.4,1.3c0,0,0,0-0.1,0.1s-0.2,0.4-0.5,0.2
	C135.7,215,135.7,214.8,135.7,214.8z"/>
<path class="st2" d="M54.6,137.4c-0.4,0.1-0.9,0.2-1.3,0.3c-1.1,0.3-2.2,0.6-3.3,1.1c-0.2,0.1-0.5,0.2-0.7,0.3
	c-0.5,0.2-1,0.4-1.5,0.6c-0.9,0.4-1.7,0.8-2.6,1.2c-0.2,0.1-0.4,0.3-0.7,0.4c-0.1,0-0.4,0-0.4-0.1c-0.1-0.1-0.1-0.3,0-0.5
	s0.2-0.3,0.4-0.4c0.4-0.3,0.9-0.6,1.4-0.8c1.3-0.6,2.5-1.2,3.8-1.7c1-0.4,2-0.7,3-0.9c0.8-0.1,1.6-0.3,2.4-0.5
	c0.3-0.1,0.4,0,0.5,0.2c0.1,0.3,0.1,0.5-0.2,0.6C55.3,137.4,54.9,137.4,54.6,137.4L54.6,137.4z"/>
<path class="st2" d="M115.5,150.6c0.4,0.1,0.9,0.2,1.3,0.3c0.1,0,0.2,0.2,0.2,0.3c0.1,0.4,0.1,0.8,0.2,1.2s0.1,0.8,0.4,1.2
	c0.2,0.3,0.1,0.5-0.1,0.7s-0.5,0.2-0.7-0.1s-0.3-0.6-0.5-1c-0.1-0.2,0-0.4-0.1-0.6c-0.1-0.3-0.2-0.3-0.4-0.1
	c-0.4,0.4-0.7,0.8-1.1,1.3c-0.3,0.3-0.5,0.7-0.8,1c-0.2,0.2-0.4,0.4-0.7,0.3c-0.2-0.1-0.5-0.7-0.4-1s0.1-0.6,0.3-0.8
	c0.3-0.6,0.6-1.2,1-1.7C114.5,151,115,150.7,115.5,150.6z M115.5,151.5c-0.1,0-0.1,0.1-0.2,0.1c-0.2,0.1-0.3,0.1-0.3,0.4
	c-0.1,0-0.1,0.1-0.2,0.1c0,0,0,0.1,0,0.2c0.1,0,0.2,0,0.2,0c0-0.1,0-0.1,0.1-0.2c0.1-0.1,0.2-0.3,0.2-0.4
	C115.4,151.6,115.4,151.5,115.5,151.5L115.5,151.5L115.5,151.5z"/>
<path class="st2" d="M112.9,193.8c0.5-0.1,1.1-0.2,1.6-0.5c0.1,0,0.2,0,0.3,0c0.1,0.1,0.1,0.3,0.1,0.4c-0.3,0.2-0.5,0.5-0.8,0.6
	c-0.5,0.1-0.9,0.4-1.3,0.4c-0.8,0.1-1.7-0.7-1.5-1.6c0.2-1.2,0.8-2,1.7-2.7c0.4-0.4,1-0.6,1.5-0.8c0.3-0.1,0.7,0.1,0.8,0.5
	c0,0.2,0.1,0.4,0,0.5c-0.4,0.6-0.7,1.3-1.3,1.8c-0.4,0.2-0.7,0.5-1.2,0.6c-0.3,0-0.4,0.3-0.4,0.6c0.1,0.3,0.2,0.4,0.5,0.3
	C112.7,193.8,112.7,193.8,112.9,193.8z M113.3,191.2c0.1,0,0.2,0,0.3-0.1c0,0,0-0.1,0-0.2h-0.1C113.4,191,113.3,191.1,113.3,191.2
	c-0.1,0.1-0.2,0.1-0.3,0.1c0,0,0,0.1,0,0.2h0.1C113.1,191.4,113.2,191.3,113.3,191.2z"/>
<path class="st2" d="M108.2,145.1c-0.1,0.4-0.1,0.8-0.2,1.1c-0.1,0.6-0.3,1.2-0.4,1.8c-0.1,0.5-0.2,1-0.5,1.4
	c-0.1,0.1-0.1,0.2-0.1,0.3c-0.3,1.5-0.9,2.8-1.5,4.2c-0.2,0.4-0.3,0.9-0.5,1.3c-0.1,0.3-0.4,0.4-0.6,0.4c-0.2-0.1-0.4-0.4-0.3-0.6
	c0-0.1,0-0.2,0.1-0.2c0.6-0.8,0.6-1.9,1.1-2.8c0.5-0.9,0.8-1.9,1.1-2.8c0.3-1,0.5-2,0.7-2.9c0.1-0.4,0.2-0.7,0.4-1.1
	c0-0.1,0.1-0.1,0.2-0.2c0.1-0.1,0.3-0.2,0.3-0.2C108,144.8,108.1,145,108.2,145.1z"/>
<path class="st0" d="M105.6,217.8c-0.1,0-0.2-0.1-0.3-0.1c-0.5-0.2-0.8-0.6-1-1.1c-0.2-0.4-0.4-0.4-0.7-0.1c-0.3,0.3-0.7,0.5-1,0.8
	c-0.2,0.2-0.5,0.3-0.8,0.1s-0.6-0.5-0.5-0.9c0.1-0.5,0.2-0.9,0.5-1.3c0.5-0.7,1.1-1.4,1.8-1.9c0.1,0,0.1-0.1,0.2-0.1
	c0.3-0.1,0.6-0.1,0.7,0.1c0.1,0.3,0,0.6-0.2,0.7c-0.6,0.2-0.9,0.6-1.3,1c-0.2,0.2-0.3,0.5-0.5,0.8c0,0.1,0,0.1,0,0.2
	c0.1,0,0.2,0,0.2-0.1c0.2-0.4,0.7-0.5,1.1-0.7s0.8-0.1,1,0.3c0.2,0.3,0.4,0.6,0.5,0.9c0.2,0.4,0.2,0.4,0.6,0.4
	c0.2,0,0.3-0.1,0.5-0.1s0.3-0.1,0.5-0.1c0.1,0,0.3,0.1,0.4,0.2c0.1,0.2-0.1,0.3-0.2,0.4c-0.4,0.2-0.7,0.4-1,0.5
	C105.9,217.8,105.8,217.8,105.6,217.8z"/>
<path class="st2" d="M97.9,174.9c-0.2,0.2-0.4,0.5-0.5,0.7c-0.1,0.1-0.1,0.3-0.1,0.4c-0.1,0.3-0.1,0.6,0.2,0.9
	c0.2,0.2,0.5,0.1,0.8,0s0.6-0.3,0.9-0.4c0.2-0.1,0.4-0.1,0.4,0.2c0,0.1,0,0.3-0.1,0.3c-0.5,0.3-1.1,0.6-1.6,0.9
	c-0.3,0.2-0.6,0.1-0.9-0.1c-0.4-0.3-0.6-0.7-0.7-1.1v-0.1c0.2-0.5,0.3-1.1,0.5-1.6c0.6-1.1,1.7-1.8,2.9-2.2c0.2-0.1,0.3-0.1,0.5-0.1
	c0.6,0,0.8,0.3,0.6,0.8c-0.2,0.6-0.6,1-1,1.4c-0.4,0.3-0.8,0.5-1.3,0.6c-0.4,0.2-0.5,0-0.5-0.4C97.9,175.2,97.9,175,97.9,174.9
	c0.1,0,0.2,0,0.2,0c0.4-0.2,0.7-0.5,1.1-0.8c0,0,0-0.1,0.1-0.1c-0.1,0-0.1,0-0.2,0C98.5,174.1,98.1,174.4,97.9,174.9z"/>
<path class="st2" d="M55.7,161.2c-0.1-0.7,0-1.4,0.4-2c0.2-0.4,0.3-0.8,0.5-1.1c0.1-0.2,0.3-0.4,0.4-0.5c0.2-0.1,0.4-0.2,0.6,0
	c0.2,0.2,0.1,0.4,0,0.6c-0.2,0.2-0.4,0.5-0.5,0.8c-0.3,0.5-0.6,0.9-0.6,1.5c0,0.2,0,0.4,0,0.6c0,0.2,0.3,0.3,0.4,0.1
	c0.2-0.2,0.5-0.5,0.7-0.8c0.5-0.8,1-1.6,1.4-2.4c0.3-0.5,0.5-0.9,0.8-1.4c0.1-0.2,0.4-0.3,0.6-0.4c0.1,0,0.2,0,0.3,0.1
	s0.1,0.2,0.1,0.3c-0.1,0.2-0.2,0.3-0.3,0.5c-0.3,0.4-0.5,0.9-0.8,1.3c-0.6,1-1.1,1.9-1.7,2.9c-0.2,0.3-0.6,0.6-0.9,0.9
	c-0.4,0.3-0.6,0.3-1,0C55.9,161.8,55.5,161.6,55.7,161.2z"/>
<path class="st0" d="M202.3,206.3c0.1-0.5,0.1-1.1,0.4-1.6c0.8-1.2,2-1.9,3.4-2.2c0.2-0.1,0.5,0.2,0.4,0.4c-0.1,0.4-0.2,0.9-0.4,1.3
	c-0.3,0.6-0.7,1.1-1.2,1.6c-0.4,0.5-0.9,0.8-1.5,1.1C202.9,207.3,202.4,207,202.3,206.3z M205.3,203.8c-0.1,0-0.1-0.1-0.2-0.1
	c-0.2,0-0.4,0-0.5,0.1c-0.6,0.5-1.1,1-1.3,1.8c0,0.1,0,0.2,0,0.2c0.1,0,0.2,0.1,0.3,0c0.7-0.5,1.2-1.1,1.6-1.9
	C205.3,204,205.3,203.9,205.3,203.8z"/>
<path class="st2" d="M101.4,175.6c0.1-0.1,0.3-0.2,0.4-0.3c0.6-0.7,1.2-1.4,1.8-2.1c0.1-0.1,0.2-0.3,0.3-0.5
	c0.1-0.2,0.1-0.3,0.4-0.2c0.5,0.1,0.5,0.3,0.3,0.7c0,0.1,0,0.1-0.1,0.1c-1,1.3-1.8,2.7-3.4,3.5c-0.3,0.1-0.5,0.1-0.7,0
	c-0.2-0.2-0.5-0.4-0.4-0.8c0.2-0.9,0.2-1.8,1.1-2.4c0.3-0.2,0.4-0.5,0.6-0.8c0.1-0.1,0.3-0.2,0.4-0.1c0.2,0,0.3,0.3,0.3,0.5
	c0,0.3-0.2,0.5-0.4,0.7c-0.3,0.5-0.6,0.9-0.9,1.4c0,0.1,0,0.2,0,0.2C101.2,175.6,101.3,175.6,101.4,175.6z"/>
<path class="st2" d="M150.1,149.4c0,0.5-0.2,0.8-0.4,1.1c-0.4,0.6-1.1,0.9-1.8,1c-0.1,0-0.3,0-0.4-0.1c-0.3-0.1-0.5-0.5-0.2-0.8
	s0.6-0.5,0.9-0.7c0.1,0,0.3,0,0.3,0c0.2,0.4,0.3,0.3,0.5,0.1c0.3-0.3,0.3-0.5,0.1-0.7c-0.3-0.3-0.6-0.6-1-0.9
	c-0.3-0.2-0.6-0.5-0.8-0.7c-0.3-0.3-0.3-0.7-0.1-1.1c0.2-0.4,0.4-0.8,0.8-1c0.3-0.2,0.6-0.4,0.9-0.6c0.3-0.1,0.5-0.1,0.6,0.1
	c0.1,0.4,0.1,0.6-0.2,0.7c-0.1,0-0.3,0.1-0.4,0.1c-0.2,0.1-0.4,0.3-0.6,0.5c-0.4,0.4-0.4,0.6,0.1,1s1,0.8,1.3,1.3
	C149.9,149,150,149.2,150.1,149.4z"/>
<path class="st2" d="M140.3,194.3c0.1-1,0.2-1.9,0.3-2.7c0-0.4,0.4-0.5,0.7-0.2c0.4,0.3,0.4,0.3,0.6-0.1c0.6-1,1.5-1.6,2.7-1.8
	c0.5-0.1,1-0.2,1.5-0.1l0.1,0.1c0,0,0,0.1-0.1,0.1c-0.3,0.1-0.6,0.2-0.9,0.4c-0.5,0.2-0.9,0.4-1.3,0.6c-0.9,0.5-1.4,1.4-1.8,2.4
	c-0.2,0.6-0.6,1.1-0.9,1.7c-0.1,0.2-0.2,0.3-0.4,0.2c-0.1,0-0.3-0.2-0.4-0.3C140.3,194.5,140.3,194.4,140.3,194.3z"/>
<path class="st2" d="M87.9,132.2c0-0.2-0.2-0.4,0.1-0.6c0.3-0.2,0.5-0.1,0.7,0.1c0.4,0.4,0.7,0.9,0.7,1.6c0,0.9-0.3,1.7-1.2,2.2
	c-0.5,0.3-1,0.6-1.6,0.4c-0.7-0.2-1-0.8-0.8-1.5c0.2-0.8,0.8-1.4,1.2-2.2c0-0.1,0.2-0.1,0.4-0.1C87.6,132,87.8,132.1,87.9,132.2
	c0,0.4,0,0.8-0.5,1.1c-0.4,0.2-0.6,0.8-0.7,1.3c0,0.3,0.2,0.5,0.4,0.4c0.6-0.2,1.1-0.5,1.2-1.1C88.5,133.3,88.6,132.6,87.9,132.2z"
	/>
<path class="st0" d="M96.7,218.2c0-0.5,0-1,0.2-1.4c0.6-1.1,1.3-2.1,2.2-2.8c0,0,0,0,0.1-0.1c0.3-0.3,0.6-0.3,0.8,0
	c0.2,0.3,0.1,0.6-0.2,0.8c-0.6,0.4-1,0.8-1.5,1.4c-0.4,0.5-0.6,1-0.6,1.6c0,0.3,0.1,0.4,0.4,0.3c0.5-0.3,0.9-0.6,1.4-0.8
	c0.3-0.2,0.6-0.4,0.9-0.5c0.1,0,0.3,0,0.3,0.1c0.1,0.1,0,0.2-0.1,0.3c-0.1,0-0.2,0.1-0.3,0.2c-0.5,0.7-1.3,1.1-2,1.6
	C97.6,219.3,96.8,219,96.7,218.2z"/>
<path class="st0" d="M216.7,200.3c0.1,0,0.2,0,0.4,0s0.3,0.1,0.3,0.3s0,0.4,0,0.6c0,0.2-0.3,0.2-0.4,0.2c-0.6-0.3-1.2,0.1-1.2,0.7
	c0,0.2,0.1,0.5,0.1,0.7c0.2,0.6,0.5,1.2,0.8,1.8c0.3,0.5,0.1,0.9-0.2,1.2c-0.3,0.4-0.8,0.6-1.3,0.7c-0.1,0-0.3,0.1-0.4,0
	c-0.4-0.2-0.8-0.4-1.3-0.7c-0.1,0-0.1-0.1-0.1-0.2c0-0.1,0-0.2,0-0.2c0.1-0.1,0.2-0.1,0.3-0.1s0.2,0,0.2,0.1
	c0.3,0.3,0.7,0.3,1.1,0.3c0.7,0,1-0.5,0.7-1.2c-0.1-0.3-0.3-0.6-0.5-0.9c-0.2-0.3-0.3-0.7-0.4-1c-0.2-0.5-0.1-1,0.2-1.4
	C215.4,200.8,216,200.5,216.7,200.3z"/>
<path class="st2" d="M98.1,196.2c-0.6,0.1-1.2-0.6-0.9-1.2c0.3-0.8,0.7-1.5,1.3-2.1c0.3-0.3,0.7-0.5,1.1-0.7
	c0.3-0.2,0.8,0.2,0.7,0.5c-0.1,0.9-0.2,1.7-0.8,2.4C99.2,195.6,98.8,196.1,98.1,196.2z M98.9,194.2c-0.1,0-0.3,0.1-0.4,0.1
	c-0.1,0.1-0.2,0.3-0.2,0.4c0,0,0,0.1,0.1,0.1c0.2-0.1,0.4-0.3,0.5-0.5C98.8,194.3,98.9,194.3,98.9,194.2s0.1-0.2,0.1-0.4
	c0-0.1,0-0.1,0-0.2c-0.1,0-0.1,0.1-0.2,0.1C98.7,194,98.8,194.1,98.9,194.2z"/>
<path class="st2" d="M104.4,175.3c0.1-0.8,0.2-1.6,0.7-2.3c0.1-0.2,0.3-0.3,0.4-0.2c0.4,0.2,0.5-0.1,0.7-0.3
	c0.6-0.7,1.3-1.2,2.2-1.5c0.4-0.1,0.8-0.1,1.2-0.2c0.2,0,0.3,0.2,0.2,0.4c-0.1,0.1-0.2,0.2-0.3,0.2c-0.8,0.2-1.4,0.7-2.1,1.2
	c-0.8,0.6-1.2,1.6-1.7,2.4c-0.1,0.2-0.3,0.4-0.4,0.6c-0.1,0.1-0.2,0.4-0.4,0.3C104.7,175.8,104.6,175.6,104.4,175.3
	C104.4,175.4,104.4,175.3,104.4,175.3z"/>
<path class="st0" d="M191.7,187.7c-0.1,0-0.3,0-0.5,0c-0.3,0-0.4-0.2-0.5-0.5c-0.1-0.2,0-0.4,0.2-0.4s0.3,0,0.5,0
	c0.3,0,0.6-0.1,0.9-0.2c0.6-0.2,0.6-0.2,0.2-0.8c-0.3-0.6-0.7-1.2-1-1.9c-0.3-0.6,0-1.4,0.5-1.8c0.4-0.3,1.1-0.2,1.3,0.2
	c0,0.1-0.1,0.2-0.1,0.3c0,0-0.1,0-0.2,0c-0.6,0.2-0.9,0.5-0.6,1.1c0.3,0.6,0.5,1.3,1.1,1.9c0.5,0.5,0.4,0.8-0.1,1.3
	C192.9,187.4,192.4,187.6,191.7,187.7z"/>
<path class="st2" d="M91.3,131.8c0.3,0.2,0.5,0,0.7-0.3c0.4-0.7,1.1-1.2,1.7-1.7l0.1-0.1c0.2,0.2,0.5,0.3,0.6,0.6
	c0.1,0.1,0,0.4-0.2,0.5c-0.5,0.3-0.9,0.6-1.2,1c-0.3,0.5-0.6,0.9-0.8,1.5c-0.1,0.4-0.2,0.8-0.4,1.1c-0.1,0.2-0.2,0.4-0.3,0.6
	c-0.1,0.2-0.3,0.2-0.5,0s-0.3-0.4-0.3-0.7c0.1-0.7,0.1-1.3,0.1-2C90.9,132,91,131.9,91.3,131.8z"/>
<path class="st2" d="M94.7,153.2c0.2,0,0.3,0,0.4,0.1c0.3,0.1,0.3,0.5,0.1,0.6c-0.7,0.4-1.1,1-1.4,1.7c-0.1,0.1-0.1,0.2-0.2,0.4
	c-0.1,0.3-0.1,0.7-0.1,1.1c0.4,0.1,0.7-0.2,0.9-0.5c0.4-0.3,0.8-0.6,1.3-0.6c0.1,0,0.2,0,0.2,0.1s0,0.2,0,0.3
	c-0.7,0.6-1.3,1.3-2.2,1.7c-0.5,0.2-0.8,0.2-1.1-0.2c-0.1-0.1-0.2-0.3-0.2-0.5c0-0.9,0.3-1.7,0.7-2.5c0.2-0.4,0.5-0.7,0.8-1.1
	C94.2,153.4,94.5,153.3,94.7,153.2z"/>
<path class="st1" d="M74.6,253.4c0-0.1,0-0.3,0-0.4c0.2-0.7,0.2-1.3,0.2-2c0-0.2,0-0.4,0.2-0.5s0.4,0,0.5,0.2c0.3,0.3,0.3,0.3,0.6,0
	c0.4-0.4,1-0.7,1.5-0.9c0.1-0.1,0.3-0.1,0.4,0c0.1,0,0.2,0.1,0.2,0.2s-0.1,0.2-0.1,0.2c-0.2,0.2-0.5,0.4-0.8,0.5
	c-0.4,0.3-0.7,0.6-1,1c-0.3,0.5-0.7,1-0.8,1.6c-0.1,0.2-0.1,0.6-0.5,0.6c-0.3,0-0.4,0-0.5-0.3C74.7,253.6,74.7,253.5,74.6,253.4z"/>
<path class="st0" d="M177,209.9c-0.4,0.1-0.7,0-1-0.4c-0.2-0.2-0.2-0.5,0-0.7c0.1-0.2,0.3-0.2,0.4,0c0.1,0.2,0.2,0.4,0.4,0.3
	c0.3-0.1,0.5-0.2,0.5-0.6c0-0.1,0-0.3-0.1-0.4c-0.1-0.3-0.1-0.5-0.3-0.8c-0.4-0.6-0.2-1.2,0-1.8c0.3-0.6,0.6-1.1,1.2-1.4
	c0.3-0.1,0.6-0.2,0.9-0.3c0.2,0,0.3,0.2,0.2,0.3s-0.3,0.3-0.4,0.4c-1.1,0.5-1.5,1.5-1.1,2.7c0.1,0.3,0.3,0.6,0.3,0.9
	C178.4,208.9,177.8,209.8,177,209.9z"/>
<path class="st2" d="M105.2,191c0.5,0,0.7,0,0.7,0.2c0,0.4-0.3,0.3-0.5,0.4c-0.7,0.2-1.3,0.6-1.7,1.1c-0.7,0.8-1.3,1.7-1.6,2.8
	c-0.1,0.4-0.4,0.6-0.7,0.6c-0.4-0.1-0.6-0.4-0.5-0.8c0-0.2,0.2-0.4,0.2-0.5c0.1-0.3,0.3-0.7,0.4-1s0.1-0.7,0.6-0.7
	c0.1,0,0.2-0.1,0.2-0.2c0.6-0.7,1.3-1.2,2.1-1.5C104.7,191.1,105,191.1,105.2,191z"/>
<path class="st1" d="M72,253c0-0.1,0.1-0.3,0.1-0.5c0.1-0.3,0.3-0.6,0.3-0.9c0.1-0.4,0.3-0.6,0.7-0.7c0.6-0.2,1.3,0.1,1.4,0.8
	s-0.8,2.1-1.4,2.3C72.4,254.2,72.1,253.9,72,253z M73.4,252.1C73.3,252.1,73.3,252.1,73.4,252.1c-0.2,0.3-0.3,0.5-0.4,0.7h0.1
	C73.2,252.6,73.4,252.4,73.4,252.1C73.4,252.2,73.5,252.2,73.4,252.1L73.4,252.1z"/>
<path class="st2" d="M90,158.7c-0.5,0.1-0.7,0-0.8-0.2c-0.2-0.3-0.1-0.5,0.1-0.8c0.2-0.2,0.5-0.4,0.7-0.6c0.3-0.3,0.3-0.4,0-0.7
	c-0.1-0.1-0.1-0.2-0.2-0.3c-0.2-0.3-0.3-0.6-0.3-0.9c0-0.8,0.8-1.7,1.6-1.8c0.3,0,0.4,0.1,0.5,0.3s-0.1,0.4-0.3,0.4
	c-0.3,0.1-0.5,0.2-0.6,0.5s-0.1,0.7,0,1c0.1,0.2,0.2,0.5,0.4,0.7c0.3,0.4,0.3,0.8,0.1,1.2C90.8,158.2,90.4,158.6,90,158.7z"/>
<path class="st2" d="M151.2,149.8c0-0.2,0.1-0.5,0.1-0.8c0.1-1,0.5-2,0.7-3c0.1-0.3,0.3-0.4,0.6-0.4c0.2,0,0.4,0.2,0.4,0.6
	c0,0.2-0.1,0.4-0.1,0.6c-0.2,0.7-0.4,1.5-0.6,2.2c-0.1,0.3-0.1,0.4,0.3,0.4c0.3,0,0.4,0.2,0.2,0.4c-0.2,0.3-0.4,0.6-0.7,0.8
	c-0.3,0.3-0.7,0.2-0.8-0.2C151.3,150.2,151.3,150,151.2,149.8z"/>
<path class="st2" d="M88.7,154.1c-0.1,0.3-0.1,0.6-0.2,0.8c-0.2,0.6-0.4,1.3-0.6,1.9c-0.1,0.3-0.3,0.7-0.2,1.1
	c0,0.2-0.1,0.4-0.2,0.5c-0.2,0.3-0.5,0.5-0.7,0.8c-0.1,0.1-0.2,0.3-0.4,0.2c-0.2-0.1-0.4-0.3-0.3-0.5v-0.1c0.4-1.1,0.8-2.3,1.2-3.4
	c0.1-0.4,0.4-0.8,0.6-1.1c0.1-0.1,0.3-0.2,0.5-0.3C88.5,154,88.7,154.1,88.7,154.1z"/>
<path class="st0" d="M93.6,219.2c0.1-0.5,0.2-0.9,0.4-1.3c0.1-0.5,0.2-1,0.5-1.4c0.3-0.5,0.6-1.1,0.9-1.6c0.1-0.2,0.5-0.2,0.8-0.3
	c0.1,0,0.3,0.1,0.4,0.2c0,0.1,0,0.3-0.1,0.4c-0.6,0.5-0.9,1.2-1.1,1.8c-0.2,0.4-0.3,0.8-0.5,1.2c-0.1,0.1-0.1,0.3,0,0.5
	c0.1,0.3-0.1,0.5-0.2,0.8c-0.2,0.2-0.4,0.3-0.6,0.1C93.8,219.5,93.7,219.3,93.6,219.2z"/>
<path class="st2" d="M107.6,151.8c0,0.4,0.1,0.8,0,1.2c0,0.3-0.1,0.6-0.2,0.9c-0.3,0.6-0.6,1.3-1,1.8c-0.1,0.2-0.3,0.3-0.5,0.4
	c-0.1,0.1-0.3,0.2-0.4,0.1c-0.1-0.2-0.3-0.3-0.2-0.6c0.1-0.2,0.1-0.3,0.2-0.4c0.2-0.3,0.5-0.7,0.7-1c0.3-0.4,0.4-0.8,0.4-1.2
	s0-0.7,0.1-1.1c0-0.1,0.2-0.3,0.3-0.4C107.4,151.2,107.7,151.4,107.6,151.8z"/>
<path class="st0" d="M168.7,205.7c0,0.1,0,0.1,0,0.2c-0.3,0.4-0.5,0.9-0.6,1.4c-0.2,0.6-0.4,1.1-0.6,1.6c-0.1,0.2-0.1,0.3,0.1,0.5
	c0.2,0.2,0.1,0.4-0.1,0.6c-0.2,0.2-0.5,0.4-0.8,0.6c-0.3,0.2-0.6,0.1-0.6-0.3c0-0.2,0-0.4,0.1-0.6c0.2-0.5,0.5-1,0.7-1.5
	c0.2-0.6,0.4-1.2,0.6-1.7c0.2-0.6,0.5-0.9,1.1-0.9C168.6,205.6,168.7,205.7,168.7,205.7z"/>
<path class="st2" d="M142.9,115.3c0,0.2-0.1,0.4-0.1,0.7c-0.2,0.7-0.4,1.3-0.6,2c-0.2,0.6-0.5,1.2-0.7,1.8c-0.1,0.2-0.2,0.2-0.3,0.1
	c-0.2-0.2-0.4-0.4-0.2-0.7c0.4-0.7,0.4-1.5,0.7-2.3c0.1-0.4,0.3-0.8,0.4-1.2c0.1-0.2,0.2-0.4,0.3-0.5s0.3-0.2,0.4-0.2
	C142.7,115,142.8,115.2,142.9,115.3z"/>
<path class="st2" d="M96.5,156.3c0.1-0.3,0.2-0.7,0.3-1.1c0.2-0.6,0.4-1.3,0.6-1.9c0.1-0.5,0.4-0.6,0.8-0.6c0.2,0,0.4,0.1,0.3,0.4
	c-0.2,0.6-0.4,1.3-0.5,1.9c-0.1,0.5-0.3,1-0.4,1.4s-0.2,0.5-0.5,0.5C96.6,156.9,96.5,156.8,96.5,156.3z"/>
<path class="st2" d="M60.8,124.3c-0.1,1.2-0.2,2.4-0.3,3.6c0,0.2-0.1,0.3-0.3,0.2c-0.3-0.1-0.5-0.2-0.5-0.6c0.1-1,0.1-2.1,0.2-3.1
	c0-0.2,0.1-0.3,0.2-0.5c0.1-0.1,0.2-0.3,0.4-0.3s0.3,0.2,0.3,0.4C60.7,124.1,60.7,124.2,60.8,124.3
	C60.7,124.3,60.8,124.3,60.8,124.3z"/>
<path class="st2" d="M65.5,192.2c-0.1,1.1-0.2,2.2-0.3,3.2c0,0.2-0.1,0.4-0.4,0.5c-0.2,0-0.6-0.2-0.6-0.5c0-0.1-0.1-0.2,0-0.3
	c0.3-0.8,0.2-1.6,0.3-2.5c0-0.2,0.1-0.4,0.1-0.6c0.1-0.2,0.5-0.3,0.7-0.2C65.4,191.9,65.5,192.1,65.5,192.2z"/>
<path class="st2" d="M152.6,141.2c-0.1-0.5,0.3-1.2,0.8-1.3c0.3-0.1,0.6-0.1,0.9-0.1c0.4,0,0.7,0.3,0.6,0.7
	c-0.1,0.3-0.2,0.5-0.4,0.7s-0.6,0.4-0.8,0.5C153.1,141.9,152.7,141.7,152.6,141.2z"/>
<path class="st1" d="M71.5,240.9c0-0.2,0.1-0.4,0.2-0.7c0.3-0.5,0.6-1,1.2-1.1c0.4-0.1,0.5,0,0.5,0.4c0,0.9-0.5,1.5-1.4,1.8
	C71.7,241.6,71.6,241.4,71.5,240.9z"/>
<path class="st0" d="M189.7,178.6c-0.1,0.2-0.1,0.5-0.3,0.7s-0.4,0.4-0.7,0.6c-0.5,0.3-1,0.2-1.2-0.3c-0.1-0.2-0.2-0.3-0.3-0.5
	c-0.2-0.3-0.2-0.3,0.2-0.4c0.3-0.1,0.6-0.3,0.9-0.5c0.4-0.2,0.8-0.2,1.1,0.2C189.6,178.4,189.6,178.5,189.7,178.6z"/>
<path class="st2" d="M97.2,147.4c0-0.4,0-0.7,0.2-0.9s0.4-0.5,0.6-0.8c0.1-0.2,0.3-0.3,0.5-0.4c0.1-0.1,0.4-0.1,0.4,0
	c0.2,0.1,0.3,0.4,0.1,0.6c-0.3,0.3-0.4,0.7-0.4,1.1c0,0.2-0.2,0.5-0.4,0.7c-0.2,0.2-0.4,0.4-0.6,0.3
	C97.4,147.9,97.2,147.7,97.2,147.4z"/>
<path class="st0" d="M169.5,201.1c0,0,0,0.1-0.1,0.2c-0.3,0.5-0.8,0.7-1.3,0.9c-0.3,0.1-0.6,0-0.8-0.3c-0.1-0.1-0.1-0.2-0.1-0.2
	c0.2-0.4,0.3-0.8,0.5-1.1c0-0.1,0.2-0.1,0.4-0.1s0.4,0,0.7-0.1C169.2,200.5,169.4,200.6,169.5,201.1z"/>
<path class="st0" d="M98.5,209.2c0,0.4,0,0.8-0.4,1.1c-0.2,0.1-0.3,0.3-0.5,0.4c-0.4,0.3-0.8,0.2-1-0.3c-0.1-0.3-0.1-0.6,0.1-0.9
	c0.2-0.2,0.5-0.3,0.4-0.7c0-0.1,0.2-0.2,0.4-0.2C98,208.6,98.5,208.9,98.5,209.2z"/>
<path class="st0" d="M205.8,197.7c-0.5,0-1-0.2-1-0.6c0-0.6,0.4-1.1,1-1.1c0.5,0,0.9,0.3,1,0.5c0.1,0.5-0.3,0.6-0.5,0.9
	C206.1,197.6,205.9,197.7,205.8,197.7z"/>
<path class="st0" d="M219.2,206.9c-0.1,0.1-0.1,0.4-0.3,0.5c-0.2,0.2-0.4,0.4-0.7,0.6c-0.2,0.2-0.5,0.2-0.7,0.1
	c-0.3-0.2-0.4-0.6-0.2-0.8c0.3-0.3,0.6-0.7,1-0.9C218.6,206.2,219.1,206.4,219.2,206.9z"/>
<path d="M114.2,131.6c-0.1,0.1-0.1,0.4-0.3,0.5c-0.2,0.2-0.4,0.4-0.7,0.6c-0.2,0.2-0.5,0.2-0.7,0.1c-0.3-0.2-0.4-0.6-0.2-0.8
	c0.3-0.3,0.6-0.7,1-0.9C113.6,130.9,114.1,131.2,114.2,131.6z"/>
<path class="st2" d="M71.7,149.2c0,0.4-0.1,0.7-0.3,1c-0.2,0.3-0.4,0.4-0.7,0.3c-0.3-0.1-0.5-0.3-0.5-0.6c-0.1-0.4,0.5-1.4,0.9-1.5
	c0.1,0,0.3,0.1,0.4,0.2C71.6,148.8,71.7,149,71.7,149.2z"/>
<path class="st2" d="M70.2,158.2c0,0-0.2,0-0.2-0.1s0-0.3,0.1-0.4c0.5-0.6,1.2-0.7,1.9-0.8c0.1,0,0.3,0.2,0.5,0.3l0.1,0.2
	c-0.1,0.2-0.3,0.4-0.4,0.5C71.4,158,70.9,158,70.2,158.2z"/>
<path class="st2" d="M112.2,146c0.1,0,0.7,0.3,0.8,0.4c0.1,0.2-0.1,0.6-0.3,0.7c-0.2,0.1-0.4,0.2-0.5,0.3c-0.2,0.2-0.5,0.2-0.7,0
	c-0.1-0.2-0.2-0.5-0.2-0.7C111.3,146.4,111.8,146,112.2,146z"/>
<path class="st2" d="M163.7,169.6c0-0.3,0.2-0.6,0.5-0.7c0.2,0,0.6,0.3,0.6,0.5c0,0.3-0.3,0.5-0.7,0.6
	C163.9,170.1,163.7,169.9,163.7,169.6z"/>
<path class="st0" d="M216.7,201.9C216.6,201.9,216.6,201.9,216.7,201.9C216.6,201.8,216.7,201.8,216.7,201.9L216.7,201.9z"/>
<path class="st3" d="M63.5,253.8C63.5,253.7,63.5,253.7,63.5,253.8C63.5,253.7,63.5,253.7,63.5,253.8
	C63.5,253.7,63.5,253.7,63.5,253.8C63.5,253.7,63.5,253.8,63.5,253.8z"/>
<g>
	<path class="st1" d="M73.8,281.2c-0.1,0.6-0.3,1.2-0.7,1.7c-0.5,0.5-1,0.6-1.6,0.5c-0.4-0.1-0.8-0.7-0.7-1.2
		c0.1-0.5,0.2-0.9,0.4-1.4c0.1-0.2,0.3-0.5,0.4-0.7c0.2-0.2,0.4-0.4,0.7-0.4c0.1,0,0.3,0,0.4,0c0.7-0.2,1.2,0.2,1.3,0.9
		C73.9,280.8,73.8,281,73.8,281.2z M73.1,280.9c0-0.1,0-0.3-0.1-0.4c-0.1-0.3-0.3-0.4-0.6-0.1c-0.4,0.4-0.8,0.8-1,1.5
		c-0.1,0.2,0.1,0.6,0.3,0.8c0.2,0.1,0.4,0,0.5-0.1s0.2-0.2,0.3-0.3C72.9,281.7,73,281.3,73.1,280.9z"/>
	<g>
		<path class="st1" d="M177.8,265.7c-0.2,0.3-0.5,0.6-0.7,1c-0.5,0.9-1.1,1.8-1.4,2.8c-0.2,0.6-0.5,1.1-0.7,1.6
			c0,0.1-0.2,0.1-0.3,0.1c-0.3-0.1-0.4-0.3-0.5-0.6c0-0.1,0-0.3,0.1-0.4c0.2-0.7,0.2-1.5,0.3-2.2c0-0.4,0.1-0.7,0.2-1.1
			c0-0.2,0-0.4,0.1-0.6c0,0-0.1-0.1-0.1,0c-0.4,0.6-0.9,1.2-1.2,1.8c-0.5,1.1-0.9,2.1-1.2,3.3c0,0.2-0.2,0.3-0.3,0.4
			c-0.3,0.3-0.6,0.1-0.7-0.1c-0.1-0.2-0.1-0.4-0.1-0.6c0.2-0.9,0.4-1.8,0.5-2.7c0-0.1,0-0.1,0-0.2s-0.1-0.1-0.1-0.1l-0.1,0.1
			c-0.6,0.9-1.3,1.8-1.9,2.7c-0.1,0.2-0.3,0.4-0.2,0.7c0,0.1,0,0.2,0,0.3c-0.4,1.4-0.7,2.8-1,4.2c-0.1,0.5-0.3,1-0.4,1.5
			c-0.2,0.7-0.3,1.3-0.5,2c-0.1,0.3-0.2,0.6-0.4,0.9c-0.3,0.8-0.6,1.7-1.1,2.4c-0.2,0.4-0.4,0.7-0.9,0.6s-1-0.3-1.1-0.9
			c-0.2-0.6-0.1-1.2-0.1-1.9c0.1-1.4,0.6-2.7,1.1-4c0.3-0.7,0.6-1.3,0.9-2c0.2-0.4,0.5-0.6,0.6-1c0.4-0.8,1-1.4,1.5-2.1
			c0-0.1,0.1-0.2,0.1-0.2c-0.1,0-0.2,0-0.3,0.1c-0.1,0-0.1,0.1-0.1,0.1c-0.6,0.5-1.3,0.3-1.5-0.4c-0.1-0.3-0.2-0.7,0-1
			c0.2-0.5,0.4-1.1,0.8-1.5c0.4-0.5,0.8-1,1.3-1.5c0.4-0.4,0.8-0.6,1.3-0.7s0.8,0.2,0.7,0.7s-0.2,0.9-0.3,1.4c0,0.1,0,0.2,0,0.2
			c0.1,0,0.2-0.1,0.2-0.1c0.5-0.7,1-1.4,1.4-2.1c0.2-0.3,0.4-0.4,0.7-0.4c0.4,0.1,0.5,0.2,0.5,0.7c0,0.2,0,0.4,0,0.5
			c0.1-0.1,0.3-0.3,0.4-0.4c0.4-0.9,1.1-1.4,1.7-2.1c0.2-0.2,0.4-0.3,0.7-0.2c0.2,0.1,0.2,0.4,0.2,0.6c-0.1,0.7-0.2,1.3-0.2,2
			c0,0.1,0,0.1,0.1,0.2c0.1,0,0.1-0.1,0.1-0.1s0,0,0-0.1c0.5-1.2,1.3-2.1,2.1-3.1c0.2-0.2,0.4-0.2,0.6-0.2c0.3,0,0.3,0.2,0.3,0.4
			c0,0.3-0.1,0.6-0.1,0.9c-0.1,0.8-0.3,1.6-0.4,2.3c0,0.1,0,0.2,0,0.2c0.1,0,0.2-0.1,0.3-0.1c0.3-0.6,0.7-1,1.3-1.4
			c0.1,0,0.1-0.1,0.2-0.1c0.5-0.3,0.9-0.1,0.9,0.5s0.2,1.1,0.3,1.6c0,0.2,0.2,0.3,0.5,0.4s0.4,0.3,0.3,0.7c-0.2,0.4-0.3,0.5-0.7,0.3
			c-0.2-0.1-0.5-0.4-0.7-0.5s-0.2-0.1-0.3,0.1c-0.2,0.3-0.5,0.6-0.7,0.9s-0.4,0.4-0.7,0.5s-0.6,0.1-0.8-0.1c-0.1-0.2-0.2-0.1-0.3,0
			s-0.1,0.2-0.2,0.3c-0.1,0.1-0.3,0.3-0.5,0.2c-0.2-0.1-0.4-0.3-0.3-0.6c0.1-0.4,0.2-0.7,0.3-1.1c0.4-1,0.6-2,0.7-3
			C177.8,266.1,177.9,265.9,177.8,265.7C177.9,265.7,177.9,265.7,177.8,265.7z M164.7,280.2c0,0.6-0.1,1.2,0,1.8
			c0,0.2,0.2,0.4,0.4,0.6c0.1-0.1,0.3-0.2,0.4-0.3c0.1-0.1,0.2-0.3,0.2-0.4c0.3-0.6,0.6-1.2,0.8-1.8c0.2-0.7,0.5-1.3,0.6-2
			c0.5-1.7,0.9-3.5,1.3-5.2c0-0.1,0-0.2,0-0.2c-0.1,0-0.1,0.1-0.2,0.1c-0.4,0.5-0.8,1-1.1,1.6c-0.7,1.4-1.4,2.7-1.9,4.2
			C165,279.1,164.9,279.6,164.7,280.2z M167.1,270c0,0.3,0,0.4,0,0.5c0.1,0.2,0.2,0.3,0.2,0.4c0.1-0.1,0.3-0.2,0.3-0.3
			c0.4-0.6,0.8-1.2,1.2-1.9c0.2-0.4,0.4-0.8,0.6-1.2c0-0.1,0-0.2-0.1-0.2c0,0-0.1,0-0.2,0c-0.1,0-0.1,0.1-0.2,0.2
			c-0.5,0.6-1.1,1.2-1.6,1.8C167.3,269.5,167.2,269.8,167.1,270z M179.9,267.8c0-0.1-0.1-0.2-0.1-0.3c-0.1,0.1-0.2,0.1-0.2,0.2
			c-0.2,0.5-0.4,0.9-0.6,1.4c0,0.1,0,0.2,0,0.2c0.1,0,0.2,0,0.3-0.1s0.1-0.2,0.2-0.3C179.6,268.7,179.8,268.3,179.9,267.8z
			 M168.8,270.7c0-0.1,0-0.2,0-0.2h-0.1c-0.1,0.1-0.2,0.3-0.3,0.4v0.1c0.1,0,0.1,0,0.2,0C168.6,270.9,168.7,270.8,168.8,270.7z
			 M178.2,268.6L178.2,268.6C178.2,268.7,178.2,268.7,178.2,268.6C178.2,268.7,178.2,268.7,178.2,268.6
			C178.3,268.7,178.3,268.6,178.2,268.6z"/>
		<path class="st1" d="M121.9,275.8c0,0-0.2-0.1-0.3-0.2c-0.2-0.2-0.3-0.1-0.4,0.1s-0.3,0.5-0.5,0.7c-0.6,0.6-1.3,0.9-2.1,1.1
			c-0.4,0.1-0.9,0-1.1-0.4c-0.1-0.2-0.2-0.2-0.4-0.1c-0.2,0.1-0.4,0.2-0.6,0.2c-0.4,0-0.8-0.4-0.8-0.8c0-0.3,0-0.6,0-0.9
			c0-0.2,0.1-0.4,0.2-0.6c0-0.2,0-0.3,0.1-0.5c-0.1,0.1-0.3,0.2-0.4,0.3c-0.4,0.5-0.7,1-1,1.5c-0.3,0.6-0.6,1.3-0.9,1.9
			c-0.1,0.2-0.2,0.4-0.3,0.6c-0.1,0.2-0.2,0.3-0.4,0.2c-0.2-0.1-0.3-0.2-0.3-0.4c0-0.1,0-0.2,0.1-0.3c0.2-0.5,0.3-1,0.5-1.5
			c0.3-0.8,0.4-1.6,0.5-2.4c0-0.2-0.1-0.3-0.3-0.2c-0.6,0.3-1.1,0.6-1.7,1c-0.2,0.1-0.3,0.5-0.4,0.7c-0.4,1.1-0.7,2.2-1.2,3.2
			c0,0.1-0.1,0.2-0.2,0.3c-0.1,0.1-0.3,0.1-0.4,0c-0.4-0.2-0.5-0.4-0.3-0.8c0.3-0.6,0.6-1.3,0.8-2c0-0.1,0.1-0.3,0.1-0.4
			s0-0.2,0-0.3c-0.1,0-0.1,0-0.2,0c-0.3,0.1-0.5,0.2-0.8,0.4c-0.3,0.2-0.6,0.3-0.9,0.3c-0.1,0-0.3,0.1-0.3,0.2
			c-0.2,0.3-0.3,0.7-0.4,1.1c-0.2,0.6-0.3,1.2-0.5,1.7c-0.1,0.3-0.2,0.4-0.4,0.4c-0.2,0-0.5-0.2-0.5-0.3c-0.1-0.2,0-0.6,0.1-0.8
			c0.2-0.6,0.5-1.3,0.8-1.9c0.2-0.4,0.3-0.9,0.5-1.3s0.6-0.5,1-0.2c0.1,0.1,0.3,0.1,0.3,0.1c0.6-0.3,1.2-0.6,1.8-0.9
			c0.2-0.1,0.3-0.3,0.4-0.4c0.2-0.7,0.4-1.3,0.5-2c0.3-1,0.5-2.1,1-3c0,0,0,0,0-0.1c0.2-0.3,0.5-0.5,0.6-0.4
			c0.2,0.1,0.2,0.3,0.2,0.7c0,0.2,0,0.3-0.1,0.4c-0.5,0.7-0.6,1.6-0.8,2.4c-0.1,0.5-0.3,0.9-0.5,1.3c0,0.1,0,0.2,0,0.2
			c0.1,0,0.1,0,0.2-0.1c0.4-0.3,0.9-0.6,1.3-0.8c0.2-0.1,0.4-0.1,0.6-0.1s0.3,0.1,0.3,0.3c0,0.4,0.1,0.8,0.2,1.2
			c0,0.1,0.1,0.3,0.2,0.1c0.3-0.3,0.7-0.6,1-0.9c0.1-0.1,0.2-0.2,0.3-0.2c0.5-0.2,0.9,0,0.9,0.6c0,0.3,0,0.5-0.1,0.8
			c-0.1,0.4-0.1,0.7-0.2,1.1c0,0.1,0,0.1,0.1,0.2c0.1,0,0.2,0,0.2,0c0.1-0.1,0.2-0.3,0.2-0.4c0.1-0.8,0.6-1.4,1.1-2
			c0.3-0.3,0.6-0.7,1-0.8c0.2-0.1,0.5-0.2,0.7-0.2c0.4-0.1,0.6,0.2,0.5,0.6c-0.1,0.2-0.2,0.4-0.3,0.6c-0.6,0.8-1.2,1.5-1.8,2.3
			c-0.1,0.1-0.3,0.3-0.2,0.5c0.2,0.2,0.4,0.3,0.6,0.3c0,0,0,0,0.1,0c0.6-0.4,1.3-0.5,1.7-1.1c0.3-0.3,0.5-0.6,0.3-1
			c-0.1-0.2,0-0.4,0-0.6c0.1-0.2,0.2-0.4,0.5-0.3c0.3,0,0.3,0.2,0.3,0.4c0,0.1,0,0.3,0.1,0.4c0.2,0.5,0.6,0.7,1,0.5
			c0.1,0,0.1-0.2,0.2-0.3c0.2-0.5,0.4-1.1,0.7-1.6c0.1-0.3,0.3-0.6,0.5-0.9c0.1-0.2,0.3-0.2,0.5-0.1c0.3,0.1,0.2,0.3,0.1,0.4
			c-0.4,1.3-0.7,2.5-1.3,3.7c-0.3,0.6-0.6,1.3-0.8,2c-0.2,0.8-0.6,1.4-0.8,2.1c-0.3,0.8-0.7,1.6-1,2.4c-0.4,0.9-0.8,1.9-1.3,2.8
			c-0.2,0.5-0.6,0.9-0.9,1.3c-0.1,0.1-0.3,0.1-0.3-0.1s0-0.4,0.1-0.5c0.5-0.5,0.6-1.2,0.9-1.9c0.5-1,1-2,1.3-3.1
			c0.3-0.8,0.6-1.5,0.9-2.3c0.1-0.4,0.2-0.8,0.3-1.1c0.2-0.5,0.4-1,0.5-1.4c0.1-0.3,0.1-0.4-0.3-0.4
			C122.1,275.8,122,275.8,121.9,275.8z"/>
		<path class="st1" d="M85.7,266c0,0.4,0,0.7,0,1.1c-0.1,0.9-0.3,1.9-0.5,2.8c-0.3,1.3-0.7,2.6-1.1,3.9c-0.3,0.9-0.5,1.8-1,2.7
			c-0.1,0.2,0,0.3,0.2,0.3s0.4-0.2,0.5,0.2c0,0.2-0.2,0.2-0.4,0.2c-0.3,0.2-0.7,0.3-0.8,0.8c-0.2,0.6-0.4,1.2-0.8,1.7
			c-0.7,0.8-1.3,1.7-2.1,2.5c-0.2,0.2-0.5,0.4-0.8,0.4s-0.6,0-0.8-0.3c-0.2-0.3-0.3-0.7-0.1-1c0.3-0.4,0.4-0.9,0.8-1.2
			c0.3-0.3,0.6-0.5,0.7-1c0-0.1,0.2-0.2,0.2-0.2c0.3,0.1,0.5,0.2,0.7,0.3c0.2,0.1,0.2,0.2,0,0.4c-0.5,0.3-1,0.7-1.3,1.2
			c0,0.1-0.1,0.1-0.1,0.2c-0.1,0.2-0.1,0.4-0.2,0.5c0.2-0.1,0.4-0.2,0.5-0.3c0.8-0.8,1.5-1.7,2.1-2.7c0-0.1,0.1-0.2,0.1-0.2
			c0.1-0.2,0.1-0.4,0.2-0.6c-0.2,0.1-0.4,0.1-0.6,0.2c-0.7,0.3-1.5,0.4-2.2,0.4c-0.3,0-0.5,0-0.7,0.3c-0.1,0.2-0.5,0.3-0.8,0.5
			c-0.6,0.3-1,0.8-1.3,1.4c-0.4,0.8-0.8,1.5-1.2,2.3c-0.1,0.2-0.2,0.4-0.3,0.5c-0.2,0.2-0.4,0.2-0.6,0c-0.1-0.2-0.3-0.4-0.1-0.7
			c0.4-0.8,0.6-1.6,0.7-2.4c0-0.2,0.2-0.4,0.4-0.3c0.3,0,0.5-0.1,0.7-0.4c0.4-0.4,0.8-0.7,1.2-1.1c0.1-0.1,0.1-0.1,0.1-0.2
			c-0.1,0-0.1-0.1-0.2-0.1c-1-0.1-1.4-0.9-1.9-1.6c-0.1-0.7-0.3-1.4-0.1-2.1c0.2-0.6,0.4-1.3,0.7-1.8c0.5-1.1,1.2-2.1,1.9-3
			c1-1.2,2-2.4,3.2-3.3c0.7-0.6,1.5-1.1,2.4-1.6c0.4-0.2,0.8-0.4,1.3-0.3C85.4,264.4,85.8,265.1,85.7,266z M78,277.4
			c1.4,0.3,2.7-0.2,4-0.5c0.2-0.1,0.3-0.2,0.4-0.5c0.4-1.1,0.9-2.3,1.2-3.4c0.3-0.9,0.6-1.9,0.8-2.8c0.1-0.6,0.2-1.2,0.3-1.8
			c0.2-0.9,0.3-1.8,0.3-2.7c0-0.6-0.2-0.8-0.8-0.8c-0.3,0-0.6,0.1-0.9,0.3c-0.7,0.3-1.3,0.7-1.8,1.2c-0.6,0.6-1.3,1.1-1.9,1.7
			c-0.9,1-1.8,2-2.5,3.3c-0.4,0.7-0.9,1.4-1.2,2.2c-0.3,0.7-0.3,1.4-0.2,2.2c0,0.2,0.2,0.5,0.3,0.7C76.6,277.2,77.3,277.4,78,277.4z
			"/>
		<path class="st1" d="M165.4,263.7c-0.2,1.4-0.3,2.7-0.7,3.9c-0.2,0.6-0.4,1.2-0.7,1.8c-0.4,0.7-0.9,1.4-1.4,2c0,0,0,0.1,0,0.2
			c0.1,0,0.1,0,0.2-0.1c0.1-0.1,0.2-0.1,0.3-0.2c0.1,0,0.2,0,0.3,0c0,0.1,0,0.2-0.1,0.3c-0.7,0.9-1.6,1.8-2.6,2.4
			c-0.5,0.4-1.1,0.4-1.7,0.2c-1.1-0.4-1.8-1.2-2-2.4c-0.2-1.4,0.1-2.6,0.5-3.9c0.3-0.8,0.6-1.6,0.9-2.4c0.1-0.2,0.2-0.5,0.4-0.7
			c0.9-1.6,1.7-3.3,3-4.6c0.5-0.5,1-1,1.7-1.3c0.6-0.2,1,0.1,1.5,0.3c0.1,0.1,0.2,0.3,0.2,0.5c0.2,0.7,0.2,1.4,0.1,2.2
			C165.4,262.6,165.4,263.2,165.4,263.7z M164.6,265c0.1-1.4,0.2-2.5,0.2-3.6c0-0.5-0.1-1-0.2-1.4c-0.1-0.3-0.4-0.5-0.6-0.5
			c-0.3,0.1-0.6,0.2-0.9,0.5c-0.8,0.7-1.5,1.6-2.1,2.4c-0.5,0.7-0.9,1.5-1.3,2.3c-0.5,1-0.9,2-1.3,3c-0.3,0.8-0.6,1.6-0.6,2.5
			c0,1,0,2,0.7,2.7c0.3,0.4,1.3,0.6,1.7,0.4c0.6-0.4,1.2-0.8,1.8-1.3l0.1-0.1c0.1-0.1,0-0.1-0.1-0.2c-0.4-0.1-0.7-0.2-0.9-0.7
			s-0.3-0.5-0.7-0.2c0,0-0.1,0-0.1,0.1c-0.5,0.3-0.8,0.2-1-0.4c-0.1-0.5,0.1-0.8,0.3-1.2c0.3-0.5,0.7-0.8,1.1-1.3
			c0.3-0.3,0.8-0.4,1.2-0.2c0.4,0.2,0.1,0.5,0.1,0.8c0,0.1-0.1,0.3-0.1,0.4c-0.1,0.4-0.1,0.8-0.2,1.3c0,0.2,0.2,0.3,0.4,0.2
			c0.1-0.1,0.2-0.2,0.3-0.3c0.6-0.8,1.1-1.6,1.4-2.5C164.3,266.8,164.4,265.7,164.6,265z"/>
		<path class="st1" d="M200.7,266.1c-0.1,0.3-0.2,0.6-0.3,0.8c-0.2,0.5-0.6,0.8-0.9,1.2c-0.3,0.5-0.7,0.6-1.1,0.7
			c-0.5,0.1-0.9,0-1.3-0.3c-0.2-0.2-0.3-0.2-0.5,0c-0.5,0.3-1.1,0.7-1.7,0.9c-0.8,0.3-1.5,0.2-2.1-0.4c-0.3-0.3-0.4-0.7-0.4-1.1
			c0.1-0.6,0.3-1.3,0.8-1.7c0.2-0.2,0.3-0.3,0.5-0.5c0.3-0.5,0.9-0.7,1.3-1c0.3-0.2,0.6-0.1,0.9,0c0.2,0,0.3,0.5,0.2,0.7
			s-0.2,0.3-0.4,0.2c-0.7-0.3-1.1,0.1-1.4,0.6c-0.3,0.3-0.5,0.7-0.7,1s-0.2,0.6-0.1,0.8c0.1,0.4,0.4,0.7,0.9,0.6
			c0.4-0.1,0.8-0.3,1.2-0.5s0.7-0.4,1.1-0.6c0.2,0,0.2-0.1,0.2-0.3c0.1-0.6,0.4-1,0.6-1.5c0.3-0.5,0.8-0.8,1.3-0.9
			c0.1,0,0.2,0,0.3-0.1c0.1,0,1,0.1,1.1,0.2s0.2,0.1,0.3,0c0.3-0.3,0.7-0.3,0.9,0.1c0.1,0.3,0.2,0.6,0.3,0.9c0,0.1,0.1,0.2,0.1,0.2
			c0.1,0,0.2,0,0.2-0.1c0.3-0.3,0.5-0.7,0.8-1c0.3-0.4,0.7-0.8,1.1-1.2c0.1-0.1,0.2-0.2,0.3-0.3c0.2-0.1,0.5-0.2,0.7-0.1
			s0.2,0.4,0.2,0.7c0,0.1,0,0.2,0,0.3c0,0.1,0.1,0.2,0.1,0.2s0.1,0,0.2-0.1c0.3-0.3,0.6-0.6,0.9-1c0.4-0.5,0.9-0.8,1.4-1
			c0.4-0.1,0.7,0.1,0.7,0.5c0,0.5,0,1-0.1,1.5c0,0.2,0,0.5,0.1,0.7c0.1,0.5-0.3,0.9-0.7,0.9c-0.1,0-0.2,0-0.2-0.1
			c-0.1-0.2-0.3-0.4-0.2-0.7c0.1-0.4,0.2-0.9,0.2-1.4c0-0.1,0-0.2-0.1-0.3c-0.1,0-0.2,0-0.3,0.1c-0.5,0.6-1.1,1.3-1.6,1.9
			c-0.2,0.2-0.3,0.5-0.5,0.8c-0.1,0.1-0.3,0.2-0.4,0.3c-0.2,0.1-0.3,0-0.3-0.2s-0.1-0.4-0.1-0.6c0-0.3,0-0.7,0.1-1
			c0-0.1,0-0.1,0-0.2c-0.1,0-0.1,0-0.2,0.1c-0.3,0.3-0.5,0.6-0.8,1s-0.7,0.9-0.9,1.4c0,0.1-0.1,0.1-0.1,0.2
			c-0.4,0.4-0.7,0.4-0.9-0.2c-0.1-0.2-0.1-0.5-0.2-0.7C200.9,266.4,200.8,266.3,200.7,266.1z M197.7,267.4c0.1,0.1,0.1,0.4,0.2,0.5
			c0.2,0.2,0.4,0,0.6-0.1c0.5-0.3,0.8-0.8,1.1-1.3c0.1-0.1,0.1-0.4,0.1-0.6c0,0-0.3,0-0.4-0.1c-0.3-0.4-0.6-0.2-0.9,0
			C198,266.2,198,266.8,197.7,267.4z"/>
		<path class="st1" d="M103.6,267.6c-0.3,1.8-0.5,3.5-0.8,5.3c-0.2,1.4-0.6,2.8-1,4.2c-0.1,0.3-0.1,0.7-0.2,1c0,0.1,0,0.1,0.1,0.2
			c0.1,0,0.1,0,0.2-0.1c0.5-0.6,0.9-1.1,1.4-1.7s1-1.2,1.6-1.7c0.1-0.1,0.2-0.2,0.3-0.2c0.3-0.2,0.6,0,0.6,0.4s-0.1,0.8-0.2,1.2
			c-0.2,0.7-0.4,1.4-0.6,2.1c0,0.2-0.1,0.4,0,0.6c0.1,0.6-0.2,1-0.4,1.5c-0.1,0.2-0.4,0.3-0.5,0c-0.1-0.1-0.2-0.3-0.2-0.4
			c0.1-0.5,0-1,0.3-1.5c0.1-0.1,0.2-0.3,0-0.5c0,0,0-0.1,0-0.2c0.4-0.4,0.3-1.1,0.5-1.6c0,0,0-0.1,0-0.2c-0.1,0-0.1,0.1-0.2,0.1
			c-0.2,0.2-0.4,0.4-0.6,0.7c-0.3,0.5-0.6,1-1.1,1.4c-0.4,0.4-0.6,0.8-1,1.3c-0.2,0.3-0.5,0.5-0.8,0.7c-0.2,0.2-0.4,0.1-0.5-0.1
			c-0.1-0.3-0.1-0.6-0.1-0.8c0-0.3,0.2-0.6,0.3-1c0.2-0.9,0.4-1.8,0.7-2.7c0.1-0.4,0.2-0.8,0.2-1.2c0.3-1.2,0.6-2.4,0.7-3.6
			c0.2-1.6,0.5-3.3,0.6-4.9c0-0.1,0-0.2,0-0.3c0-0.2,0.1-0.3,0.3-0.4c0.2,0,0.4,0.1,0.4,0.3c0,0.1,0,0.2,0,0.3
			C103.7,266.4,103.7,267,103.6,267.6L103.6,267.6z"/>
		<path class="st1" d="M147.8,265.4c-0.2,0.8-0.4,1.6-0.5,2.3c0,0.1,0,0.2,0,0.3c0.1,0,0.2,0,0.4,0c0.6-0.2,1.1-0.3,1.7-0.5
			c0.1,0,0.3-0.1,0.4,0c0.3,0,0.5,0.3,0.4,0.6c-0.4,1.2-0.8,2.3-1.1,3.5c-0.1,0.4-0.1,0.8-0.2,1.2c0,0.2-0.1,0.4-0.2,0.6
			c-0.1,0.2-0.4,0.3-0.6,0.1c-0.2-0.2-0.2-0.4-0.2-0.6c0.1-0.6,0.2-1.3,0.4-1.9c0.2-0.7,0.4-1.3,0.7-2c0-0.1,0-0.2,0.1-0.3
			c0-0.2-0.1-0.2-0.2-0.1c-0.5,0.2-1,0.4-1.6,0.5c-0.2,0.1-0.3,0.2-0.3,0.4c-0.2,0.5-0.3,1.1-0.5,1.6c-0.1,0.4-0.2,0.7-0.3,1.1
			c-0.1,0.2-0.1,0.4,0,0.6c0.1,0.3-0.1,0.6-0.2,0.8c-0.1,0.2-0.3,0.3-0.5,0.2c-0.2-0.1-0.3-0.3-0.3-0.5c0.1-0.4,0.1-0.8,0.3-1.2
			c0.1-0.6,0.3-1.1,0.5-1.7c0.1-0.3,0.2-0.5,0.3-0.8c0.1-0.2,0-0.3-0.2-0.3c-0.5,0.2-1.1,0.3-1.6,0.7c-0.3,0.3-0.5,0.2-0.6,0.1
			c-0.1-0.2-0.1-0.4,0.2-0.6c0.5-0.5,1.1-0.7,1.7-0.9c0.1,0,0.2,0,0.3-0.1c0.4-0.1,0.6-0.2,0.7-0.7c0.2-1.2,0.5-2.3,0.6-3.5
			c0.1-0.6,0.2-1.1,0.3-1.7c0-0.2,0.1-0.4,0.4-0.4c0.2,0,0.5,0.2,0.4,0.5c-0.1,0.6,0,1.1-0.3,1.7
			C147.8,264.8,147.8,265.1,147.8,265.4L147.8,265.4z"/>
		<path class="st1" d="M132.2,274.5c0.2-1.1,0.4-2.2,0.6-3.3c0-0.1,0-0.2-0.1-0.2s-0.2,0-0.2,0.1c-0.5,0.5-0.9,1-1.3,1.6
			c-0.3,0.5-0.6,1-0.8,1.6c-0.1,0.4-0.3,0.9-0.7,1.2c-0.3,0.2-0.6,0.1-0.7-0.2c0-0.2-0.1-0.4,0-0.7c0-0.6,0.1-1.1,0.1-1.7
			c0-0.1,0-0.2,0-0.3c-0.1,0-0.2,0.1-0.3,0.1c-0.7,0.8-1.2,1.7-1.6,2.6c-0.1,0.2-0.2,0.5-0.4,0.7c-0.1,0.2-0.3,0.4-0.6,0.2
			c-0.2-0.1-0.4-0.3-0.3-0.6c0.1-0.4,0.2-0.7,0.3-1.1c0.2-0.8,0.4-1.7,0.9-2.4c0.1-0.1,0.2-0.2,0.3-0.2s0.2,0.1,0.3,0.2
			c0,0.1,0,0.2,0.1,0.3c0,0.1,0,0.1,0,0.2c0.1,0,0.1,0,0.2-0.1c0.3-0.4,0.6-0.7,0.9-1.1c0.1-0.2,0.3-0.2,0.5-0.2s0.4,0.1,0.4,0.3
			c0,0.3,0.1,0.5,0.1,0.8c0,0.1,0.1,0.3,0.1,0.4c0.1-0.1,0.2-0.2,0.3-0.3c0.5-0.8,1.1-1.6,1.9-2.2c0.3-0.2,0.5-0.5,0.8-0.7
			c0.1-0.1,0.3,0,0.4,0c0.3,0.1,0.3,0.4,0.3,0.7c-0.1,1.1-0.2,2.2-0.5,3.2c-0.1,0.4-0.1,0.8,0,1.2c0.1,0.3-0.1,0.4-0.3,0.5
			c-0.2,0.2-0.4,0.1-0.6,0C132,275,132,274.8,132.2,274.5C132.2,274.6,132.2,274.6,132.2,274.5L132.2,274.5z"/>
		<path class="st1" d="M94.5,277.1c0,0.3,0,0.7-0.1,1c0,0,0.1,0.1,0.2,0.1c0.3-0.2,0.6-0.3,0.8-0.6c0.1-0.3,0.4-0.5,0.7-0.7
			c0.3-0.2,0.6-0.1,0.6,0.2c0.1,0.4,0,0.8,0,1.2c0,0.5-0.1,1-0.2,1.4c0,0.1,0.1,0.2,0.1,0.2c0.1,0,0.2,0,0.2-0.1
			c0.2-0.3,0.4-0.6,0.5-0.9c0.4-0.8,0.7-1.6,1-2.4c0.1-0.2,0.1-0.4,0.1-0.6c0.1-0.3,0.2-0.5,0.5-0.4c0.4,0,0.6,0.4,0.4,0.8
			c-0.3,0.7-0.7,1.5-0.9,2.2c-0.3,0.7-0.7,1.4-1.1,2.1c-0.3,0.5-0.8,0.5-1.2,0.2c-0.5-0.4-0.7-1-0.5-1.6c0-0.2,0.1-0.3,0.1-0.5
			l-0.1-0.1c-0.3,0.5-0.9,0.7-1.1,1.3c-0.2,0.4-0.5,0.8-0.8,1.1c-0.1,0.2-0.4,0.2-0.6,0.2c-0.2-0.1-0.3-0.3-0.3-0.5
			c0-0.3,0.1-0.6,0.2-0.8c0.1-0.5,0.2-1,0.2-1.5c0-0.4,0.1-0.9,0.2-1.3c0-0.3,0.1-0.6,0.1-0.8c0-0.3,0.2-0.5,0.4-0.5
			c0.1,0,0.3,0.1,0.5,0.2c0.3,0.2,0.4,0.4,0.2,0.8C94.5,276.8,94.5,277,94.5,277.1L94.5,277.1z"/>
		<path class="st1" d="M137.5,269.6c0.1,0,0.2,0,0.3,0c0.2,0.1,0.4,0.2,0.4,0.5s0,0.5-0.2,0.8c-0.3,0.6-0.4,1.3-0.4,2
			c0,0.1,0.1,0.2,0.2,0.2c0,0,0.2,0,0.2-0.1c0.1-0.1,0.2-0.2,0.3-0.4c0.1-0.1,0.2-0.2,0.3-0.1s0.2,0.2,0.1,0.3
			c-0.1,0.3-0.3,0.6-0.4,0.9c-0.4,0.6-0.8,0.7-1.3,0.1c-0.2-0.2-0.2-0.2-0.4,0c-0.3,0.4-0.5,0.8-1,1s-1-0.1-1.1-0.6
			c-0.1-0.7-0.1-1.4,0.4-2c0.3-0.4,0.5-1,0.8-1.4s0.6-0.8,1-1.2C136.8,269.5,136.9,269.5,137.5,269.6z M135.3,273.3
			c0,0.2-0.1,0.4,0,0.5c0,0.2,0.1,0.2,0.3,0.1c0.1-0.1,0.2-0.2,0.2-0.2c0.7-0.8,1.1-1.9,1.2-2.9v-0.1v-0.1c-0.1,0-0.1,0-0.2,0.1
			c-0.1,0.1-0.3,0.3-0.4,0.4c-0.2,0.4-0.4,0.9-0.7,1.3C135.5,272.6,135.4,272.9,135.3,273.3z"/>
		<path class="st1" d="M154.5,268.2c0,0.3-0.1,0.5-0.1,0.8c-0.1,0.7-0.2,1.4-0.4,2.1c-0.1,0.4-0.1,0.8-0.2,1.2
			c-0.1,0.3-0.3,0.4-0.6,0.4s-0.5-0.3-0.4-0.6c0.1-0.6,0.3-1.3,0.4-1.9c0.1-0.6,0.3-1.2,0.4-1.8v-0.1h-0.1c-0.1,0.1-0.2,0.2-0.3,0.3
			c-0.5,0.7-1,1.4-1.4,2.2c-0.1,0.2-0.2,0.5-0.3,0.7c-0.2,0.4-0.4,0.7-0.7,1.1c-0.1,0.2-0.2,0.1-0.4,0c-0.3-0.3-0.4-0.4-0.3-0.8
			c0.1-0.6,0.2-1.1,0.4-1.7c0.1-0.4,0.2-0.8,0.2-1.2c0-0.3,0.2-0.3,0.4-0.3s0.3,0.2,0.3,0.4c0,0,0,0,0,0.1c0,0.2-0.2,0.4,0,0.6
			c0.1-0.1,0.3-0.3,0.4-0.4c0.3-0.5,0.6-0.9,1-1.4c0.3-0.4,0.6-0.7,1.2-0.8c0.4,0,0.5,0.1,0.5,0.5
			C154.5,267.8,154.5,268,154.5,268.2C154.4,268.2,154.5,268.2,154.5,268.2z"/>
		<path class="st1" d="M184.8,268c0.1-0.3,0.2-0.7,0.3-1c0.2-1,0.4-2,0.5-3.1c0.1-0.7,0.2-1.4,0.2-2.1c0.1-1.2,0.3-2.4,0.4-3.7
			c0-0.2,0-0.4,0.1-0.5s0.3-0.3,0.4-0.2c0.1,0,0.3,0.2,0.3,0.4c0,0.3-0.1,0.6-0.1,0.9c-0.1,0.5-0.1,1.1-0.2,1.6
			c-0.1,0.5-0.2,1.1-0.2,1.6s0,1-0.1,1.5c-0.1,0.6-0.2,1.2-0.2,1.8c-0.1,0.9-0.5,1.7-0.4,2.6c0,0.3-0.1,0.6-0.1,0.8
			c-0.1,0.2-0.1,0.3,0.1,0.4c0.1,0,0.1,0.2,0.1,0.3c0,0.1,0,0.1-0.1,0.2c-0.2,0.1-0.5,0.3-0.7,0.3c-0.3,0-0.3-0.3-0.3-0.6
			C184.7,268.9,184.7,268.5,184.8,268z"/>
		<path class="st1" d="M81.6,280.6c0.1-0.3,0.3-0.6,0.4-0.9c0.2-0.3,0.5-0.6,0.8-1c0.4-0.5,0.9-0.9,1.5-1.1c0.2-0.1,0.5,0,0.6,0.1
			c0.2,0.2,0.3,0.1,0.5,0c0.5-0.2,0.7-0.1,0.7,0.5c0,0.2-0.1,0.3-0.2,0.5c-0.1,0.4-0.2,0.9-0.3,1.3c0,0.2,0,0.3,0.3,0.2
			c0.2-0.2,0.3,0,0.4,0.1c0,0,0,0.2,0,0.3c-0.2,0.3-0.3,0.7-0.8,0.7c-0.2,0-0.4-0.1-0.5-0.3c-0.1-0.3-0.2-0.3-0.4-0.1
			c-0.2,0.2-0.4,0.4-0.6,0.5c-0.4,0.4-0.8,0.4-1.3,0.5C82,281.9,81.6,281.4,81.6,280.6z M85,278.6c0.1-0.1,0.1-0.3-0.2-0.2
			c-0.2,0.1-0.5,0-0.6,0.2c-0.6,0.5-1.1,1.1-1.6,1.7c-0.1,0.1-0.1,0.3-0.1,0.5s0.2,0.3,0.4,0.2c0.4-0.1,0.7-0.3,1-0.6
			C84.5,279.9,84.8,279.4,85,278.6z"/>
		<path class="st1" d="M91,278.2c0-0.4,0.1-0.8,0.1-1.1c0-0.1,0-0.2,0-0.2c-0.1,0-0.2,0-0.2,0c-0.3,0.3-0.6,0.5-0.9,0.8
			c-0.7,0.8-1.2,1.7-1.8,2.6c-0.1,0.1-0.1,0.2-0.2,0.2c-0.5,0.4-0.7,0.3-0.8-0.3c-0.1-0.8,0-1.6,0.4-2.4c0.1-0.2,0.3-0.3,0.6-0.2
			c0.3,0,0.3,0.2,0.3,0.4c-0.1,0.2-0.2,0.5-0.3,0.7c0,0.1,0,0.1,0,0.2l0.1-0.1c0.3-0.3,0.5-0.6,0.8-1c0.4-0.6,0.9-1.1,1.4-1.5
			c0.2-0.2,0.5-0.3,0.8-0.4s0.6,0,0.8,0.4c0.1,0.2,0.1,0.5,0.1,0.8c0,0.5-0.1,1-0.1,1.5c0,0.4,0,0.8,0,1.1c0,0.3-0.2,0.6-0.5,0.6
			c-0.1,0-0.2,0-0.2-0.1c-0.2-0.2-0.3-0.4-0.3-0.6C90.9,279.1,91,278.7,91,278.2L91,278.2z"/>
		<path class="st1" d="M139.6,273.7c0.1-0.4,0.2-0.8,0.2-1.2c0-0.7,0-1.4,0-2.1c0-0.3,0.1-0.5,0.3-0.6s0.5,0.2,0.6,0.4
			c0.1,0.2,0.1,0.4,0.1,0.6c0.2-0.1,0.3-0.3,0.5-0.4c0.5-0.4,0.9-0.8,1.4-1.2c0.1-0.1,0.3-0.1,0.4-0.1c0.1,0,0.3,0.1,0.4,0.2
			c0.1,0.2,0,0.3-0.2,0.4c-0.5,0.2-0.9,0.7-1.3,1.1c-0.4,0.4-0.6,0.9-0.9,1.5c-0.3,0.6-0.4,1.3-0.7,1.8c-0.1,0.1-0.1,0.2-0.2,0.3
			c-0.2,0.2-0.4,0.1-0.5-0.1C139.6,274.1,139.5,273.9,139.6,273.7C139.5,273.7,139.5,273.7,139.6,273.7z"/>
		<path class="st1" d="M182.6,268.2c0-0.5,0-1,0-1.6c0-0.2,0.1-0.3,0.1-0.5c0.1-0.2,0.3-0.3,0.5-0.3s0.3,0.2,0.3,0.4
			c0,0.4,0,0.7,0,1.1c0,0.3-0.1,0.7,0.1,1c0.2,0.3-0.2,1-0.6,1.1c-0.3,0.1-0.6-0.3-0.6-0.6C182.5,268.6,182.5,268.4,182.6,268.2z"/>
		<path class="st1" d="M69.6,270.6c-0.6-0.1-1-0.6-0.7-1.2c0.1-0.2,0.2-0.5,0.4-0.7c0.1-0.2,0.3-0.3,0.5-0.2
			c0.2,0.1,0.4,0.2,0.4,0.5c0,0.1,0,0.1,0,0.2c0,0.2,0.1,0.3,0.3,0.3c0.4,0.1,0.4,0.1,0.2,0.5C70.4,270.5,70.1,270.6,69.6,270.6z"/>
		<path class="st1" d="M188.5,268.8c0.2-0.3,0.4-0.7,0.6-1c0.2-0.2,0.6-0.2,0.8,0c0.1,0.1,0.2,0.2,0.1,0.3c-0.1,0.6-0.4,1-0.8,1.4
			c-0.2,0.1-0.4,0.1-0.6-0.1C188.6,269.2,188.6,269,188.5,268.8z"/>
	</g>
</g>
<path class="st1" d="M64.6,288.2c0-0.4,0-0.8,0-1.2c0-0.4,0.2-0.7,0.5-1c0.1-0.1,0.2-0.1,0.3-0.1c0,0.1,0.1,0.2,0,0.3
	c-0.2,0.6-0.2,1.2-0.1,1.8c0.2,1.1,0.8,1.6,1.9,1.4c0.3-0.1,0.5-0.3,0.6-0.5c0.2-0.6,0.4-1.2,0.6-1.8c0.2-0.8,0.3-1.6,0.5-2.4
	c0.1-0.5,0.1-1,0.2-1.5c0.3-2.2,0.5-4.4,0.5-6.6c0-0.9,0-1.9,0.3-2.8c0-0.1,0.1-0.3,0.1-0.3c0.2-0.1,0.4-0.1,0.5,0
	c0.1,0,0.2,0.3,0.1,0.4c-0.3,0.5-0.1,1.1-0.1,1.6s-0.1,1-0.1,1.5c0,0.6,0,1.2,0,1.9c0,0.7,0,1.3-0.1,2c-0.1,0.4-0.1,0.9-0.1,1.4
	c-0.1,1.2-0.4,2.4-0.6,3.6c-0.1,0.3-0.1,0.6-0.1,0.8c-0.1,0.9-0.3,1.7-0.6,2.5c-0.3,0.8-0.8,1.1-1.7,1c-0.2,0-0.5,0-0.7,0
	c-0.8-0.1-1.3-0.5-1.5-1.2C64.7,288.6,64.6,288.4,64.6,288.2z"/>
</svg>
